<?xml version="1.0" encoding="UTF-8"?>
<!DOCTYPE svg PUBLIC "-//W3C//DTD SVG 1.1//EN" "http://www.w3.org/Graphics/SVG/1.1/DTD/svg11.dtd">
<!-- Creator: CorelDRAW -->
<svg xmlns="http://www.w3.org/2000/svg" xml:space="preserve" width="180.58mm" height="44.4464mm" style="shape-rendering:geometricPrecision; text-rendering:geometricPrecision; image-rendering:optimizeQuality; fill-rule:evenodd; clip-rule:evenodd"
viewBox="0 0 180.579 44.4463"
 xmlns:xlink="http://www.w3.org/1999/xlink">
 <defs>
  <style type="text/css">
   <![CDATA[
    .fil1 {fill:#010001}
    .fil8 {fill:#03040A}
    .fil0 {fill:#30DDB0}
    .fil14 {fill:#3A4547}
    .fil10 {fill:#5A6567}
    .fil21 {fill:#6A7576}
    .fil22 {fill:#757879}
    .fil20 {fill:#76837B}
    .fil17 {fill:#7A8687}
    .fil9 {fill:#858888}
    .fil19 {fill:#878B95}
    .fil16 {fill:#969898}
    .fil12 {fill:#AFB0AE}
    .fil13 {fill:#B5B9B9}
    .fil11 {fill:#B8BBC5}
    .fil15 {fill:#C6C8C9}
    .fil18 {fill:#E5E6E7}
    .fil7 {fill:#EDF3F3}
    .fil6 {fill:#F3F4F4}
    .fil5 {fill:#F5F9F9}
    .fil3 {fill:#F9FAFA}
    .fil4 {fill:#FAFAFD}
    .fil2 {fill:#FBFCFC}
    .fil23 {fill:white;fill-rule:nonzero}
   ]]>
  </style>
 </defs>
 <g id="Camada_x0020_1">
  <metadata id="CorelCorpID_0Corel-Layer"/>
  <g id="_251852264">
   <path id="_251858672" class="fil0" d="M122.926 6.39179l0.1693 0 0.0845998 0.127 0.0423999 0.1693 0.0422999 0.253999 0 0.338599 -0.0422999 0.380999 0 0.465599 -0.0423999 0.507999 -0.0422999 0.592599 -0.0422999 0.465699 -0.0422999 0.380899 0 0.253999 -0.0423999 0.931298 0 1.0159 -0.0422999 1.1852 0 1.3546 0 0.2116 0.0846998 0.1694 0.0845998 0.0845998 0.0846998 0.0423999 0.127 -0.0423999 0.127 -0.0845998 0.380899 -0.380999 0.423299 -0.296299 0.465699 -0.296299 0.465599 -0.2117 0.507999 -0.1693 0.507899 -0.127 0.592599 -0.0845998 0.550299 0 0.888998 0.0422999 0.846598 0.0845998 0.761898 0.2117 0.761898 0.253999 0.677298 0.338599 0.634999 0.423299 0.592599 0.507999 0.507899 0.592599 0.465699 0.592599 0.380999 0.634999 0.296299 0.677198 0.296299 0.719698 0.1693 0.804198 0.1693 0.804298 0.0846998 0.846598 0.0422999 0.931198 -0.0422999 0.846598 -0.0846998 0.804198 -0.1693 0.804298 -0.2117 0.719598 -0.296299 0.719598 -0.338599 0.677298 -0.380999 0.634999 -0.465599 0.592599 -0.550299 0.592599 -0.592599 0.507999 -0.634999 0.423299 -0.677298 0.338599 -0.719598 0.253999 -0.719598 0.2116 -0.804198 0.127 -0.846598 0.0423999 -0.592699 -0.0423999 -0.592599 -0.0422999 -0.550299 -0.127 -0.507899 -0.1693 -0.465699 -0.2117 -0.465599 -0.2116 -0.423299 -0.296299 -0.380999 -0.338699 -0.127 -0.0845998 -0.0845998 0 -0.0846998 0.0422999 -0.0845998 0.0846998 -0.0846998 0.2116 -0.0422999 0.253999 -0.0846998 0.296299 -0.0846998 0.1693 -0.0845998 0.1693 -0.0846998 0.0423999 -0.127 0.0422999 -0.296299 0 -0.380899 0 -0.507999 0.0422999 -0.677298 0 -0.761898 0 -0.931298 0 -1.0582 0 -0.1694 0 0.380999 -0.465599 0.2117 -0.423299 0.1693 -0.465599 0.127 -0.507999 0 -0.592599 0 -0.1693 0.1693 0 0.1693 -0.0846998 0.296299 -0.127 0.380999 -0.127 0.423299 -0.127 0.423299 -0.1693 0.380999 -0.1693 0.296299 -0.1693 0.1693 -0.1693 0.0846998 -0.1694 -0.0846998 -0.2116 -0.127 -0.253999 -0.1693 -0.2116 -0.1693 -0.2117 -0.1694 -0.2116 -0.1269 -0.2117 -0.0423999 -0.127 -0.0845998 -0.804298 0.296299 -0.0422999 0.296299 -0.1693 0.253999 -0.2117 0.2116 -0.253899 0.2117 -0.338699 0.1693 -0.380899 0.127 -0.423299 0.0845998 -0.465599 0 -0.507899 0 -0.550299 -0.127 -0.507999 -0.1693 -0.507999 -0.2116 -0.380899 -0.507999 -0.592599 0.507999 -0.592699 0.2116 -0.423299 0.1693 -0.465599 0.127 -0.507999 0 -0.592599 0 -0.465599 -0.0845998 -0.465599 -0.127 -0.423299 -0.1693 -0.380999 -0.2117 -0.338599 -0.2116 -0.296399 -0.253999 -0.2116 -0.296299 -0.127 -0.338699 -0.0422999 0.0846998 -0.465699 0 -0.0845998 -0.0422999 -0.127 0 -0.127 0.0845998 -0.2116 0.0846998 -0.127 0.1693 -0.2117 0.423299 -0.380999 0.1693 -0.253899 0.127 -0.2117 0.0422999 -0.1693 -0.0422999 -0.2117 -0.0845998 -0.0845998 -0.0846998 -0.0846998 -0.338599 -0.1693 -0.380999 -0.1693 -0.465599 -0.1693 -0.423299 -0.1694 -0.423299 -0.127 -0.296399 -0.1269 -0.1269 -0.0423999 -0.0846998 -0.0845998 -0.2117 0.0422999 0.0423999 -0.380999 0 -0.550299 -0.127 -0.550299 -0.1693 -0.465599 -0.2117 -0.423299 -0.423299 -0.465599 0.465599 -0.0422999 0.380999 -0.0423999 0.465599 -0.0422999 0.507999 -0.0422999 0.592599 -0.0423999 0.846598 -0.0845998 0.761998 -0.0423999 0.677198 -0.0422999 0.592699 0 0 0zm2.96309 12.2334l-0.634999 0.0422999 -0.592599 0.2117 -0.507999 0.296299 -0.465599 0.380999 -0.338599 0.507899 -0.253999 0.592599 -0.127 0.592699 -0.0422999 0.677198 0.0422999 0.719598 0.127 0.592599 0.253999 0.550299 0.338599 0.507899 0.465599 0.380999 0.507999 0.296299 0.592599 0.2117 0.677298 0.0422999 0.677298 -0.0422999 0.592599 -0.2117 0.507999 -0.296299 0.465599 -0.423299 0.338599 -0.507999 0.253999 -0.550299 0.127 -0.592599 0.0422999 -0.719498 -0.0422999 -0.634899 -0.1693 -0.634999 -0.253999 -0.550299 -0.380999 -0.507899 -0.423299 -0.380999 -0.550299 -0.296299 -0.592599 -0.2117 -0.634899 -0.0422999 0 0z"/>
   <polygon id="_251858936" class="fil0" points="154.462,8.71998 154.716,8.71998 155.012,8.76228 155.351,8.80458 155.774,8.88928 156.197,9.01628 156.578,9.05858 156.832,9.14328 157.044,9.14328 157.552,9.22788 158.144,9.27028 158.822,9.35488 159.626,9.48188 159.795,9.48188 159.922,9.56658 160.007,9.65118 160.007,9.73588 160.007,10.1169 160.007,10.5825 159.965,11.1328 159.922,11.7677 159.88,12.3604 159.838,12.9106 159.838,13.3763 159.795,13.7572 159.838,14.1382 159.922,14.3922 160.092,14.5192 160.303,14.5615 160.599,14.5615 161.023,14.5615 161.488,14.5615 162.039,14.5192 162.589,14.5192 163.097,14.4769 163.478,14.4769 163.817,14.4769 163.986,14.4769 164.113,14.5615 164.155,14.6038 164.198,14.7308 164.198,14.9425 164.155,15.1965 164.155,15.4928 164.113,15.8737 164.071,16.2124 164.028,16.551 164.028,16.805 164.028,17.0167 164.028,17.2283 164.028,17.4823 164.028,17.8209 164.028,18.1596 164.028,18.5405 164.028,18.8368 164.028,19.0908 164.028,19.3448 164.028,19.4718 163.944,19.5988 163.774,19.6411 163.563,19.6834 163.393,19.6834 163.139,19.6834 162.843,19.6411 162.462,19.6411 162.081,19.6411 161.785,19.6411 161.531,19.6411 161.361,19.6411 160.092,19.6411 160.007,19.6834 159.922,19.8104 159.88,20.0221 159.88,20.3607 159.88,20.5724 159.88,20.8264 159.88,21.165 159.88,21.546 159.88,21.8846 159.88,22.2232 159.88,22.4771 159.88,22.6887 159.88,23.3236 159.965,23.8739 160.049,24.2972 160.176,24.6359 160.472,24.9322 160.853,25.1438 161.361,25.2708 161.954,25.3131 162.166,25.3131 162.462,25.2708 162.758,25.2285 163.139,25.1438 163.478,25.0592 163.774,25.0168 164.028,24.9745 164.198,24.9322 164.367,24.9745 164.494,25.0592 164.536,25.1438 164.578,25.3131 164.536,25.6095 164.536,25.9481 164.494,26.3714 164.451,26.837 164.367,27.3027 164.367,27.6836 164.325,28.0223 164.325,28.3186 164.325,28.5302 164.282,28.6996 164.24,28.8265 164.198,28.9112 164.155,28.9959 164.028,29.0805 163.859,29.1652 163.69,29.2922 162.589,29.8001 161.404,30.1811 160.218,30.3928 158.949,30.4774 157.806,30.3928 156.832,30.2234 156.028,29.9271 155.351,29.5462 154.843,29.0382 154.462,28.4032 154.208,27.6413 154.165,26.7947 154.165,26.2021 154.165,25.4401 154.208,24.5512 154.25,23.5353 154.292,22.4771 154.292,21.5883 154.292,20.8687 154.335,20.2337 154.25,19.9374 154.123,19.6834 153.827,19.5565 153.488,19.5141 153.403,19.5141 153.276,19.5141 153.149,19.5141 153.022,19.5141 152.769,19.5141 152.557,19.4295 152.472,19.2601 152.43,19.0908 152.43,18.7522 152.472,18.2866 152.472,17.7786 152.515,17.44 152.515,17.2706 152.472,17.0167 152.472,16.7203 152.472,16.3817 152.43,16.0854 152.43,15.7891 152.43,15.5351 152.43,15.3235 152.472,15.1965 152.684,15.0695 153.022,15.0271 153.488,14.9848 153.742,14.9425 153.954,14.9002 154.081,14.7732 154.123,14.6462 154.165,14.2652 154.165,13.8419 154.208,13.2916 154.165,12.6567 154.165,12.1487 154.165,11.7254 154.165,11.3868 154.123,11.0904 154.123,10.8788 154.123,10.7095 154.123,10.6248 154.123,10.6248 154.123,10.1592 154.165,9.77818 154.165,9.43958 154.208,9.18558 154.25,8.97388 154.335,8.80458 154.377,8.71998 154.462,8.71998 "/>
   <path id="_251858504" class="fil0" d="M172.96 13.3763l0.804298 0.0422999 0.719598 0.0846998 0.719598 0.1693 0.719598 0.253999 0.634899 0.338599 0.634999 0.380999 0.592599 0.507899 0.550299 0.507999 0.550299 0.592599 0.423299 0.634999 0.380999 0.634899 0.338599 0.677298 0.2117 0.719598 0.1693 0.719598 0.127 0.761998 0.0422999 0.761898 -0.0422999 0.423299 -0.0423999 0.338599 -0.0845998 0.296299 -0.127 0.253899 -0.127 0.2117 -0.1693 0.1693 -0.253999 0.127 -0.253999 0.0846998 -0.0845998 0.0422999 -0.1694 0 -0.296299 0.0422999 -0.380899 0.0422999 -0.465699 0.0423999 -0.592599 0.0422999 -0.677298 0.0846998 -0.761898 0.0845998 -0.507999 0.0423999 -0.550299 0.0845998 -0.634899 0.0422999 -0.719598 0.0846998 -0.761998 0.0422999 -0.804198 0.0846998 -0.888998 0.0422999 -0.931198 0.0846998 0.1693 0.507899 0.296299 0.423299 0.423299 0.380999 0.507999 0.338699 0.507899 0.1693 0.507999 0.1693 0.592599 0.0846998 0.592599 0.0422999 0.719598 -0.0846998 0.761998 -0.127 0.719598 -0.253899 0.761898 -0.338699 1.2276 -0.804298 0.127 0.0846998 0.0845998 0.0846998 0.127 0.1693 0.127 0.1693 0.1693 0.2117 0.1694 0.296299 0.1693 0.296299 0.2116 0.380899 0.338699 0.677298 0.253999 0.550299 0.1693 0.423299 0.0422999 0.296299 -0.0422999 0.127 -0.2117 0.253999 -0.507899 0.507999 -0.634999 0.423299 -0.677298 0.380899 -0.719598 0.296299 -0.846598 0.2117 -0.888898 0.1693 -0.931298 0.127 -1.0582 0.0422999 -0.931298 -0.0422999 -0.931198 -0.127 -0.846598 -0.1693 -0.846598 -0.253999 -0.761998 -0.296299 -0.719598 -0.423299 -0.677298 -0.465599 -0.634899 -0.550299 -0.550299 -0.592599 -0.507999 -0.634999 -0.423299 -0.719598 -0.380999 -0.761898 -0.253899 -0.804298 -0.2117 -0.846598 -0.0845998 -0.888898 -0.0423999 -0.973598 0 -0.931198 0.127 -0.888898 0.1693 -0.804298 0.253999 -0.804298 0.296299 -0.761898 0.380999 -0.719598 0.465599 -0.677298 0.507999 -0.634999 0.592599 -0.592599 0.634999 -0.507899 0.719598 -0.423299 0.719598 -0.338699 0.761898 -0.296299 0.846598 -0.2116 0.846598 -0.0846998 0.931298 -0.0422999 0 0zm-0.634999 4.23299l-0.507899 0.0422999 -0.465699 0.1693 -0.380899 0.253999 -0.380999 0.380999 -0.253999 0.423299 -0.2116 0.465599 -0.127 0.507999 -0.0422999 0.507899 0.0422999 0.2117 0.0845998 0.127 0.1694 0.0845998 0.1693 0.0423999 0.338599 0 0.380999 -0.0423999 0.423299 0 0.423299 -0.0422999 1.0582 -0.127 1.1853 -0.1693 0.253999 -0.0422999 0.1693 -0.0846998 0.0845998 -0.0422999 0.0423999 -0.0846998 -0.0423999 -0.507999 -0.1269 -0.465599 -0.253999 -0.423299 -0.296299 -0.423299 -0.380999 -0.338599 -0.423299 -0.253999 -0.465599 -0.127 -0.465699 -0.0422999 0 0z"/>
   <polygon id="_251858792" class="fil0" points="136.006,14.4345 136.471,14.4345 137.064,14.4345 137.784,14.4345 138.588,14.4769 139.392,14.4769 140.069,14.5192 140.662,14.5192 141.128,14.5192 141.297,14.5615 141.382,14.6462 141.466,14.8155 141.466,15.0271 141.466,15.2811 141.466,15.6198 141.466,16.0007 141.424,16.424 141.424,16.8473 141.382,17.2283 141.382,17.5669 141.382,17.8209 141.382,18.7945 141.382,19.5565 141.424,20.1914 141.424,20.657 141.509,20.9957 141.72,21.4613 142.017,22.0962 142.44,22.8157 142.694,23.1966 142.906,23.493 143.117,23.7893 143.287,24.0432 143.456,24.2126 143.625,24.3396 143.752,24.4242 143.879,24.4242 143.964,24.4242 144.091,24.3396 144.218,24.2126 144.387,24.0432 144.556,23.7893 144.726,23.5353 144.937,23.1966 145.149,22.8157 145.53,22.0962 145.826,21.546 145.996,21.0803 146.08,20.7417 146.207,19.2178 146.25,17.6093 146.25,17.3553 146.207,17.0167 146.207,16.678 146.165,16.2547 146.123,15.7891 146.08,15.4504 146.08,15.1118 146.08,14.8578 146.08,14.7308 146.165,14.6462 146.292,14.5615 146.419,14.5615 146.885,14.5615 147.477,14.5192 148.155,14.5192 148.959,14.4769 149.721,14.4769 150.44,14.4345 150.991,14.4345 151.456,14.4345 151.668,14.4345 151.837,14.5192 151.964,14.6462 152.049,14.8578 152.091,15.0695 152.176,15.3658 152.218,15.7044 152.218,16.1277 152.261,16.5934 152.261,17.1013 152.303,17.6939 152.303,18.3712 152.303,19.1332 152.261,19.8104 152.261,20.4031 152.218,20.9534 152.218,21.3767 152.176,21.7576 152.134,22.0539 152.091,22.2655 151.964,22.5618 151.753,22.9427 151.456,23.493 151.075,24.1702 150.567,24.9745 149.975,25.9481 149.255,27.0487 148.451,28.2339 148.324,28.4879 148.112,28.7842 147.816,29.1652 147.52,29.5885 147.139,30.0964 146.715,30.6467 146.25,31.2817 145.742,32.0013 145.149,32.7632 144.641,33.4405 144.218,33.9908 143.837,34.4564 143.498,34.8374 143.244,35.1337 143.075,35.3454 142.948,35.43 142.821,35.4724 142.482,35.5147 142.059,35.557 141.509,35.5993 140.789,35.6417 139.942,35.6417 138.969,35.684 137.868,35.684 137.572,35.6417 137.276,35.6417 137.064,35.557 136.937,35.5147 136.683,34.7527 136.387,33.9061 135.836,32.7209 135.667,32.3399 135.54,32.0013 135.498,31.7473 135.456,31.578 135.54,31.3663 135.752,31.2817 136.81,31.2394 137.741,31.1547 138.546,30.9854 139.181,30.7314 139.689,30.4351 140.069,30.0964 140.281,29.6731 140.366,29.1652 140.323,29.0805 140.196,28.9112 140.027,28.6149 139.773,28.2762 139.477,27.8106 139.096,27.2603 138.63,26.6254 138.08,25.9058 137.53,25.1438 137.064,24.4242 136.641,23.8316 136.302,23.2813 136.006,22.8157 135.794,22.4348 135.625,22.0962 135.54,21.8423 135.498,21.7153 135.456,21.4613 135.456,21.165 135.413,20.7417 135.413,20.2761 135.413,19.7681 135.413,19.1332 135.413,18.4135 135.413,18.1172 135.413,17.6939 135.413,17.186 135.413,16.6357 135.456,16.0854 135.456,15.5774 135.456,15.1965 135.456,14.8578 135.498,14.6462 135.583,14.5192 135.752,14.4345 "/>
   <path id="_251859200" class="fil1" d="M26.3714 33.3559l-0.296299 0.296299 -0.380999 0.1693 -0.380899 0 -0.253999 -0.0422999 -0.2117 -0.127 -0.127 -0.0423999 -0.0845998 -0.0422999 -0.0422999 -0.0422999 -0.0423999 -0.0846998 0 -0.0422999 -0.0422999 -0.127 1.8625 0.0846998 0 0zm0.719598 2.1165l-0.338599 0 -0.931298 0.296299 -0.380899 -0.380999 -0.253999 0.127 -0.1693 0.0845998 -0.253999 0.0846998 -0.1693 0.0422999 -0.0846998 0 -0.0846998 -0.0422999 -0.0845998 -0.0422999 -0.127 -0.0423999 -0.2117 -0.0422999 -0.1693 0 -0.127 0 -0.2116 0.0846998 -0.0846998 0 -0.2116 0 -0.253999 -0.0846998 -0.380999 -0.1693 -0.380999 -0.1693 -0.296199 -0.2117 -0.296299 -0.1693 -0.2116 -0.253999 -0.2117 -0.253999 -0.127 -0.296299 -0.1693 -0.380899 -0.127 -0.423299 0.592599 -0.1694 0.677298 0.804298 0.380899 0.423299 0.380999 0.338699 0.338599 -0.888998 0.634999 0.634999 0.761898 -0.0846998 0.761898 -0.0422999 0.804298 0 0.761998 0.0845998 0.338599 -0.465599 0.677298 0.550299 0.761898 -0.423299 -0.0845998 0.465599 -0.0423999 0.380999 -0.0422999 0.338599 -0.0846998 0.253999 -0.1693 0.1693 -0.2116 0.127 -0.380999 0.0846998 -0.465599 0 -0.0423999 -0.338599 0 0zm-6.30699 -2.37049l-0.2117 -0.127 -0.1693 -0.2117 -0.2117 -0.423299 -0.127 -0.550299 -0.0845998 -0.507899 0.253999 0 0.253899 0 0.338699 0 0.253999 0.0845998 0.338599 0.1694 -0.634899 1.5662 0 0zm-4.23309 -2.1589l-0.0845998 -0.0845998 -0.0846998 -0.0422999 -0.0845998 -0.0846998 -0.0846998 -0.1693 -0.127 -0.338699 -0.127 -0.338599 -0.0422999 -0.380999 0 -0.380899 0.127 -0.761998 0.1693 -0.634899 0.338599 3.21699 0 0zm-1.1852 -3.80969l0.127 -0.1693 0.0422999 -0.0845998 0 0 0 0 -0.0422999 0.0422999 0 0 0.0422999 -0.0422999 0.127 -0.0846998 0.127 -0.0846998 0.0422999 -0.0845998 0.0423999 0 0.0422999 -0.0423999 0.0846998 0 0.0845998 -0.0845998 -0.719598 0.634899 0 0zm7.02668 -8.55048l0.0422999 0.338599 0 0.338599 -0.0422999 0.507999 -0.2117 0.423299 -0.1692 0.253999 -0.1693 0.253999 -0.677298 -1.3546 0.296299 -0.253999 0.2117 -0.2116 0.127 -0.127 0.0845998 -0.127 0.2116 -0.0422999 0.127 0 0.1693 0 0 0zm0 0l0.0846998 -0.296299 0.1269 -0.1694 0.1694 -0.0845998 0.296299 -0.127 0.634899 -0.1693 0.592599 -0.0423999 0.550299 -0.0422999 0.592699 0.0422999 0.380899 0.0423999 0.253999 -0.0423999 0.296299 -0.0845998 0.296299 0 0.2117 0 0.127 0.0422999 0.2116 0.0846998 0.2117 0.0845998 0.1693 0 0.2116 0 0.465699 0 0.423299 0.0423999 0.380899 0.1269 0.296399 0.2117 0.2116 0.296299 0.1693 0.338599 0.0423999 0.380999 -0.0846998 0.423299 -0.465599 -0.634899 -0.761998 0.973598 -0.761898 -0.846598 -0.634999 0.634899 -1.1429 -0.804298 -0.761898 0.846598 -1.1853 -0.719598 -0.465599 0.634999 -0.2116 -0.1693 -0.1694 -0.0846998 -0.127 -0.0846998 -0.0422999 -0.0845998 -0.1693 -0.1693 -0.0846998 -0.0846998 -0.127 -0.2117 -0.0422999 -0.0845998 -0.127 -0.127 0 -0.0422999 -0.0422999 0 0 0zm7.23838 -6.47649l0.127 -0.423299 0.1693 -0.465699 0.2117 -0.465599 0.127 -0.1693 0.127 -0.127 -0.761998 1.6509 0 0zm-5.33359 -1.9049l0.127 0.127 0.127 0.0422999 0.0423999 0.0423999 0 0.0422999 0.0422999 0.0422999 0.0422999 0.0423999 0.0422999 0.0845998 0.253999 0.296299 0.2117 0.2117 0.1693 0.127 0.1693 0.0845998 0.2117 0.1693 0.0845998 0.0846998 0.127 0.127 -0.2116 0.0846998 -0.2117 0.0422999 -0.423299 -0.0422999 -0.380999 -0.1694 -0.338599 -0.253899 -0.253999 -0.296399 -0.127 -0.338599 0 -0.1693 0.0423999 -0.127 0.0845998 -0.127 0.1693 -0.127 0 0zm-16.8049 -0.846598l-0.380999 -0.127 -0.380899 -0.127 -0.296299 -0.1693 -0.253999 -0.2116 -0.2117 -0.2117 -0.1693 -0.253999 -0.0845998 -0.296299 -0.0423999 -0.338599 2.0742 0.2116 0.338599 0 0.253999 -0.0422999 0.253999 -0.0422999 0.296299 0.0422999 0.2117 0.0422999 0.1693 0.0846998 0.1693 0.127 0.0846998 0.127 0.0422999 0.0422999 -1.1852 0 0.296299 0.423299 -1.1853 0.719598 0 0zm-2.83609 -0.127l0.465599 0.338699 0.0423999 0.0422999 0 0.0422999 0.0422999 0 0.0422999 0.0423999 0.0423999 0.0422999 -0.677298 -0.0422999 -0.592599 -0.1694 -0.507999 -0.2116 -0.380999 -0.338699 -0.0845998 -0.1693 -0.127 -0.2116 -0.127 -0.2117 -0.0422999 -0.253999 -0.0423999 -0.296299 0.0423999 -0.2116 0.1693 -0.2117 0.253999 -0.127 0.2116 0.296399 0.1693 0.296299 0.296299 0.507899 0.338699 0.423299 0.2116 0.2117 0.253999 0.2116 0 0zm31.832 -1.8202l0.1693 0.296299 0.0846998 0.338699 0.127 0.380999 0.0422999 0.338599 -0.0422999 0.380999 -0.0423999 0.423299 -0.1693 -0.296299 -0.1693 -0.338699 -0.338599 -0.677298 -0.2117 -0.423299 -0.0845998 -0.296299 0 -0.1693 0.0422999 -0.1693 0.0422999 -0.127 0.1693 -0.2117 0.1694 0.1694 0.0845998 0.0845998 0.0422999 0.0846998 0.0846998 0.2116 0 0zm-18.2018 0l0.1693 0.0423999 0.0846998 0.0422999 0.127 0.0846998 0.0845998 0.0845998 0.0422999 0.127 0.0423999 0.127 -0.846598 0.550299 -0.338699 -0.677298 0.1694 0.127 0.1693 0.127 0.0845998 0.0422999 0.0423999 0.0422999 0.1693 0.0423999 0.0845998 -0.0423999 0.127 0 0 -0.1693 0 -0.127 0 -0.0845998 0 -0.0423999 -0.0845998 -0.0845998 -0.0423999 -0.0846998 -0.0845998 -0.127 0 0zm0 0l-0.296299 0 -0.253999 0.0423999 -0.423299 0.127 -0.296299 0.1693 -0.338699 0.253999 0.253999 -0.338699 0.296299 -0.296299 0.1694 -0.0846998 0.2116 -0.0422999 0.253999 0 0.296299 0.0422999 0.127 0.127 0 0zm-14.6039 -1.5238l0.2117 0.465599 0.127 0.507899 -0.338699 -0.380899 -0.380999 -0.338699 -0.1693 -0.1693 -0.1693 -0.2116 -0.0846998 -0.2117 -0.0422999 -0.253999 0.1693 0 0.1694 0 0.2116 0.127 0.127 0.1693 0.1693 0.296399 0 0zm22.0115 -1.2699l0 -0.0846998 0.0423999 -0.0846998 0.0422999 0.0423999 0.0422999 0 0.0846998 0 0.0422999 0 0 0.0422999 -0.0422999 0.127 -0.0846998 0.2116 -0.0845998 -0.0845998 -0.0423999 0 0 0 0 0 0 -0.0846998 0 -0.0845998 0 0zm-14.7307 0.804198l0.2116 0 0.2117 0 0.2116 0.0423999 0.2117 0.0422999 0.253999 0 0.1693 0 0.0845998 0.0422999 0.0423999 0 0.0422999 0.0422999 0.0422999 0.0423999 0.0423999 0.0422999 -1.1429 0.1693 -0.0846998 0 -0.0422999 -0.0422999 0 0 0 0.0422999 0.0422999 0.127 0.634899 0.253999 -0.592599 0.296299 -0.550299 0.253999 -0.253899 0.127 -0.2117 0.0422999 -0.1693 0.0422999 -0.0846998 -0.0422999 -0.0422999 -0.0422999 -0.0422999 -0.0846998 -0.1694 -0.296299 -0.1693 -0.423299 -0.2116 -0.465599 -0.1693 -0.465699 -0.1694 -0.380899 -0.127 -0.296299 -0.0422999 -0.0846998 0 -0.0846998 0.423299 0.465699 0.465599 0.338599 0.253999 0.127 0.296299 0.127 0.296299 0.0422999 0.338699 0 0 0zm16.8049 -0.296299l0.2117 -0.0845998 0.1693 -0.0846998 0.0845998 -0.0846998 0.0423999 -0.0422999 0.0845998 -0.0422999 0.0846998 -0.0423999 0.1693 0 0.253999 0 -0.592599 0.550299 3.51339 0.973598 -0.423299 0.1693 -0.380999 0.1694 -0.253999 0.1693 -0.253999 0.0845998 -0.380899 0.1694 -0.338699 0.0422999 -0.423299 -0.0422999 -0.253999 -0.0423999 -0.296299 -0.0422999 -0.380899 -0.0846998 -0.423299 -0.1269 -0.550299 -0.0846998 -0.634999 -0.1693 -0.0422999 0.0845998 -0.0422999 0.0846998 -0.0423999 0.0846998 0.0423999 0.1269 0.0422999 0.127 0.0846998 0.2117 0.1269 0.338599 -0.804198 -0.0422999 -0.719598 0.0846998 -0.634999 0.0845998 -0.592599 0.127 -1.1429 0.423299 -0.634999 0.253999 -0.677198 0.296299 0 -0.423299 0.0423999 -0.380999 0.127 -0.804198 0.0422999 -0.380999 0 -0.380999 -0.127 -0.338599 -0.253999 -0.296299 -0.1693 -0.1694 -0.2116 -0.0845998 -0.423299 -0.127 -0.380999 -0.0422999 -0.380999 0.0845998 -0.380999 0.127 -0.296299 0.1693 -0.296299 0.127 -0.2116 0.127 -3.04779 0.931298 -0.0846998 0.253999 -0.1269 0.2116 -0.2117 0.1693 -0.2116 0.2117 -0.507999 0.380899 -0.592599 0.380999 0.0845998 0.0846998 0.0423999 0.0422999 0.0845998 0.0422999 0.1693 0.0846998 0.507999 0.1693 0.507999 0.0846998 1.0582 0.127 0.973598 0.0845998 0.423299 0.0423999 0.380999 0.0422999 0.338599 0.127 0.253999 0.127 0.2117 0.2116 0.1269 0.296299 0.0423999 0.338699 -0.0846998 0.465599 -0.1693 0.550299 -0.296299 0.719598 -0.1693 0.423299 -0.127 0.423299 -0.0846998 0.423299 -0.0422999 0.423299 0.0422999 0.846598 0.2117 0.846598 0.253899 0.888898 0.380999 0.888998 0.380999 0.931198 0.423299 1.0159 0.1693 -0.1269 0.0846998 -0.0846998 0.0422999 -0.127 0.0422999 -0.127 0.0846998 -0.127 0.1693 -0.465599 0.127 -0.380999 0 -0.338599 0 -0.253999 -0.0846998 -0.2116 -0.0845998 -0.2117 -0.2117 -0.380999 -0.127 -0.253899 -0.127 -0.253999 -0.0845998 -0.296299 -0.0422999 -0.380999 0 -0.423299 0.0422999 -0.550299 0.127 -0.634899 0.2116 -0.804298 0.2117 -0.634999 0.296299 -0.634899 0.296299 -0.550299 0.380999 -0.507999 0.380899 -0.423299 0.465599 -0.423299 0.465599 -0.338599 0.465599 -0.253999 0.550299 -0.253999 0.550299 -0.1693 0.592599 -0.127 0.592699 -0.0845998 0.634899 -0.0423999 0.634999 0.0423999 0.677198 0.0422999 0.677298 0.127 0.804298 0.1693 0.719598 0.1693 0.592599 0.253999 0.253999 0.2116 0.2116 0.2117 0.1694 0.253999 0.1693 0.296299 0.1693 0.380999 0.0846998 0.465599 0.0845998 0.507899 0.0423999 0.634999 0 0.677298 0 0.804298 -0.380999 3.80969 -0.253999 -0.253999 -0.1693 -0.2117 -0.1693 -0.1693 -0.127 -0.127 -0.127 -0.2116 -0.1693 -0.1694 -0.1694 -0.1269 -0.1693 -0.0846998 -0.1693 -0.0846998 -0.253999 -0.0845998 -0.296299 -0.1693 -0.423299 -0.1694 -0.465599 -0.2116 -0.338699 -0.1693 -0.253899 -0.1694 -0.1694 -0.1693 -0.1693 -0.1693 -0.0845998 -0.1693 -0.0423999 -0.2117 0 -0.338599 0.1694 -0.423299 0.253899 -0.380999 0.296299 -0.423299 0.296399 -0.465599 0 0.0422999 0.0422999 0.0423999 0.1693 0.2116 0.253999 0.253999 0.338599 0.253999 0.380999 0.127 0.2116 0.0422999 0.2117 -0.0422999 0.2116 -0.0846998 0.253999 -0.127 0.2117 -0.253999 0.2116 -0.296299 0.2117 -0.465599 0.127 -0.465699 0 -0.423299 -0.0846998 -0.380899 -0.1693 -0.380999 -0.2117 -0.338599 -0.296299 -0.253999 -0.380899 -0.253999 -0.253999 -0.127 -0.253999 -0.0845998 -0.465599 -0.0423999 -0.423299 0 -0.423299 0.127 -0.380999 0.0846998 -0.423299 0.0845998 -0.423299 0.0423999 -0.507999 -0.0846998 -3.30169 0.423299 -0.0422999 -0.127 -0.380999 0.2117 -0.253999 0.253899 -0.0846998 0.380999 0 0.380999 0.0846998 0.380999 0.1693 0.338599 0.253999 0.296299 0.296299 0.253999 0.465599 0.253999 0.423299 0.127 0.338699 0.0845998 0.338599 0.0423999 0.296299 -0.0423999 0.380999 -0.0845998 0.423299 -0.127 0.507999 -0.127 0.127 0.2116 0.1693 0.296299 0.0845998 0.296399 0.0846998 0.338599 0 0.338599 0 0.338699 -0.127 0.296299 -0.127 0.296299 -0.2116 0.253999 -0.2117 0.1693 -0.465599 0.253999 -0.550299 0.2116 -0.634999 0.253999 -0.465599 0.2117 -0.507899 0.296299 -0.973598 0.719598 -0.465599 0.380899 -0.423299 0.380999 -0.380899 0.380999 -0.296299 0.338599 -0.380999 0.507999 -0.296299 0.550299 -0.1693 0.592599 -0.127 0.634999 -0.0423999 0.634899 0 0.719498 0.0846998 0.719598 0.127 0.761998 0.0845998 0.761898 0.0846998 0.719598 0.0422999 0.634999 0 0.634899 0 0.634999 -0.0422999 0.677198 0 0.677298 -0.0422999 0.804298 0.846598 -0.1693 -0.0423999 0.2116 -0.0422999 0.253999 -0.1693 0.550299 -0.127 0.253999 -0.1693 0.2116 -0.2117 0.127 -0.253899 0 -0.0846998 -0.296299 -0.0846998 -0.380999 0 -0.423299 0 -0.507899 0.0423999 -0.973598 0.0422999 -0.465599 0 -0.380999 -0.127 -0.888898 -0.1693 -0.804298 -0.2117 -0.719598 -0.2116 -0.719598 -0.465599 -1.3123 -0.2117 -0.634899 -0.1693 -0.634899 -0.0846998 -0.423299 -0.0422999 -0.465599 0 -0.888898 0.0422999 -0.888998 0 -0.888898 -0.0422999 -0.423299 -0.0422999 -0.423299 -0.127 -0.719598 -0.0423999 -0.338599 0 -0.380999 0 -0.423299 0.0423999 -0.507999 0.0422999 -0.380899 0.0846998 -0.423299 0.127 -0.888998 0.0845998 -0.888898 0 -0.423299 -0.0422999 -0.380999 -0.127 -0.380999 -0.1693 -0.296299 -0.2117 -0.1693 -0.296299 -0.0845998 -0.296299 -0.0423999 -0.296299 0.0846998 -0.338699 0.127 -0.296299 0.2116 -2.37039 0.0423999 -0.0423999 0.465599 0 0.423299 0.0423999 0.338599 0.0845998 0.296299 0.127 0.2117 0.127 0.2116 0.296299 0.253999 0.338599 0.253999 0.380999 0.2117 0.338699 0.338599 0.1693 0.2116 0.127 0.2117 0.127 0.465599 0.0422999 0.465699 0 0.550199 -0.0422999 0.634999 0 0.634899 0.0422999 0.677298 0.0845998 0.677298 0.253999 0.761898 0.253999 0.550299 0.2117 0.550299 0.465599 0.931298 0.423299 0.888798 0.380999 0.846598 0.338599 0.931298 0.127 0.465599 0.1693 0.550299 0.127 0.592599 0.127 0.592599 0.0846998 0.719698 0.0845998 0.761898 0.127 1.2699 0.0846998 1.2699 0.127 1.1852 0.1693 1.1006 0.296299 1.0159 0.2116 0.507999 0.2117 0.423299 0.296299 0.465599 0.338599 0.380999 0.380999 0.380999 0.465599 0.338599 0.507899 0.253999 0.550299 0.1693 0.634899 0.127 0.677298 0.0422999 1.3546 0 0.677298 0 0.677198 0 2.41289 -3.21699 0.338599 0.719598 0.1693 0.888898 0.0422999 0.888898 -0.0845998 0.973598 -0.253999 0.931298 -0.380999 0.846598 -0.550299 0.761898 -0.296299 0.338699 -0.380899 0.253899 -0.338699 0.2117 -0.423299 0.1693 -0.465599 0.127 -0.465599 0.0846998 -0.973598 0.0422999 -1.0583 -0.0846998 -1.0159 -0.1693 -0.931298 -0.253999 -0.846498 -0.338599 -0.380899 -0.2117 -0.296299 -0.1693 -0.550299 -0.465599 -0.465699 -0.507999 -0.423299 -0.550299 -0.296299 -0.592599 -0.296299 -0.634899 -0.2116 -0.677298 -0.2117 -0.677298 -0.127 -0.719598 -0.2116 -1.4392 -0.127 -1.3969 -0.127 -1.3546 -0.1693 -1.2275 -0.0846998 -0.465699 -0.0845998 -0.465599 -0.2117 -1.1006 -0.127 -1.0582 -0.0422999 -0.465699 0 -0.465599 -0.0846998 0.0422999 -0.0422999 -0.0422999 0 0 0 0 -0.0422999 0.0422999 -0.0423999 0.127 -0.127 0.127 0 -0.127 -0.0422999 -0.0845998 0 -0.127 0.0422999 -0.0846998 0.0423999 -0.0846998 0.0845998 -0.1269 -0.0422999 -0.550299 -1.1006 2.1165 -0.380999 0.380899 0 -0.127 0 -0.1269 0.0423999 -0.127 0.0422999 -0.0846998 0.0422999 -0.0422999 0.0846998 -0.127 0.127 -0.465599 0.127 -0.465699 0 -0.465599 -0.0423999 -0.550299 -0.0845998 -0.296299 -0.0846998 -0.2117 -0.2116 -0.380899 -0.253999 -0.338699 -0.338599 -0.296299 -0.0423999 0.550299 -0.0845998 0.507999 -0.127 0.550299 -0.1693 0.507899 -0.1694 0.465699 -0.253899 0.380899 -0.253999 0.338699 -0.253999 0.253899 -0.0846998 0.127 -0.0422999 0.0846998 -0.0422999 0.127 -0.127 0 -0.0846998 0.0422999 -0.127 0.0422999 0 -0.1693 0 -0.0845998 0 -0.0846998 0.0846998 -0.0422999 0.0846998 -0.0423999 0.0845998 -0.0845998 0.127 -0.465599 0.127 -0.423299 0.127 -0.380999 0.0422999 -0.380999 -0.0422999 -0.380999 -0.0846998 -0.423299 -0.1693 -0.465599 -0.253999 -0.507899 -0.338599 -0.423299 0 1.1429 -0.423299 -1.6085 -0.761998 3.21699 -0.0845998 -0.0422999 -0.0422999 -0.0423999 -0.0423999 0.0423999 0 0 0 -0.0846998 -0.0422999 -0.127 -0.0422999 -0.2116 0 -0.253999 -0.0846998 -0.296299 -0.0846998 -0.338699 -0.1693 -0.338599 -0.338599 -0.677298 -0.423299 -0.677198 -0.380999 -0.592599 -0.2116 -0.338599 -0.1694 -0.338699 -0.1693 -0.423299 -0.1693 -0.380899 -0.0846998 -0.465699 -0.0422999 -0.423299 0 -0.380899 0.127 -0.380999 0.127 -0.2117 0.127 -0.1269 0.296299 -0.296399 0.1693 -0.1693 -0.550299 -0.1693 1.6509 -0.1693 -0.1693 -0.1693 -0.2117 -0.1694 -0.2116 -0.0845998 -0.1693 -0.0422999 -0.423299 0 -0.423299 0.0845998 -0.380999 0.2117 -0.380999 0.253899 -0.338599 0.253999 -0.338699 0.253999 -0.0422999 -0.592599 0.0422999 -0.592599 0.127 -0.550299 0.2117 -0.507999 0.127 -0.296299 0.127 -0.253999 0.0845998 -0.127 0.127 -0.127 0.127 -0.1269 0.1693 -0.127 0.2117 -0.127 0.296299 -0.2117 -0.2117 -0.0845998 -0.2116 -0.0846998 -0.253999 0 -0.2117 0.0422999 -0.465599 0.1694 -0.465599 0.296299 -0.423299 0.338599 -0.380999 0.380999 -0.338599 0.338599 -0.296299 0.338699 0.0422999 -0.423299 0.1693 -0.465699 0.296299 -0.507899 0.296299 -0.507999 0.338699 -0.465599 0.380899 -0.423299 0.380999 -0.380999 0.380999 -0.338599 0.2116 -0.1694 0.1694 -0.1269 0.296299 -0.127 0.296299 -0.1694 0.338599 -0.1693 -0.0845998 -0.0422999 -0.0423999 -0.0422999 -0.0422999 -0.0423999 -0.0846998 -0.0845998 -0.296299 -0.0846998 -0.296299 0 -0.592599 0.0422999 -0.127 0.127 -0.0846998 0.0846998 -0.1693 0.0845998 -0.0845998 0.0423999 -0.1694 0.0845998 0.0846998 -0.296299 0.0422999 -0.1693 0.0846998 -0.0846998 0.0422999 -0.0845998 0.0422999 0 0.0846998 -0.0422999 3.00539 -1.7779 -0.973498 -1.0159 1.1005 0.127 0.380999 -0.634999 0.465599 -0.634899 0.592699 -0.677298 0.677198 -0.634999 0.677298 -0.592599 0.761998 -0.507899 0.719598 -0.465699 0.761898 -0.380899 0.465599 -0.1694 0.550299 -0.2116 0.634999 -0.2117 0.634899 -0.1693 0.677298 -0.127 0.634999 -0.127 0.592599 -0.0422999 0.550299 0.0422999 0.0845998 0 0.0423999 0.0423999 0.0845998 0 0.0846998 0 0.0422999 0 0.127 0 0.296299 0 0.2117 0 0.380799 0.1269 0.2117 0.127 0.253999 0.127 0.296299 0.2117 0.423299 0.2116 0.634899 -0.634899 0.253999 -0.1693 0.296299 -0.0846998 0.296299 -0.0422999 0.296299 0 0.634999 -0.0423999 0.634899 0.0846998 0.634999 0.0846998 0.634899 0.1269 1.2276 0.380999 1.2276 0.550299 1.1429 0.634999 1.1006 0.761898 0.973598 0.804298 0.888898 0.888898 0.380999 0.423299 0.296299 0.380999 0.253999 0.380899 0.2116 0.338699 0.1693 0.380999 0.1694 0.380899 0.2116 0.465699 0.253999 0.592599 -1.1429 -0.465699 0.677298 0.804298 0.592599 0.846598 0.253999 0.465699 0.2116 0.550199 0.2117 0.550299 0.1693 0.677298 0.677298 5.24889 -1.1006 -0.465599 0.0845998 0.338599 0.1694 0.380999 0.1693 0.465599 0.127 0.550299 0.127 0.592699 0 0.677198 -0.127 0.761898 -0.0846998 0.423299 -0.1693 0.423299 -0.127 0.338599 -0.1693 0.296299 -0.1693 0.253999 -0.253999 0.338699 -0.804298 -2.92069 0.0422999 0.507899 0 0.465599 0.0423999 0.380899 0 0.338699 -0.0423999 0.550299 -0.0845998 0.507899 -0.1693 0.507999 -0.253999 0.592599 -0.1693 0.338699 -0.2117 0.380899 -0.2116 0.465699 -0.253999 0.550199 0.0845998 -0.465599 0.0846998 -0.423299 0.1693 -0.761898 0.0422999 -0.380999 0.0423999 -0.423299 -0.0423999 -0.507999 -0.0845998 -0.550199 -1.9049 -2.1588 0.0423999 0.0423999 0 0.0845998 0.0422999 0.0422999 0.0422999 0.0423999 0.380999 0.507899 0.1693 0.380899 0.127 0.338599 0.0422999 0.338699 0.0423999 0.380999 -0.0423999 0.846598 -0.0422999 0.465599 -0.0422999 0.507899 -1.0583 -1.7355 -1.0159 5.16429 -0.465599 -1.1006 -1.2276 4.23299 -0.253999 -0.507999 -0.127 -0.634899 -0.0422999 -0.634999 0.0422999 -0.677198 0.0423999 -0.677298 0.1269 -0.677298 0.127 -0.592599 0.1694 -0.550299 0.0845998 -0.338699 0.127 -0.423299 0.0846998 -0.423299 0.0845998 -0.465599 0.1693 -1.1006 0.1694 -1.1429 0.0845998 -1.1428 0.0846998 -1.1006 0 -0.507899 0 -0.507999 -0.0422999 -0.423299 -0.0423999 -0.380999 -0.0422999 -0.253899 -0.127 -0.2117 -0.338599 -0.423299 -0.423299 -0.338599 -0.507999 -0.2117 -5.41819 -0.127 0.1693 -0.253999 0.1693 -0.2116 0.253999 -0.127 0.338599 -0.127 0.592599 -0.1693 0.634999 -0.0846998 0.338599 -0.0422999 0.338699 0 0.804198 0.0422999 0.719698 0.0846998 0.338599 0.0846998 0.296299 0.0422999 2.41279 3.85199 0.2117 -0.296299 0.2116 -0.380999 0.1693 -0.380899 0.1694 -0.465699 0.296299 -0.888898 0.2116 -0.888898 -0.0845998 -4.27539 1.3122 0.677298 -0.296299 -0.253999 -0.253999 -0.253899 -0.1693 -0.296299 -0.1693 -0.296399 -0.253999 -0.677198 -0.253999 -0.846598 -1.6085 -2.37049 0.719598 -0.1693 -0.296299 -1.2276 0.338599 -0.0422999 0.296299 0.0422999 0.296299 0.0845998 0.296299 0.0846998 0.0846998 0.0846998 0 0 -0.0422999 0 0 0.0422999 0 0.0846998 -0.0423999 0.0422999 -0.0422999 0.0845998 0 0.0423999 -0.0422999 0.0422999 1.4815 0 -0.0845998 -0.253999 -0.127 -0.253999 -0.338699 -0.592599 -0.380899 -0.507899 -0.1694 -0.2117 -0.127 -0.1693 -0.423299 -0.380999 -0.507899 -0.423299 -0.550299 -0.380899 -0.634999 -0.338699 -0.592599 -0.253999 -0.592599 -0.2116 -0.507999 -0.1693 -0.465599 -0.0423999 -2.62439 0.592699 -0.0423999 1.2275 0.1693 -0.0845998 0.127 -0.0846998 0.127 -0.127 0.0423999 -0.0845998 0.0845998 -0.0846998 0.127 -0.0422999 0.1693 -0.0423999 0.1693 -0.0422999 0.2117 0 0.296299 -0.0422999 0.380999 -0.0846998 0.465599 -0.0422999 -0.127 0.465599 0 0zm9.35498 -2.58209l0.1269 -0.0423999 0.2117 -0.0845998 0.253999 -0.0422999 0.296299 0 0.550299 0 0.253999 0.0422999 0.2116 0.0422999 0.338599 0.1693 0.338699 0.253999 0.338599 0.253999 0.2117 0.2116 -0.507999 0.127 1.2276 2.96309 -0.0422999 0.127 -0.0423999 0.1694 -0.2116 0.380899 -0.253999 0.423299 -0.338599 0.380999 -0.296399 0.380999 -0.296299 0.296299 -0.2116 0.2116 -0.0846998 0.0423999 0.2117 -2.45519 -0.0423999 -0.296299 -0.0845998 -0.296299 -0.253999 -0.465599 -0.380999 -0.423299 -0.423299 -0.253999 -0.507899 -0.1693 -0.507999 -0.0423999 -0.507899 0.1694 -0.253999 0.1269 -0.2117 0.1694 -0.253999 0.338599 -0.253899 0.423299 -0.2117 0.507999 -0.2116 0.465599 -1.4393 -1.5239 0.465699 -0.423299 0.380899 -0.338599 0.296399 -0.2117 0.296299 -0.1693 0.296299 -0.0846998 0.338599 -0.0845998 0.380999 -0.0422999 0.507899 -0.0846998 0.296399 -1.1429 0 0zm-30.8161 0.127l0.127 0.0422999 0.0845998 0.0422999 0.0423999 0 0.0422999 0.0423999 0.0422999 0.0422999 0.0846998 0.127 0.1693 0.1693 0.127 0.1693 0.127 0.1693 0.127 0.1694 0.127 0.1693 0.1693 0.1693 0.465599 0.973598 -2.87839 -0.931298 0 1.1853 -1.4816 -0.846598 0.380999 -0.973598 0.888898 0.296299 -0.550299 -1.3546 0.296299 0.127 0.2117 0.127 0.127 0.0422999 0.127 0.0423999 0.1693 0.0422999 0.2116 0 0.338699 -0.0422999 0.423299 0 0 0zm-4.74099 16.805l0.2117 -0.592599 0.2116 -0.465699 0.2117 -0.465599 0.338599 -0.423299 -0.761898 2.1588 0.0422999 0.296399 0 0.1693 -0.0422999 0.0845998 0 0.0423999 0 0 0.0422999 -0.0423999 0.0422999 0 0.0846998 0 0.253999 -0.465599 0.338599 -0.423299 0.423299 -0.338599 0.465599 -0.2117 -0.127 0.465599 -0.1693 0.380999 -0.2116 0.719598 -0.0846998 0.380999 -0.0845998 0.423299 0 0.507999 0 0.592499 0.0422999 0.507899 0.0845998 0.423299 0.2117 0.804298 0.253999 0.719598 0.2116 0.804298 0.0423999 0.0422999 0.0422999 0.0423999 0.0422999 -0.0423999 0 -0.0422999 0.0422999 0.0422999 0.0423999 0.0846998 0.0422999 0.1693 0 -0.550299 -0.0846998 -0.465599 -0.1269 -0.507999 -0.1694 -0.592599 -0.0422999 -0.677298 0 -0.380899 0.0422999 -0.423299 0.127 -0.423199 0.1693 -0.507999 0.253999 -0.507999 0.296299 -0.550299 0.423299 -0.592599 0.507999 -0.677298 -0.2117 0.592699 -0.1693 0.507899 -0.1693 0.465699 -0.127 0.423299 -0.127 0.338599 -0.0845998 0.338599 -0.127 0.550199 -0.0423999 0.507999 0.0846998 0.507899 0.2117 0.592699 0.1269 0.296299 0.2117 0.338599 0.380999 0.0422999 0.2116 -0.1693 0.127 -0.380899 0.2117 -0.465699 0.2116 -0.550299 0.296299 -0.592599 0.296299 -0.592499 0.253999 -0.550299 0.253999 -0.465599 0.127 -0.1693 0.0422999 -0.127 -0.380999 1.6931 -0.1693 0.846598 -0.127 0.804198 -0.0845998 0.761998 0.0845998 0.804198 0.1693 0.804298 0.127 0.423299 0.2117 0.423299 0.0422999 0.127 0.0846998 0.127 0.0845998 0.1693 0.0846998 0.0846998 0.1693 0.1693 0.296299 -2.53979 0.0846998 -0.1693 0.127 -0.253999 0.2116 -0.550299 0.127 -0.296299 0.127 -0.253999 0.0846998 -0.2116 0.0422999 -0.127 -0.0422999 1.0159 -0.0423999 0.931298 0 0.804198 0 0.761998 0.127 0.719598 0.2117 0.761898 0.338599 0.804298 0.2117 0.423299 0.296299 0.423299 0.0845998 0.0846998 0.0423999 0 0.0845998 -0.0846998 0 0 0 0.0846998 0 0.1269 0 0.296399 -0.0845998 -0.0423999 0 -0.0422999 0.0422999 -0.0422999 0 -0.127 0.0422999 -0.338699 -0.0422999 -0.296299 -0.0846998 -0.592599 -0.0422999 -0.253999 0 -0.338599 0.127 -0.338699 0.1693 -0.380899 2.1589 4.10599 -0.2117 -1.3546 0.1693 0.1693 0.0846998 0.127 0.0422999 0.0423999 0.0422999 0.0422999 0 0.0846998 0.0423999 0.0845998 0.0845998 0.1693 0.465699 0.761998 0.592599 0.592599 0.592599 0.507999 0.634999 0.380899 0.550199 0.296299 0.507999 0.2117 0.1693 0.0845998 0.1693 0.0846998 0.127 0.0846998 0.0423999 0.0845998 0.0845998 0.127 0.0423999 0.2117 0.0422999 0.296299 0.0422999 0.296299 0.0846998 0.719598 0.127 0.804298 0.2116 0.761898 0.1693 0.338699 0.1694 0.338599 0.2116 0.296299 0.253999 0.2117 0.338599 0.1693 0.338699 0.0845998 -0.127 -1.0159 0.2116 -0.0422999 0.2117 0.465599 0.2116 0.380999 0.253999 0.380999 0.296299 0.338599 0.634999 0.550299 0.677298 0.465599 0.761898 0.380999 0.804198 0.380999 0.846598 0.338599 0.846598 0.380999 0.465599 0.2116 0.338599 0.2117 0.253999 0.1693 0.1693 0.1693 0.296399 0.253999 0.1693 0.127 0.2116 0.1693 0.296299 -0.465599 0.253999 -0.338699 0.296299 -0.338599 0.719598 -0.550299 0.804298 -0.507999 0.761898 -0.507899 0.550299 -0.465699 0.380999 -0.465599 0.338599 -0.550299 0.253999 -0.550299 0.1693 -0.592599 0.127 -0.592599 0.127 -1.2699 0.0846998 -1.2276 0.0845998 -1.1429 0.127 -0.550299 0.127 -0.507899 0.2117 -0.507999 0.296299 -0.380999 0.2116 -0.2116 0.2117 -0.1693 0.423299 -0.253999 0.465599 -0.2117 0.465699 -0.296299 0.2116 -0.2116 0.1693 -0.1694 0.253999 -0.465599 0.253999 -0.465599 0.253999 -0.465599 0.338599 -0.423399 0.380999 -0.380899 0.677298 -0.719598 0.592599 -0.677298 0.507899 -0.634999 0.465699 -0.592599 0.423299 -0.592599 0.338599 -0.592599 0.296299 -0.592599 0.2117 -0.634999 0.2116 -0.592599 0.127 -0.634899 0.0846998 -0.634899 0.0422999 -0.677298 0 -0.719598 -0.0422999 -0.804298 -0.0846998 -0.804298 -0.1693 -0.888898 -0.1693 -0.931198 -0.127 -0.550299 -0.127 -0.592699 -0.338699 -1.3545 -0.1269 -0.634999 -0.0846998 -0.677198 -0.0422999 -0.592699 0 -0.592599 0.719598 -0.507999 0.677298 -0.507899 0.634899 -0.550299 0.550299 -0.634999 0.465599 -0.677198 0.338699 -0.804298 0.0845998 -0.423299 0.0846998 -0.507999 0.0422999 -0.507899 -0.0422999 -0.550299 -0.0422999 -0.423299 -0.0846998 -0.423299 -0.338599 -0.888898 -0.465699 -0.804298 -0.592599 -0.677298 -0.338599 -0.296299 -0.380999 -0.296299 -0.380999 -0.2117 -0.423299 -0.1693 -0.465599 -0.127 -0.423299 -0.0422999 -0.465599 0 -0.507999 0.0845998 -0.550299 0.1694 -0.465599 0.1693 -0.423299 0.2116 -0.423299 0.253999 -0.677298 0.465599 -0.634899 0.423299 -0.634999 0.338699 -0.338599 0.127 -0.338699 0.0845998 -0.423299 0 -0.423299 -0.0422999 -0.507899 -0.127 -0.592699 -0.2116 -0.296299 -0.0846998 -0.380899 -0.1693 -0.423299 -0.127 -0.465699 -0.127 -1.0582 -0.296299 -1.1006 -0.2117 -1.1006 -0.1269 -0.507899 0 -0.507999 0 -0.465599 0.0845998 -0.423299 0.127 -0.338699 0.1693 -0.296299 0.253999 -0.507999 -0.127 -0.465599 -0.127 -0.423199 -0.0845998 -0.380999 -0.0846998 -0.719598 -0.127 -0.592599 -0.0845998 -0.634899 0 -0.677298 0.0845998 -0.423299 0.0846998 -0.423299 0.0845998 -0.465599 0.1694 -0.550299 0.1693 -0.338699 0.0845998 -0.253999 0.127 -0.2116 0.0846998 -0.1693 0.0422999 -0.253999 0.127 -0.1693 0.0422999 -0.1694 -0.0422999 -0.253899 -0.0846998 -0.1694 -0.0845998 -0.2116 -0.0846998 -0.296299 -0.0845998 -0.296299 -0.127 -0.465699 -0.1693 -0.423299 -0.0846998 -0.380899 0 -0.380999 0 -0.380999 0.127 -0.296299 0.1693 -0.296299 0.2117 -0.2116 0.296299 1.3122 1.3969 -0.423299 -0.1694 -0.380999 -0.0845998 -0.338599 -0.127 -0.296299 -0.0846998 -0.507999 -0.1693 -0.380999 -0.127 -0.253899 -0.0845998 -0.1694 -0.0846998 -0.1269 -0.0846998 -0.0846998 -0.0422999 -0.1693 -0.1693 -0.0846998 -0.0846998 -0.1693 -0.127 -0.253999 -0.1693 -0.338599 -0.2116 -0.465699 -0.253999 -0.592599 -0.338699 -0.634899 -0.296299 -0.719598 -0.296299 -0.804298 -0.253999 -0.804298 -0.1269 -0.465599 0 -0.423299 0.0422999 -0.338699 0.127 -0.253899 0.1693 -0.253999 0.2116 -0.1693 0.253999 -0.423299 0.592599 -0.296299 0.550299 -0.253999 0.507999 -0.2117 0.507999 -0.127 0.507899 -0.127 0.465699 -0.0845998 0.465599 0 0.888898 0.0845998 0.846598 0.2117 0.804298 0.338599 0.719598 0.380999 0.677298 0.423299 0.634899 0.465599 0.592599 0.465699 0.507999 0.423299 0.465599 0.423299 0.423299 0.338599 0.380999 0.253999 0.296299 0.127 0.253999 -0.253999 0.338599 -0.338599 0.338699 -0.719698 0.761898 -0.677198 0.804298 -0.296299 0.338599 -0.253999 0.296299 -0.550299 0.888998 -0.2117 0.423299 -0.1693 0.507899 -0.0422999 0.0846998 0 0.0846998 -0.0422999 0.296299 -0.0846998 0.380899 -0.0422999 0.380999 0 0.338599 0 0.2117 0.0422999 0.0846998 0.0422999 0 0.0423999 0 0.0845998 -0.0846998 0 0z"/>
   <path id="_251859536" class="fil2" d="M23.5353 4.23299l0.338599 0.296299 0.1694 0.423299 0.0845998 0.465599 0 0.634999 -0.127 -0.1693 -0.127 -0.2117 -0.1693 -0.465599 -0.127 -0.507999 -0.0422999 -0.465599 0 0zm-1.6508 -0.592599l0.253899 0.0422999 0.296299 0.1693 0.253999 0.2117 0.1693 0.253899 -0.888798 -0.465599 -0.0422999 -0.0422999 -0.0423999 -0.0422999 0 0 0 0 0 -0.0423999 0 -0.0845998 0 0zm0 0l-0.1693 -0.0846998 -0.0845998 0 -0.0423999 -0.0846998 -0.0422999 -0.0845998 -0.0846998 -0.127 0.2117 0.0845998 0.127 0.0846998 0.0845998 0 0 0.0422999 -0.0422999 0 0 0.0846998 0.0422999 0.0846998 0 0zm-13.8419 7.32308l-0.0422999 0.338599 0.296299 -0.0846998 0.592599 -0.0422999 0.296299 0 0.296299 0.127 0.0846998 0.0422999 0.0422999 0.0423999 0.0846998 0.0845998 -0.338699 0.2117 -0.253899 0.127 -0.296299 0.1693 -0.1694 0.127 -0.253899 0.1693 -0.338699 0.296299 -0.380999 0.380999 -0.380899 0.423299 -0.338699 0.507899 -0.338599 0.465699 -0.253999 0.507899 -0.1693 0.465699 -0.0422999 0.423299 0.296299 -0.296399 0.338599 -0.380899 0.380999 -0.380999 0.423299 -0.338599 0.465599 -0.253999 0.465599 -0.2117 0.2117 0 0.2116 0 0.253999 0.0423999 0.2117 0.0845998 -0.296299 0.2117 -0.2117 0.127 -0.1693 0.127 -0.127 0.1269 -0.127 0.127 -0.127 0.1694 -0.0845998 0.2116 -0.127 0.296299 -0.2117 0.507999 -0.127 0.550299 -0.0422999 0.592599 0.0422999 0.592599 0.296299 -0.2116 0.380999 -0.296399 0.380999 -0.253899 0.380999 -0.1694 0.423299 -0.1269 0.380899 0 0.2117 0.0422999 0.2116 0.127 0.1693 0.127 0.2117 0.2116 -1.6509 0.127 0.507999 0.1693 -0.127 0.2117 -0.338599 0.253999 -0.127 0.1693 -0.0846998 0.1693 -0.127 0.380999 -0.0422999 0.423299 0.0845998 0.423299 0.0846998 0.423299 0.1693 0.423299 0.1693 0.380899 0.1694 0.380999 0.2116 0.296299 0.380999 0.634999 0.423299 0.634799 0.338599 0.677298 0.1693 0.338599 0.0846998 0.338699 0.0422999 0.296299 0.0423999 0.253999 0.0422999 0.2116 0.0422999 0.1693 0 0.0423999 0 0 0.0423999 -0.0423999 0.0422999 0.0423999 0.0845998 0.0422999 0.719698 -3.21699 0.465599 1.6508 0 -1.1429 0.338599 0.380999 0.253999 0.507899 0.1693 0.465599 0.0846998 0.423299 0 0.380999 -0.0422999 0.380999 -0.0846998 0.423299 -0.127 0.380999 -0.127 0.465599 0 0.127 0 0.0845998 0.0422999 0 0.0846998 -0.0422999 0.0846998 -0.0846998 0.296299 -0.2116 0.253999 -0.338599 0.2116 -0.423299 0.2117 -0.465699 0.1693 -0.507899 0.127 -0.550299 0.0845998 -0.507999 0 -0.507899 0.380999 0.296299 0.253999 0.296299 0.2116 0.380899 0.0846998 0.253999 0.0422999 0.253999 0.0846998 0.550299 -0.0423999 0.507999 -0.0845998 0.423299 -0.1693 0.507899 0 0.127 0.0422999 0.0846998 0.0422999 0 0.127 0 1.1006 -2.1165 0 0.550299 0.253999 0.0422999 0 0.296299 0 0.465599 0.0422999 0.507999 0.127 1.0582 0.2117 1.0583 0.0845998 0.507999 0.0846998 0.423299 0.1693 1.2275 0.127 1.3546 0.127 1.4392 0.2116 1.4392 0.127 0.677298 0.1693 0.677298 0.253999 0.677298 0.253999 0.634899 0.338599 0.592599 0.423299 0.550299 0.465699 0.507999 0.550299 0.465599 0.296299 0.2117 0.380899 0.1693 0.804198 0.338599 0.973598 0.253999 1.0159 0.2117 1.0159 0.0845998 1.016 -0.0845998 0.465599 -0.0846998 0.465599 -0.127 0.380999 -0.127 0.380999 -0.2116 0.380899 -0.296299 0.296299 -0.296299 0.550299 -0.761998 0.380999 -0.888898 0.253999 -0.931298 0.0845998 -0.931198 -0.0422999 -0.931298 -0.1693 -0.846598 -0.338599 -0.761898 -2.45519 3.21699 -0.634899 0 -0.677298 0 -1.3969 0 -0.634999 -0.0422999 -0.634899 -0.0846998 -0.592599 -0.2116 -0.465599 -0.253999 -0.465599 -0.338599 -0.423299 -0.380999 -0.296299 -0.380999 -0.296299 -0.423299 -0.253999 -0.465599 -0.1693 -0.465599 -0.296299 -1.0159 -0.1693 -1.143 -0.127 -1.1852 -0.127 -1.2276 -0.0846998 -1.3122 -0.0845998 -0.761898 -0.127 -0.677298 -0.127 -0.634999 -0.127 -0.592599 -0.127 -0.507999 -0.1693 -0.507899 -0.338699 -0.888898 -0.380899 -0.888998 -0.423299 -0.846498 -0.423299 -0.973598 -0.253999 -0.507899 -0.2117 -0.592699 -0.253999 -0.719598 -0.1269 -0.719598 0 -0.677298 0 -0.634899 0 -0.592599 0.0422999 -0.550299 -0.0422999 -0.507999 -0.127 -0.423299 -0.127 -0.253999 -0.1693 -0.2116 -0.338699 -0.296299 -0.380999 -0.253999 -0.338599 -0.2116 -0.338599 -0.296399 -0.127 -0.2116 -0.0846998 -0.2117 -0.0845998 -0.296299 -0.0423999 -0.338599 0 -0.380999 0.0423999 -0.507899 2.32809 0 0.338599 -0.2117 0.338699 -0.1693 0.296299 -0.0422999 0.296299 0 0.253999 0.0845998 0.253999 0.2117 0.1693 0.253899 0.127 0.423299 0.0422999 0.338699 0 0.423299 -0.0845998 0.888898 -0.1694 0.931298 -0.0422999 0.423299 -0.0422999 0.338599 -0.0423999 0.507999 -0.0422999 0.423299 0.0422999 0.380999 0.0423999 0.380899 0.127 0.677298 0.0422999 0.423299 0.0422999 0.423299 0 0.931298 -0.0422999 0.888898 0 0.888898 0.0422999 0.423299 0.0846998 0.465699 0.1693 0.634799 0.1693 0.634999 0.507999 1.3122 0.2116 0.677298 0.2117 0.761898 0.1693 0.804298 0.0846998 0.846598 0.0422999 0.380999 -0.0422999 0.465599 -0.0423999 0.973598 0 0.507899 0 0.465699 0.0423999 0.380899 0.127 0.253999 0.253899 0 0.2117 -0.127 0.1693 -0.1693 0.127 -0.253999 0.1693 -0.592599 0.0422999 -0.253999 0 -0.2116 -0.804198 0.1693 0 -0.761898 0.0422999 -0.719698 0 -0.677198 0.0422999 -0.592699 -0.0422999 -0.634899 0 -0.677298 -0.0846998 -0.677298 -0.1269 -0.804198 -0.0846998 -0.761998 -0.0846998 -0.719598 0 -0.677198 0.0423999 -0.677198 0.127 -0.592699 0.1693 -0.592599 0.296299 -0.550299 0.380999 -0.550299 0.296299 -0.338599 0.380899 -0.380999 0.423299 -0.380999 0.423199 -0.380899 1.016 -0.677298 0.465599 -0.296299 0.507899 -0.253999 0.592699 -0.253999 0.550299 -0.2116 0.507899 -0.253999 0.2117 -0.1693 0.1693 -0.2117 0.1693 -0.296299 0.0846998 -0.338599 0.0422999 -0.338699 0 -0.338599 -0.0846998 -0.338599 -0.1269 -0.296399 -0.127 -0.253899 -0.1694 -0.2117 -0.507899 0.127 -0.380999 0.0846998 -0.380999 0.0845998 -0.338599 0.0423999 -0.296299 0 -0.338699 -0.0846998 -0.423299 -0.1693 -0.465599 -0.253999 -0.296299 -0.2117 -0.253999 -0.338599 -0.1693 -0.338599 -0.0846998 -0.380999 -0.0422999 -0.380999 0.127 -0.338599 0.2117 -0.296299 0.380899 -0.2117 0.0846998 0.127 3.30169 -0.423299 0.465699 0.0846998 0.465599 0 0.423299 -0.0846998 0.380999 -0.127 0.423299 -0.0845998 0.423299 -0.0423999 0.465599 0.0423999 0.253999 0.1269 0.253999 0.127 0.338599 0.2117 0.296299 0.296299 0.253999 0.296299 0.1693 0.380999 0.0846998 0.380899 0 0.465699 -0.127 0.423299 -0.253999 0.465599 -0.2117 0.338699 -0.2116 0.2116 -0.2117 0.127 -0.2116 0.0846998 -0.2117 0.0422999 -0.2116 -0.0422999 -0.380999 -0.127 -0.338599 -0.253999 -0.253999 -0.253999 -0.1693 -0.2116 -0.0422999 -0.0423999 -0.0423999 -0.0422999 -0.296299 0.465599 -0.296299 0.423299 -0.2116 0.423299 -0.1694 0.380999 0 0.380999 0.0423999 0.1693 0.0845998 0.1693 0.127 0.1693 0.2117 0.1693 0.253899 0.1694 0.338699 0.1693 0.465599 0.2116 0.380999 0.1694 0.338599 0.1693 0.253999 0.127 0.1693 0.0845998 0.1693 0.0846998 0.1694 0.127 0.127 0.127 0.1693 0.2116 0.127 0.127 0.127 0.1693 0.2116 0.2117 0.253999 0.253999 0.380999 -3.80969 0 -0.804298 0 -0.677298 -0.0423999 -0.592599 -0.0845998 -0.550299 -0.127 -0.423299 -0.127 -0.380999 -0.1693 -0.338599 -0.1694 -0.253999 -0.253899 -0.2117 -0.253999 -0.1693 -0.592599 -0.253999 -0.677298 -0.2116 -0.804298 -0.1693 -0.677298 -0.0846998 -0.677198 -0.0845998 -0.634999 0 -0.634899 0 -0.592699 0.0845998 -0.592599 0.127 -0.550299 0.2117 -0.550299 0.2116 -0.507899 0.296299 -0.465699 0.338699 -0.423199 0.380899 -0.380899 0.423299 -0.380999 0.507999 -0.296299 0.550299 -0.296299 0.634899 -0.2117 0.677298 -0.2116 0.761998 -0.127 0.634899 -0.0422999 0.550299 0 0.423299 0.0422999 0.380999 0.0845998 0.296299 0.0846998 0.296299 0.127 0.2116 0.253999 0.380999 0.0845998 0.2117 0.0846998 0.253899 0 0.253999 -0.0422999 0.296299 -0.0846998 0.380999 -0.1693 0.465599 -0.0846998 0.127 -0.0422999 0.127 -0.0422999 0.127 -0.0846998 0.0846998 -0.1693 0.1269 -0.423299 -0.973498 -0.423299 -0.973598 -0.338699 -0.888998 -0.296299 -0.888898 -0.1693 -0.846598 -0.0422999 -0.846598 0.0422999 -0.423299 0.0846998 -0.423299 0.0845998 -0.423299 0.2117 -0.423299 0.296299 -0.677298 0.1693 -0.592599 0.0422999 -0.465599 0 -0.338699 -0.1269 -0.296299 -0.2117 -0.2116 -0.253999 -0.127 -0.338599 -0.127 -0.423299 -0.0422999 -0.423299 -0.0423999 -0.931298 -0.0845998 -1.0582 -0.0846998 -0.507999 -0.127 -0.507999 -0.1693 -0.1693 -0.0422999 -0.0845998 -0.0423999 -0.0423999 -0.0845998 -0.0845998 -0.0846998 0.592599 -0.380999 0.507999 -0.380899 0.2116 -0.1693 0.2117 -0.2117 0.1269 -0.2116 0.0846998 -0.253999 3.04779 -0.931298 0.2116 -0.0845998 0.296299 -0.1694 0.296299 -0.127 0.380999 -0.1269 0.380999 -0.0846998 0.380999 0 0.423299 0.127 0.1693 0.127 0.2116 0.127 0.253999 0.296299 0.0846998 0.338599 0.0422999 0.380999 -0.0422999 0.380999 -0.127 0.804198 -0.0423999 0.423299 0 0.380999 0.677198 -0.296299 0.592599 -0.253999 1.143 -0.380999 0.592599 -0.1693 0.677298 -0.0845998 0.719598 -0.0423999 0.804198 0 -0.1269 -0.296299 -0.0846998 -0.253999 -0.0846998 -0.127 0 -0.0845998 0.0423999 -0.127 0.0422999 -0.0422999 0.0422999 -0.0846998 0.634999 0.127 0.550299 0.127 0.423299 0.0845998 0.380899 0.0846998 0.296299 0.0846998 0.253999 0.0422999 0.380999 0 0.338599 -0.0422999 0.423299 -0.127 0.2117 -0.127 0.296299 -0.127 0.338599 -0.1693 0.423299 -0.2117 -3.47099 -0.931198 -0.0846998 -0.0423999 -0.0422999 0 -0.0846998 0 -0.127 -0.0422999 -0.0422999 0 -0.0422999 -0.0422999 -0.0423999 -0.0423999 -0.0845998 -0.0422999 0.1693 -0.465599 -0.465599 0.0845998 -0.380999 0.0423999 -0.296299 0.0422999 -0.253999 0.0422999 -0.1693 0 -0.127 0.0423999 -0.127 0.0422999 -0.0845998 0.0846998 -0.0846998 0.0845998 -0.127 0.127 -0.127 0.0846998 -0.1693 0.0845998 0.0846998 -1.2275 2.62439 -0.550299 0.423299 0.0422999 0.550299 0.127 0.592599 0.2116 0.592599 0.296299 0.592699 0.338699 0.592599 0.380999 0.507899 0.380899 0.423299 0.423299 0.127 0.1693 0.1694 0.1694 0.380899 0.550299 0.338699 0.550199 0.127 0.253999 0.0422999 0.253999 -1.4392 0 -0.0846998 -0.0422999 -0.0422999 0 -0.0423999 0.0422999 0 0 -0.0422999 0 0 -0.0846998 0 -0.1269 0.253999 -0.2117 -0.296299 -0.0846998 -0.253999 -0.0845998 -0.338599 0 -0.296299 0.0422999 0.296299 1.1853 -0.719598 0.1693 1.6085 2.41279 0.253999 0.804298 0.253999 0.719598 0.1269 0.296299 0.2117 0.253999 0.253999 0.296299 0.296299 0.2116 -1.3546 -0.677298 0.0846998 4.27539 -0.1693 0.888898 -0.296299 0.931298 -0.1694 0.423299 -0.2116 0.423299 -0.2117 0.338599 -0.2116 0.338699 -2.37049 -3.85209 -0.296299 -0.0845998 -0.338599 -0.0423999 -0.761998 -0.0845998 -0.761898 -0.0423999 -0.338699 0 -0.338599 0 -0.634999 0.127 -0.592599 0.1693 -0.338599 0.127 -0.253999 0.127 -0.2117 0.1693 -0.1693 0.253999 5.41829 0.127 0.507899 0.2117 0.465699 0.338599 0.338599 0.423299 0.127 0.253999 0.0422999 0.253999 0.0423999 0.338599 0.0422999 0.465599 0 0.465699 -0.0422999 0.507899 -0.0423999 1.1006 -0.127 1.1852 -0.127 1.1429 -0.1693 1.0582 -0.127 0.465599 -0.0845998 0.465699 -0.0846998 0.380899 -0.0845998 0.338699 -0.1694 0.550299 -0.127 0.592599 -0.1269 0.677298 -0.0846998 0.677298 0 0.677198 0.0422999 0.677298 0.127 0.592599 0.2117 0.550299 1.2699 -4.27529 0.465599 1.1006 1.0159 -5.16429 1.0583 1.7355 0.0422999 -0.507899 0.0422999 -0.465599 0 -0.804298 0 -0.380999 -0.0422999 -0.380999 -0.127 -0.338599 -0.1693 -0.338599 -0.380999 -0.550199 -0.0422999 0 -0.0422999 -0.0846998 -0.0423999 -0.0422999 0 -0.0422999 1.9049 2.1164 0.0845998 0.550199 0.0423999 0.507999 -0.0423999 0.423299 -0.0422999 0.380999 -0.2116 0.761898 -0.0846998 0.423299 -0.0422999 0.465599 0.253999 -0.507899 0.2116 -0.465599 0.1693 -0.423299 0.1693 -0.338699 0.253999 -0.592599 0.2117 -0.507999 0.0845998 -0.465599 0.0423999 -0.592599 -0.0423999 -0.338699 0 -0.380899 -0.0422999 -0.423199 -0.0422999 -0.507999 0.846598 2.87839 0.2116 -0.338699 0.1693 -0.253999 0.1694 -0.296299 0.1693 -0.338599 0.1693 -0.423299 0.0846998 -0.423299 0.127 -0.761898 -0.0423999 -0.677198 -0.0845998 -0.592699 -0.1694 -0.507899 -0.1693 -0.465699 -0.127 -0.423299 -0.0845998 -0.338599 1.1006 0.465599 -0.719698 -5.24889 -0.1269 -0.634899 -0.2117 -0.592699 -0.2116 -0.507899 -0.253999 -0.507999 -0.592599 -0.846598 -0.719698 -0.804298 1.143 0.465699 -0.2117 -0.550299 -0.2116 -0.465599 -0.2117 -0.423299 -0.1693 -0.380999 -0.1693 -0.338699 -0.253999 -0.338599 -0.296299 -0.380999 -0.380999 -0.423299 -0.888898 -0.888898 -1.016 -0.846598 -1.0582 -0.761898 -1.1429 -0.634999 -1.2276 -0.550299 -1.2276 -0.380999 -0.634899 -0.1269 -0.634999 -0.0846998 -0.634899 -0.0422999 -0.634999 0 -0.338599 0 -0.296299 0.0422999 -0.253999 0.0846998 -0.253999 0.1693 -0.634899 0.677298 -0.423299 -0.253999 -0.338699 -0.1693 -0.253899 -0.1694 -0.2117 -0.0845998 -0.338499 -0.127 -0.253999 -0.0422999 -0.253999 0 -0.127 0 -0.0845998 0 -0.0423999 0 -0.0845998 0 -0.0423999 -0.0423999 -0.0845998 0 -0.550299 -0.0422999 -0.634999 0.0422999 -0.634899 0.127 -0.634999 0.127 -0.677198 0.2117 -0.592699 0.1693 -0.550299 0.2116 -0.507899 0.1694 -0.719598 0.380899 -0.761998 0.465699 -0.719598 0.507899 -0.719598 0.634999 -0.634899 0.634899 -0.592699 0.634999 -0.465599 0.634899 -0.380999 0.634999 -1.1005 -0.127 0.973498 1.0159 -3.00539 1.7779 0 0z"/>
   <polygon id="_251859272" class="fil2" points="1.8202,20.0221 1.7779,19.6834 1.7779,19.5141 1.7355,19.4295 1.6932,19.4295 1.5239,19.4718 1.4816,19.5565 1.3969,19.5988 1.3969,19.5565 1.3546,19.5141 1.3546,19.2601 1.3546,18.9215 1.3969,18.5405 1.4392,18.2019 1.4816,17.9056 1.5239,17.7786 1.5239,17.7363 1.7355,17.2283 1.9472,16.7627 2.49749,15.9161 2.75149,15.6198 3.00539,15.2388 3.72499,14.4769 4.40229,13.6726 4.74099,13.3339 5.03729,13.0376 4.86799,12.7837 4.61399,12.445 4.27529,12.1064 3.89439,11.6831 3.42869,11.2174 2.96309,10.6671 2.53979,10.1169 2.0742,9.48188 1.6932,8.80458 1.3969,8.04268 1.1852,7.28068 1.0583,6.43409 1.1006,5.54519 1.1852,5.07959 1.2699,4.57159 1.4392,4.10599 1.6509,3.59799 1.9049,3.09009 2.2012,2.53979 2.58209,1.9472 2.79379,1.6932 3.00539,1.4392 3.30169,1.2699 3.64039,1.1852 4.02139,1.1006 4.52929,1.1429 5.33359,1.2699 6.09549,1.4815 6.85748,1.7778 7.49238,2.1165 8.08498,2.41279 8.55068,2.70909 8.88928,2.92069 9.10098,3.04769 9.27028,3.21709 9.39728,3.30169 9.52428,3.42869 9.60888,3.51339 9.73588,3.55569 9.94758,3.64039 10.2015,3.76739 10.5825,3.89429 11.0481,4.02129 11.3868,4.14829 11.7254,4.23299 12.1064,4.35999 12.5297,4.48699 11.2175,3.13239 11.4291,2.83609 11.6831,2.58209 12.0217,2.45509 12.3604,2.32809 12.7413,2.28579 13.1646,2.32809 13.5879,2.41279 14.0112,2.53979 14.3499,2.66679 14.6039,2.79379 14.8155,2.87839 14.9848,2.96309 15.2388,3.04769 15.4081,3.09009 15.5775,3.04769 15.8314,2.92069 16.0008,2.83609 16.2124,2.75139 16.5087,2.66679 16.8474,2.53979 17.3553,2.37049 17.8633,2.2435 18.2866,2.1588 18.6676,2.0741 19.3448,1.9895 19.9798,1.9895 20.6147,2.0318 21.292,2.2011 21.673,2.28579 22.0962,2.37049 22.5618,2.49739 23.112,2.58209 23.4083,2.37049 23.747,2.2011 24.1279,2.0741 24.5936,1.9895 25.1015,1.9472 25.6095,1.9895 26.7101,2.1165 27.853,2.32809 28.8689,2.62439 29.3769,2.75139 29.8002,2.87839 30.1388,3.00539 30.4774,3.13239 31.0277,3.34399 31.5357,3.42869 32.0013,3.51339 32.3823,3.47099 32.7633,3.42869 33.1019,3.30169 33.7369,2.96309 34.3295,2.53979 35.0491,2.0741 35.4301,1.8202 35.8534,1.6085 36.3613,1.4392 36.8693,1.2699 37.3772,1.1852 37.8429,1.1852 38.3085,1.2275 38.7318,1.3545 39.1551,1.5239 39.5361,1.7355 39.917,1.9895 40.2557,2.32809 40.8483,3.00539 41.3139,3.80969 41.6526,4.65629 41.7372,5.07959 41.7796,5.54519 41.8219,6.09549 41.7796,6.60349 41.7372,7.06908 41.6102,7.53468 41.2716,8.29668 40.8483,9.01628 40.298,9.60888 39.6631,10.1592 38.9858,10.7095 38.2662,11.2174 38.2238,11.7677 38.2662,12.4027 38.3508,13.0376 38.4778,13.7149 38.8165,15.0271 38.9858,15.6621 39.1128,16.2124 39.2821,17.1436 39.4091,18.0326 39.4937,18.8368 39.5361,19.5988 39.5361,20.3184 39.4937,20.9957 39.4091,21.673 39.2821,22.3078 39.1128,22.9003 38.8588,23.493 38.5625,24.0856 38.2238,24.6782 37.8429,25.2708 37.3772,25.9058 36.8269,26.5407 36.2767,27.1757 35.557,27.9376 35.2184,28.3186 34.8798,28.6996 34.5835,29.1652 34.3718,29.6308 34.0755,30.0964 33.9062,30.3081 33.7369,30.4774 33.2712,30.7737 32.8056,30.9854 32.34,31.2394 32.1283,31.4087 31.9167,31.6203 31.6627,32.0436 31.451,32.5093 31.2817,33.0172 31.197,33.5675 31.0701,34.7527 30.9854,35.9803 30.8584,37.2079 30.7314,37.8005 30.5621,38.3931 30.3081,38.9434 30.0118,39.4937 29.5885,40.0017 29.0805,40.425 28.2763,40.9329 27.5143,41.4409 26.7947,41.9912 26.4984,42.3298 26.2444,42.6685 25.9058,43.1341 25.6941,42.9648 25.5248,42.8378 25.2708,42.5838 25.1015,42.4145 24.8475,42.2452 24.5089,42.0335 24.0433,41.8219 23.1543,41.4409 22.3502,41.1023 21.546,40.7213 20.7841,40.3403 20.0644,39.8747 19.4295,39.3244 19.1755,38.9858 18.8792,38.6471 18.6676,38.2238 18.4559,37.7582 18.2443,37.8005 18.3712,38.8164 18.0326,38.7318 17.7363,38.5625 17.4823,38.3508 17.2283,38.0545 17.059,37.7582 16.932,37.3772 16.7204,36.6153 16.551,35.811 16.4664,35.0914 16.4241,34.7951 16.3817,34.5411 16.3394,34.3294 16.2971,34.1601 16.2124,34.0755 16.1277,34.0331 15.9584,33.9061 15.7468,33.8215 15.2811,33.6098 14.6885,33.3135 14.0536,32.9326 13.461,32.4669 12.9107,31.832 12.4027,31.07 12.3604,30.943 12.318,30.8161 12.2757,30.7314 12.2757,30.6891 12.1911,30.6467 12.1064,30.5197 11.9371,30.3504 12.1911,31.705 9.98988,27.6413 9.82058,28.0223 9.73588,28.3609 9.69358,28.6572 9.73588,28.9535 9.82058,29.5038 9.86288,29.8001 9.86288,30.1388 9.98988,30.3928 10.0322,30.5621 10.1169,30.8161 10.2015,31.1124 10.4555,31.5357 10.5825,31.705 10.7095,31.8743 11.0905,32.2553 11.5984,32.6362 12.1911,33.1019 12.826,33.5252 13.5033,33.9485 14.1382,34.3294 14.7309,34.7104 15.1965,35.0067 15.3235,35.7687 15.4081,36.4036 15.5351,36.9962 15.7044,37.5042 15.8738,38.0122 16.1701,38.4355 16.5087,38.9011 16.932,39.3667 17.186,39.5784 17.44,39.7477 17.8633,39.9593 18.1173,40.0863 18.4136,40.2557 18.7945,40.4673 19.3025,40.8059 20.0644,41.3139 20.8687,41.7372 21.7153,42.0758 22.604,42.4568 23.493,42.8801 24.2972,43.3457 25.7788,44.4463 26.0751,44.404 26.2868,44.404 26.4984,44.3617 26.6677,44.3193 26.8794,44.1923 26.964,44.023 27.0487,43.8114 27.091,43.5997 27.218,43.3457 27.3873,43.0494 27.5143,42.9224 27.726,42.7531 27.9376,42.5838 28.2339,42.4145 28.7842,42.1182 29.0382,41.9912 29.2499,41.8642 29.8848,41.3986 30.4351,40.8906 30.9007,40.3403 31.2394,39.79 31.5357,39.1551 31.7473,38.5625 31.9167,37.9275 32.0013,37.2926 32.1283,36.065 32.213,34.9221 32.2553,34.3718 32.34,33.8638 32.4246,33.3982 32.5516,32.9749 32.6786,32.7209 32.8479,32.5093 33.0172,32.3399 33.2289,32.1706 33.6945,31.9166 33.9485,31.7896 34.2448,31.6203 34.4141,31.4933 34.5835,31.3663 34.8374,31.1124 35.0068,30.8584 35.1761,30.5197 35.3877,30.1388 35.7264,29.6308 35.938,29.3345 36.2343,29.0382 36.573,28.6572 36.9539,28.2339 37.3349,27.8106 37.6735,27.472 38.0122,27.091 38.3508,26.6254 38.9858,25.7364 39.5361,24.8475 39.917,23.9586 40.2557,23.112 40.4673,22.2232 40.6366,21.3767 40.679,20.4877 40.679,19.6411 40.6366,18.7522 40.552,17.8209 40.2133,15.9584 39.79,14.0112 39.5784,12.953 39.3244,11.8947 39.7054,11.5561 40.0864,11.2598 40.4673,11.0058 40.806,10.7095 41.1869,10.3708 41.5256,9.94748 41.9066,9.43958 42.2875,8.80458 42.6262,7.91568 42.8378,7.02678 42.9225,6.09549 42.8378,5.20659 42.6262,4.31759 42.3299,3.47099 41.9066,2.66679 41.3563,1.9895 40.7636,1.3545 40.0864,0.846598 39.3244,0.465599 38.4778,0.2116 38.0545,0.1693 37.6312,0.127 37.1656,0.1693 36.7,0.2116 36.2343,0.338599 35.7687,0.507899 35.3031,0.719598 34.7951,0.973598 34.3295,1.2699 33.9062,1.5239 33.4829,1.8202 33.0172,2.0741 32.6786,2.28579 32.34,2.41279 32.086,2.45509 31.832,2.49739 31.578,2.45509 31.324,2.41279 30.7314,2.1588 30.3928,2.0318 30.0118,1.8625 29.5885,1.6932 29.0382,1.5239 28.4456,1.3545 27.7683,1.2275 26.964,1.0582 26.0328,0.973598 25.5672,0.931198 25.1439,0.931198 24.8052,0.931198 24.5089,0.931198 23.8739,1.0159 23.5353,1.0582 23.112,1.1429 22.7734,1.1006 22.3078,1.0582 21.7576,0.973598 21.1227,0.888898 20.3608,0.804198 19.5142,0.846598 18.6252,0.973598 17.6093,1.1852 15.3658,2.0318 14.9848,1.8625 14.6885,1.7355 14.0959,1.4392 13.7996,1.3122 13.461,1.2699 13.0377,1.1852 12.572,1.2275 10.1592,2.45509 9.69358,2.2011 9.22798,1.9472 8.76228,1.6508 8.21198,1.3122 7.61938,0.973598 6.94208,0.677298 6.13789,0.380899 5.24889,0.127 4.74099,0.0422999 4.31769,0 3.89439,0 3.51339,0.0422999 2.87839,0.2116 2.37049,0.550299 1.9049,1.0159 1.5239,1.5662 1.1429,2.2011 0.761898,2.87839 0.465599,3.55569 0.2117,4.27529 0.0422999,4.99489 -0,5.75689 -0,6.51879 0.0846998,7.28068 0.253999,8.04268 0.550299,8.80458 0.719598,9.22788 0.931298,9.65118 1.4816,10.5402 2.1165,11.3868 2.41279,11.7677 2.70909,12.064 3.00539,12.3604 3.17479,12.6143 3.38639,12.8683 3.59809,13.207 3.25939,13.4186 2.87839,13.7149 2.49749,14.0959 2.1165,14.5615 1.4392,15.4928 1.1429,16.0007 0.888898,16.4664 0.550299,17.186 0.380999,17.8209 0.296299,18.3289 0.296299,18.8368 0.380999,19.3448 0.550299,19.8528 0.761898,20.4454 1.0159,21.2073 1.1429,21.0803 1.2276,20.9957 1.3122,20.911 1.3546,20.8264 1.4392,20.6994 1.4816,20.5301 1.5239,20.4031 1.5662,20.2761 1.6085,20.1914 1.6932,20.1067 1.8202,20.0221 "/>
   <polygon id="_251859800" class="fil2" points="37.1233,2.58209 36.8269,3.72499 36.319,3.76739 35.938,3.85199 35.5994,3.89429 35.3031,4.02129 35.0068,4.14829 34.7104,4.40229 34.3295,4.69859 33.8638,5.16419 35.3031,6.64579 35.5147,6.18019 35.7264,5.71449 35.9803,5.29119 36.2343,4.91029 36.4883,4.74089 36.7,4.61399 37.2079,4.48699 37.7159,4.48699 38.2238,4.65629 38.6471,4.95259 39.0281,5.33359 39.2821,5.84149 39.3667,6.09549 39.4091,6.39179 39.1974,8.88928 39.2821,8.80458 39.4937,8.59298 39.79,8.29668 40.0864,7.95798 40.425,7.53468 40.7213,7.15378 40.8906,6.77278 40.933,6.60349 40.9753,6.43409 39.7477,3.51339 40.2557,3.38639 40.044,3.17469 39.7054,2.92069 39.3667,2.66679 39.0281,2.49739 38.8165,2.45509 38.5625,2.41279 38.0122,2.41279 37.7159,2.41279 37.4619,2.45509 37.2502,2.49739 37.1233,2.58209 "/>
   <polygon id="_251859584" class="fil3" points="22.3925,18.5829 22.3925,18.6252 22.4348,18.6675 22.5618,18.7945 22.604,18.8792 22.731,19.0485 22.8157,19.1755 22.9427,19.3448 23.0273,19.3871 23.1543,19.4718 23.3237,19.5988 23.5353,19.7681 24.0009,19.0908 25.1439,19.8104 25.9058,19.0062 27.091,19.7681 27.6837,19.1755 28.4456,20.0221 29.2075,19.0062 29.7155,19.6411 29.8002,19.2178 29.7578,18.8368 29.5885,18.4982 29.3769,18.2442 29.0382,18.0326 28.6996,17.8633 28.2763,17.8209 27.8106,17.8209 27.599,17.8209 27.4297,17.8209 27.218,17.7363 27.0064,17.6516 26.8794,17.6093 26.6677,17.6093 26.3714,17.6093 26.0751,17.6939 25.7788,17.7363 25.4402,17.6939 24.8475,17.6516 24.2972,17.6939 23.7046,17.7363 23.0697,17.9056 22.7734,18.0326 22.604,18.1172 22.4772,18.2866 22.3925,18.5829 "/>
   <polygon id="_251859440" class="fil3" points="26.7524,35.4724 26.7947,35.43 26.8371,35.3454 26.9217,35.2607 27.0064,35.2184 27.091,35.5147 27.091,35.8533 27.599,35.811 27.98,35.7687 28.1916,35.6417 28.3609,35.43 28.4456,35.176 28.4879,34.8374 28.5303,34.4564 28.6149,33.9908 27.8106,34.4141 27.1757,33.8638 26.7947,34.3294 26.0328,34.2448 25.2708,34.2448 24.5089,34.2871 23.747,34.3718 23.112,33.7368 22.7734,34.6258 22.3502,34.2871 22.0116,33.8638 21.3343,33.0595 20.7417,33.2289 20.8687,33.6522 20.9957,34.0331 21.165,34.3294 21.3343,34.5834 21.5883,34.8374 21.8423,35.0067 22.1808,35.2184 22.5618,35.3877 22.9427,35.557 23.1967,35.6417 23.366,35.684 23.493,35.6417 23.6623,35.557 23.7893,35.557 23.9586,35.557 24.1703,35.5993 24.3396,35.6417 24.4242,35.7263 24.4666,35.7263 24.5936,35.7687 24.7629,35.7263 25.0169,35.5993 25.1862,35.5147 25.3978,35.3877 25.8211,35.811 26.7524,35.4724 "/>
   <polygon id="_251859296" class="fil2" points="5.41819,24.2972 7.74638,29.1229 8.12738,28.7842 9.73588,30.4351 9.69358,29.9271 9.43958,29.4615 9.18558,29.0382 8.84698,28.2339 8.63528,27.5143 8.55068,26.7524 8.50828,25.9904 8.50828,25.1862 8.55068,24.2549 8.59298,23.239 8.55068,23.366 8.46598,23.5776 8.38138,23.8316 8.25438,24.1279 8.00038,24.7205 7.87338,24.9322 7.83108,25.1438 7.49238,27.6836 7.32308,27.5143 7.23838,27.3873 7.15378,27.218 7.06908,27.1333 7.02678,26.964 6.81508,26.5407 6.68809,26.1597 6.51879,25.3555 6.47649,24.5512 6.51879,23.7469 6.64579,22.9427 6.81508,22.1385 7.23838,20.4454 7.15378,20.5724 7.02678,20.7417 6.81508,21.165 6.51879,21.7153 6.22249,22.3078 5.92619,22.9003 5.71459,23.4506 5.50289,23.9586 5.41819,24.2972 "/>
   <polygon id="_251859464" class="fil2" points="1.9472,20.2337 1.7355,20.9957 1.6085,21.8 1.6085,22.604 1.6509,23.366 1.7779,24.1279 1.9895,24.8475 2.2012,25.3978 2.49749,25.8634 3.80969,27.1757 3.55569,25.5248 3.34409,24.7205 3.09009,24.0009 2.87839,23.239 2.79379,22.7733 2.75149,22.2655 2.75149,21.673 2.75149,21.165 2.83609,20.7417 2.92079,20.3607 3.13239,19.6834 3.30169,19.2601 3.42869,18.8368 2.96309,19.0062 2.53979,19.3448 2.2012,19.7681 1.9472,20.2337 "/>
   <polygon id="_251859608" class="fil3" points="7.57708,4.02129 6.94208,3.51339 6.81508,3.38639 6.68809,3.30169 6.51879,3.21709 6.34949,3.09009 6.30719,2.70909 5.88389,2.70909 5.54519,2.70909 5.33359,2.70909 5.16429,2.70909 5.03729,2.66679 4.86799,2.62439 4.69859,2.49739 4.40229,2.37049 4.95259,3.72499 4.06369,3.38639 3.68269,4.35999 5.16429,5.20659 5.16429,4.06369 8.04268,4.95259 7.57708,4.02129 "/>
   <polygon id="_251859896" class="fil3" points="3.76739,25.3131 4.06369,25.6518 4.31769,25.3978 4.52929,25.1015 4.65629,24.8052 4.78329,24.4665 4.57159,24.1279 4.40229,23.7893 4.23299,23.239 4.14829,22.731 4.14829,22.2232 4.27529,21.6306 4.40229,21.3343 4.52929,20.9534 4.65629,20.5301 4.82559,20.1067 4.99489,19.5565 5.20659,19.0062 4.69859,19.6411 4.27529,20.2337 3.93669,20.8264 3.72499,21.3343 3.55569,21.8 3.42869,22.2655 3.38639,22.6887 3.38639,23.0697 3.42869,23.7046 3.59809,24.2972 3.72499,24.8475 3.76739,25.3131 "/>
   <polygon id="_251859776" class="fil3" points="7.49238,9.39718 8.63528,8.67758 8.38138,8.21198 9.56658,8.21198 9.52428,8.16968 9.43958,8.04268 9.22798,7.91568 9.05858,7.87338 8.88928,7.78868 8.55068,7.78868 8.29668,7.78868 8.04268,7.83098 7.74638,7.87338 5.67219,7.66168 5.71459,8.00038 5.79919,8.25428 5.96849,8.50828 6.13789,8.71998 6.43419,8.93158 6.73049,9.10088 7.06908,9.22788 7.49238,9.39718 "/>
   <polygon id="_251860448" class="fil3" points="11.3445,5.84149 10.9635,5.46059 10.6248,5.46059 10.3285,5.37589 10.0322,5.29119 9.82058,5.16419 9.35488,4.78329 8.93158,4.35999 8.93158,4.40229 8.97398,4.48699 9.05858,4.78329 9.22798,5.20659 9.43958,5.67219 9.60888,6.13779 9.82058,6.51879 9.94758,6.81508 9.98988,6.89978 10.0322,6.98438 10.1592,7.02678 10.3285,6.98438 10.5402,6.89978 10.7518,6.81508 11.3021,6.51879 11.9371,6.22249 11.2598,5.96849 11.2598,5.88389 11.2175,5.79919 11.2598,5.79919 11.2598,5.84149 11.3445,5.84149 "/>
   <polygon id="_251860424" class="fil4" points="5.29129,9.77818 5.24889,9.69358 5.20659,9.65118 5.16429,9.65118 5.16429,9.65118 5.12189,9.60888 4.65629,9.27028 4.40229,9.05858 4.19069,8.84698 3.85199,8.42368 3.55569,7.91568 3.38639,7.61938 3.21709,7.32308 2.92079,7.45008 2.79379,7.61938 2.75149,7.87338 2.75149,8.12728 2.83609,8.38128 2.92079,8.63528 3.04779,8.84698 3.17479,8.97388 3.55569,9.31258 4.02139,9.56658 4.61399,9.69358 5.29129,9.77818 "/>
   <polygon id="_251860088" class="fil3" points="22.3502,18.6252 22.1808,18.6252 22.054,18.6252 21.8846,18.6675 21.8,18.7522 21.6307,18.8792 21.419,19.0908 21.165,19.3871 21.8,20.6994 22.0116,20.4454 22.1808,20.1914 22.3502,19.7681 22.4348,19.2601 22.3925,18.9638 22.3502,18.6252 "/>
   <polygon id="_251860616" class="fil2" points="20.7417,33.1442 21.419,31.5357 21.0804,31.3663 20.8264,31.2817 20.4454,31.2817 20.2338,31.2817 19.9798,31.2817 20.0644,31.7896 20.1914,32.3399 20.4031,32.8056 20.5724,32.9749 20.7417,33.1442 "/>
   <polygon id="_251860664" class="fil5" points="25.9481,11.7677 25.8211,11.5984 25.6941,11.5137 25.4825,11.3868 25.3555,11.3021 25.1862,11.1751 24.9745,10.9635 24.7205,10.6671 24.6359,10.5825 24.5936,10.5402 24.5936,10.4978 24.5936,10.4555 24.5089,10.4132 24.4242,10.3285 24.2549,10.2438 24.1279,10.3285 24.0433,10.4978 24.0009,10.6248 24.0009,10.7941 24.1279,11.1328 24.3819,11.4291 24.7205,11.6831 25.1015,11.8524 25.5248,11.8524 25.7365,11.8524 "/>
   <polygon id="_251860400" class="fil3" points="36.8269,9.56658 36.8693,9.14328 36.9116,8.76228 36.8693,8.42368 36.7423,8.04268 36.6576,7.70398 36.4883,7.40768 36.4036,7.23838 36.3613,7.11138 36.2767,7.02678 36.1073,6.89978 35.9803,7.06908 35.8957,7.19608 35.8534,7.36538 35.8534,7.53468 35.938,7.83098 36.1497,8.25428 36.4883,8.93158 36.6576,9.22788 "/>
   <polygon id="_251860256" class="fil6" points="16.551,30.943 16.2124,27.726 16.0854,28.0223 16.0008,28.3609 15.9161,29.1229 15.9161,29.5038 15.9584,29.8848 16.0431,30.2234 16.2124,30.5621 16.2971,30.7314 16.3817,30.7737 16.4241,30.8584 16.551,30.943 "/>
   <polygon id="_251860016" class="fil7" points="26.3714,33.3982 24.5089,33.3135 24.5512,33.3982 24.5512,33.4828 24.5512,33.5252 24.6359,33.5675 24.6782,33.6098 24.8052,33.6522 25.0592,33.7792 25.2708,33.8215 25.6941,33.8215 26.0328,33.6522 26.3714,33.3982 "/>
   <polygon id="_251860568" class="fil7" points="4.06369,6.89978 3.89439,6.39179 3.68269,5.92619 3.51339,5.62989 3.38639,5.46059 3.17479,5.33359 3.00539,5.33359 2.83609,5.33359 2.87839,5.54519 2.96309,5.79919 3.09009,5.96849 3.25939,6.18019 3.68269,6.51879 "/>
   <polygon id="_251860208" class="fil8" points="24.1279,6.05319 24.1279,5.46059 24.0856,4.95259 23.8739,4.52929 23.5353,4.27529 23.5776,4.69859 23.7046,5.20659 23.8739,5.67219 24.0009,5.88389 "/>
   <polygon id="_251860760" class="fil9" points="1.5662,19.4718 1.6932,19.4295 1.7779,19.4295 1.7779,19.4718 1.7779,19.6834 2.53979,17.5669 2.2012,17.9479 1.9895,18.4135 1.7779,18.8792 1.5662,19.4718 "/>
   <polygon id="_251861336" class="fil10" points="11.3445,5.88389 12.5297,5.67219 12.445,5.62989 12.4027,5.58749 12.4027,5.54519 12.318,5.54519 12.2334,5.54519 12.0641,5.54519 11.8524,5.50289 11.5984,5.46059 11.3868,5.46059 11.1751,5.46059 10.9635,5.46059 11.3445,5.88389 "/>
   <polygon id="_251860928" class="fil11" points="18.2866,7.45008 18.3712,7.53468 18.4559,7.61938 18.4982,7.70398 18.4982,7.78868 18.4982,7.83098 18.4982,7.95798 18.4982,8.16968 18.3712,8.16968 18.2866,8.16968 18.1596,8.12728 18.0749,8.08498 17.9903,8.04268 17.821,7.95798 17.6516,7.78868 17.9903,8.50828 18.8792,7.91568 18.7522,7.70398 18.6676,7.57708 18.5406,7.49238 18.4559,7.49238 18.2866,7.45008 "/>
   <polygon id="_251860976" class="fil9" points="7.61938,4.02129 7.45008,3.80969 7.32308,3.64039 7.19608,3.47099 7.02678,3.30169 6.89978,3.13239 6.77278,2.96309 6.64579,2.83609 6.60349,2.79379 6.56119,2.75139 6.51879,2.75139 6.43419,2.75139 6.34949,2.70909 6.34949,3.09009 6.56119,3.17469 6.68809,3.25939 6.81508,3.38639 6.98448,3.51339 7.61938,4.02129 "/>
   <polygon id="_251861024" class="fil12" points="27.7683,5.16419 27.8106,5.16419 27.853,5.20659 27.8953,5.24889 27.9376,5.24889 28.107,5.29119 28.1493,5.33359 28.1916,5.33359 28.2763,5.33359 28.8689,4.78329 28.6149,4.78329 28.4456,4.78329 28.3609,4.78329 28.2763,4.82559 28.2339,4.86789 28.107,4.95259 27.98,5.03729 27.7683,5.16419 "/>
   <polygon id="_251861480" class="fil13" points="18.3289,7.45008 18.1596,7.32308 17.8633,7.28068 17.6093,7.28068 17.3977,7.32308 17.2283,7.40768 16.932,7.66168 16.678,8.04268 16.9744,7.74638 17.313,7.57708 17.7363,7.49238 17.9903,7.45008 18.3289,7.45008 "/>
   <polygon id="_251861240" class="fil14" points="21.8846,3.64039 21.8846,3.72499 21.8846,3.76739 21.8846,3.76739 21.8846,3.76739 21.927,3.80969 21.9693,3.85199 22.9004,4.35999 22.6887,4.06369 22.4348,3.85199 22.1385,3.68269 21.8846,3.64039 "/>
   <polygon id="_251861216" class="fil15" points="8.33898,11.2174 8.00038,11.2598 8.08498,10.9635 7.95798,11.0058 7.91568,11.0058 7.87338,11.0904 7.78868,11.1751 7.74638,11.3444 7.66168,11.6407 7.83108,11.5561 7.95798,11.5137 8.08498,11.4291 8.16968,11.3444 8.33898,11.2174 "/>
   <polygon id="_251861312" class="fil16" points="17.059,25.1015 17.0167,24.8052 16.7627,24.8052 16.7204,24.8898 16.678,24.9745 16.6357,25.0592 16.6357,25.1862 16.678,25.2708 16.678,25.4401 16.805,25.2708 16.8474,25.1862 16.8897,25.1438 16.8897,25.1015 16.8897,25.1438 16.932,25.1438 17.059,25.1015 "/>
   <polygon id="_251861048" class="fil17" points="13.3763,26.1597 13.2493,26.2444 13.1646,26.2444 13.1223,26.2867 13.1223,26.2021 13.1223,26.1174 12.9953,26.1597 12.953,26.2021 12.8683,26.2444 12.8683,26.3291 12.8683,26.4137 12.8683,26.583 12.9953,26.5407 13.08,26.4984 13.1646,26.4984 13.2493,26.4137 13.2916,26.2867 "/>
   <polygon id="_251861072" class="fil18" points="29.6308,12.1487 30.3928,10.4555 30.2658,10.5825 30.1388,10.7518 29.9271,11.2174 29.7578,11.6831 29.6308,12.1487 "/>
   <polygon id="_251862032" class="fil19" points="32.213,7.83098 32.213,7.78868 32.2553,7.70398 32.2976,7.61938 32.2976,7.61938 32.34,7.53468 32.34,7.49238 32.3823,7.45008 32.34,7.45008 32.2553,7.40768 32.0436,7.57708 32.0436,7.70398 32.0436,7.78868 32.0436,7.78868 32.0436,7.78868 32.086,7.74638 32.1283,7.74638 32.213,7.83098 "/>
   <polygon id="_251862008" class="fil20" points="15.6621,26.3291 15.4928,26.3291 15.4505,26.3291 15.4505,26.2444 15.4505,26.1174 15.4081,26.2021 15.3658,26.2444 15.3235,26.3714 15.2811,26.4984 15.2811,26.583 15.2811,26.7524 15.6621,26.3291 "/>
   <polygon id="_251862104" class="fil16" points="25.8211,4.91029 25.9058,4.69859 25.9058,4.57159 25.9481,4.48699 25.9058,4.48699 25.8211,4.48699 25.7788,4.48699 25.7365,4.48699 25.6941,4.57159 25.6941,4.65629 25.6941,4.74089 25.6941,4.78329 25.6941,4.78329 25.6941,4.78329 25.7365,4.82559 "/>
   <polygon id="_251861648" class="fil10" points="21.8423,3.64039 21.8423,3.51339 21.8423,3.47099 21.8846,3.42869 21.8423,3.42869 21.8,3.38639 21.673,3.34399 21.5037,3.25939 21.546,3.38639 21.5883,3.47099 21.6307,3.55569 21.7153,3.55569 "/>
   <polygon id="_251862056" class="fil21" points="26.7524,35.4724 27.091,35.5147 26.964,35.2184 26.8794,35.2607 26.8371,35.3454 26.7524,35.43 26.7524,35.4724 "/>
   <polygon id="_251862128" class="fil22" points="15.3658,27.1757 16.0854,26.5407 15.9584,26.583 15.9161,26.6254 15.8738,26.6254 15.8314,26.6677 15.7468,26.71 15.6621,26.7947 15.5351,26.9217 15.4928,26.9217 15.4928,26.9217 15.4928,26.8794 15.5351,26.8794 15.5351,26.8794 15.4928,26.964 15.3658,27.1757 "/>
   <path id="_251861792" class="fil23" d="M68.2638 22.0933c0,2.31969 -0.660299,4.24999 -1.9867,5.80769 -1.4109,1.6537 -3.25079,2.47769 -5.51969,2.47769 -1.6537,0 -2.99129,-0.474099 -4.00159,-1.4222 -0.0789998,-0.0677998 -0.1468,-0.0959998 -0.1976,-0.0959998 -0.1128,0 -0.2144,0.2032 -0.310399,0.609599 -0.0902998,0.406299 -0.2032,0.632099 -0.338599,0.677198 -0.1863,0.0564999 -1.7553,0.0846998 -4.71279,0.0846998 -0.694198,0 -1.0385,-0.1298 -1.0385,-0.383799 0,-0.0281999 0.0113,-0.1129 0.0338999,-0.248299 0.2201,-1.7497 0.327399,-5.09089 0.327399,-10.018 0,-4.70709 -0.1637,-8.80468 -0.496699,-12.287l-0.0169 -0.1806c0,-0.175 0.1749,-0.276599 0.513599,-0.299199 0.242699,-0.0112 1.2021,-0.0902998 2.87839,-0.248299 1.1796,-0.1072 2.1391,-0.1637 2.87839,-0.1637 0.2089,0 0.310499,0.1806 0.310499,0.547499 0,0.428899 -0.0225999,0.998998 -0.0790998,1.7045 -0.0676999,0.869198 -0.1072,1.4392 -0.1185,1.7158 -0.0507999,1.0949 -0.0789998,2.57929 -0.0789998,4.46439 0,0.344199 0.0846998,0.513599 0.265299,0.513599 0.0845998,0 0.1693,-0.0451999 0.242699,-0.1298 0.993298,-1.0611 2.29709,-1.5917 3.90559,-1.5917 2.41559,0 4.30069,0.824098 5.65519,2.46649 1.253,1.5182 1.8851,3.52179 1.8851,5.99939zm-5.98819 -0.1805c0,-0.914298 -0.282199,-1.6875 -0.840898,-2.31959 -0.564399,-0.637799 -1.2982,-0.953898 -2.2012,-0.953898 -0.925598,0 -1.6537,0.316099 -2.1899,0.953898 -0.536199,0.632099 -0.801398,1.4166 -0.801398,2.35349 0,0.970698 0.259599,1.7552 0.778898,2.34779 0.547399,0.626499 1.2981,0.942598 2.2463,0.942598 0.936898,0 1.6819,-0.327399 2.235,-0.976498 0.513599,-0.603899 0.773198,-1.3884 0.773198,-2.34779z"/>
   <path id="_2518617921" class="fil23" d="M85.4274 21.2017c0,1.1118 -0.361299,1.7495 -1.0781,1.9019 -0.1185,0.0225999 -1.2586,0.1411 -3.42019,0.366899 -1.3038,0.1411 -3.23969,0.310399 -5.81899,0.507899 0.1524,0.716798 0.620899,1.2643 1.4054,1.6368 0.637699,0.310399 1.3658,0.462799 2.1786,0.462799 0.981998,0 1.9697,-0.259599 2.96309,-0.790098 0.417599,-0.265299 0.835298,-0.530599 1.2529,-0.795898 0.231399,0.1129 0.620899,0.671699 1.1683,1.6876 0.547499,1.0159 0.818398,1.6593 0.818398,1.9359 0,0.0733998 -0.0845998,0.2032 -0.248299,0.378099 -1.3433,1.4449 -3.43159,2.1673 -6.26489,2.1673 -2.62439,0 -4.74089,-0.767498 -6.34949,-2.29709 -1.6537,-1.5577 -2.48329,-3.63469 -2.48329,-6.23659 0,-2.53399 0.739298,-4.61099 2.2181,-6.23089 1.5182,-1.6762 3.53879,-2.51719 6.05029,-2.51719 2.1165,0 3.91129,0.773198 5.39009,2.31969 1.4787,1.5408 2.2181,3.37509 2.2181,5.50289zm-5.79079 -1.0103c0,-0.682898 -0.242699,-1.2812 -0.728098,-1.8004 -0.485399,-0.519299 -1.061,-0.778898 -1.7327,-0.778898 -0.694198,0 -1.2699,0.293499 -1.7214,0.880498 -0.417699,0.536199 -0.626499,1.1739 -0.626499,1.902 0,0.293499 0.1524,0.445899 0.462799,0.445899 0.812798,0 2.0827,-0.1298 3.80409,-0.383799 0.361199,-0.0507999 0.541799,-0.1411 0.541799,-0.265299z"/>
   <path id="_25186179212" class="fil23" d="M103.86 21.9128c0,0.852198 0.0507999,2.1108 0.1524,3.78709 0.0958998,1.6762 0.1467,2.93479 0.1467,3.77019 0,0.440199 -0.1919,0.677198 -0.575699,0.711098 -1.3714,0.1016 -2.93469,0.1467 -4.69569,0.1467 -0.2144,0 -0.349899,-0.315999 -0.423299,-0.948098 -0.0732998,-0.632199 -0.158,-0.959498 -0.259599,-0.965198 -0.0846998,0.0394999 -0.2032,0.1355 -0.344299,0.276599 -1.236,1.2473 -2.55669,1.8681 -3.96769,1.8681 -2.1504,0 -3.93389,-0.846598 -5.34489,-2.54539 -1.332,-1.586 -1.998,-3.48229 -1.998,-5.68909 0,-2.54539 0.688598,-4.59419 2.0657,-6.14629 1.4336,-1.6141 3.39769,-2.41559 5.88669,-2.41559 1.7327,0 3.09859,0.603899 4.10319,1.8174 0.0451999,0.0563999 0.0789998,0.0845998 0.1129,0.0845998 0.1016,0 0.2145,-0.270899 0.338599,-0.801398 0.1299,-0.536199 0.282199,-0.801498 0.457199,-0.801498 0.406399,0 1.1853,0.1129 2.33099,0.344299 1.0893,0.2201 1.8737,0.406399 2.34779,0.564399 0.1637,0.0620999 0.248299,0.1524 0.248299,0.265299 0,0.0394999 -0.0169,0.158 -0.0507999,0.344299 -0.349899,1.9979 -0.530499,4.10879 -0.530499,6.33249zm-5.32219 0.1016c0,-0.936898 -0.293499,-1.7101 -0.886098,-2.32529 -0.586999,-0.609499 -1.3546,-0.914298 -2.30279,-0.914298 -0.948198,0 -1.7157,0.299099 -2.30269,0.908698 -0.581299,0.603899 -0.874798,1.3827 -0.874798,2.33089 0,0.891698 0.310399,1.6593 0.925598,2.29699 0.620799,0.637799 1.3658,0.959498 2.2519,0.959498 0.936898,0 1.6989,-0.304799 2.29709,-0.919998 0.592699,-0.609499 0.891798,-1.3884 0.891798,-2.33649z"/>
   <path id="_251861792123" class="fil23" d="M118.112 19.881c0,0.428899 -0.236999,0.643399 -0.711098,0.643399 -0.2089,0 -0.513599,-0.0113 -0.914398,-0.0394999 -0.400699,-0.0281999 -0.705498,-0.0450999 -0.902998,-0.0450999 -0.914298,0 -1.5352,0.1467 -1.8682,0.434499 -0.327299,0.282199 -0.496599,0.863598 -0.496599,1.7327 0,0.473999 0.0112,1.1965 0.0281999,2.1616 0.0169,0.959498 0.0225999,1.6819 0.0225999,2.156 0,0.316099 0.0225,0.795798 0.0676999,1.4279 0.0450999,0.637799 0.0620999,1.1063 0.0620999,1.4167 0,0.265299 -0.1806,0.411999 -0.541899,0.445899 -0.530499,0.0450999 -1.3432,0.0676999 -2.43249,0.0676999 -1.0442,0 -1.8851,-0.0338999 -2.51159,-0.1016 -0.366899,-0.0451999 -0.547499,-0.225799 -0.547499,-0.547499 0,-0.880398 0.00569999,-2.2011 0.017,-3.95639 0.0112,-1.7609 0.0169,-3.08159 0.0169,-3.96199 0,-2.59059 -0.237099,-4.72399 -0.711198,-6.40029 -0.0225,-0.0958998 -0.0337999,-0.1806 -0.0337999,-0.248299 0,-0.1637 0.0845998,-0.276599 0.248299,-0.327399 0.609599,-0.0676999 1.4957,-0.1919 2.66399,-0.366799 1.7383,-0.338699 2.64139,-0.513599 2.69219,-0.513599 0.1975,0 0.327299,0.349899 0.383799,1.0441 0.0507999,0.694198 0.1524,1.0441 0.293499,1.0441 -0.1524,0 0.299099,-0.293499 1.3602,-0.869098 1.0554,-0.581399 2.077,-0.869198 3.05899,-0.869198 0.615199,0 0.925598,0.1298 0.925598,0.395099 0,0.321699 -0.0337999,0.773198 -0.1016,1.3545 -0.0676999,0.632099 -0.1016,1.0837 -0.1128,1.3602 0,0.316099 0.00559999,0.744998 0.0169,1.2699 0.0169,0.654699 0.0281999,1.0837 0.0281999,1.2925z"/>
   <path id="_251861720" class="fil23" d="M50.3546 40.552l0 -4.54519 1.5651 0c0.353499,0 0.623299,0.0222 0.809598,0.0655999 0.260299,0.0592999 0.482499,0.1683 0.666699,0.324899 0.239099,0.2032 0.418999,0.461399 0.537599,0.776798 0.1196,0.315299 0.1788,0.675099 0.1788,1.0804 0,0.344999 -0.0401999,0.650899 -0.1217,0.917498 -0.0803998,0.266699 -0.1831,0.487899 -0.310099,0.662499 -0.1259,0.1746 -0.263499,0.312199 -0.413699,0.411699 -0.1492,0.1005 -0.330199,0.1767 -0.541899,0.228499 -0.2127,0.0518999 -0.456099,0.0772998 -0.730098,0.0772998l-1.6403 0zm0.601099 -0.536499l0.970398 0c0.299499,0 0.535399,-0.0274999 0.705798,-0.0835998 0.1704,-0.0560999 0.305899,-0.1344 0.407399,-0.235999 0.1429,-0.1418 0.253999,-0.334399 0.333399,-0.574699 0.0793998,-0.241199 0.1196,-0.532299 0.1196,-0.876198 0,-0.475099 -0.0782998,-0.840198 -0.233899,-1.0953 -0.1566,-0.256099 -0.345999,-0.426399 -0.569299,-0.513199 -0.1609,-0.0624999 -0.421199,-0.0931998 -0.777798,-0.0931998l-0.955598 0 0 3.47219z"/>
   <path id="_2518617201" class="fil23" d="M60.6503 39.4916l0.576699 0.0708998c-0.0909998,0.337599 -0.259199,0.598999 -0.504799,0.785298 -0.246499,0.1852 -0.560799,0.278299 -0.942898,0.278299 -0.481499,0 -0.863498,-0.1482 -1.145,-0.444499 -0.282499,-0.296299 -0.423299,-0.712198 -0.423299,-1.2477 0,-0.554499 0.1429,-0.984098 0.427499,-1.29 0.285799,-0.305799 0.655099,-0.459299 1.1102,-0.459299 0.440199,0 0.799998,0.1503 1.0783,0.449799 0.279399,0.299499 0.419099,0.721698 0.419099,1.2646 0,0.0338999 -0.0011,0.0835998 -0.00319999,0.1492l-2.45509 0c0.0201,0.361899 0.1227,0.639199 0.306899,0.830798 0.1841,0.1926 0.412699,0.288899 0.687798,0.288899 0.2043,0 0.378899,-0.0539999 0.523799,-0.162 0.145,-0.1068 0.259299,-0.278299 0.343999,-0.514299zm-1.8318 -0.902698l1.8381 0c-0.0242999,-0.276199 -0.0951998,-0.484599 -0.2106,-0.622199 -0.1777,-0.2148 -0.408399,-0.322799 -0.690998,-0.322799 -0.256099,0 -0.471999,0.0856998 -0.646599,0.257199 -0.1746,0.1714 -0.270899,0.401099 -0.289899,0.687798z"/>
   <path id="_25186172012" class="fil23" d="M66.3712 40.552l-1.253 -3.29219 0.589499 0 0.706898 1.9715c0.0761998,0.2127 0.146,0.433899 0.2106,0.663499 0.0496999,-0.1735 0.1185,-0.381999 0.2074,-0.626499l0.732298 -2.0085 0.573599 0 -1.2466 3.29219 -0.520699 0z"/>
   <path id="_251861720123" class="fil23" d="M74.4127 39.4916l0.576699 0.0708998c-0.0909998,0.337599 -0.259199,0.598999 -0.504799,0.785298 -0.246499,0.1852 -0.560799,0.278299 -0.942898,0.278299 -0.481499,0 -0.863498,-0.1482 -1.145,-0.444499 -0.282499,-0.296299 -0.423299,-0.712198 -0.423299,-1.2477 0,-0.554499 0.1429,-0.984098 0.427499,-1.29 0.285799,-0.305799 0.655099,-0.459299 1.1102,-0.459299 0.440199,0 0.799998,0.1503 1.0783,0.449799 0.279399,0.299499 0.419099,0.721698 0.419099,1.2646 0,0.0338999 -0.0011,0.0835998 -0.00319999,0.1492l-2.45509 0c0.0201,0.361899 0.1227,0.639199 0.306899,0.830798 0.1841,0.1926 0.412699,0.288899 0.687798,0.288899 0.2043,0 0.378899,-0.0539999 0.523799,-0.162 0.145,-0.1068 0.259299,-0.278299 0.343999,-0.514299zm-1.8318 -0.902698l1.8381 0c-0.0242999,-0.276199 -0.0951998,-0.484599 -0.2106,-0.622199 -0.1777,-0.2148 -0.408399,-0.322799 -0.690998,-0.322799 -0.256099,0 -0.471999,0.0856998 -0.646599,0.257199 -0.1746,0.1714 -0.270899,0.401099 -0.289899,0.687798z"/>
   <polygon id="_2518617201234" class="fil23" points="79.2065,40.552 79.2065,36.0068 79.7642,36.0068 79.7642,40.552 "/>
   <path id="_25186172012345" class="fil23" d="M83.9495 38.9054c0,-0.609599 0.1693,-1.0615 0.508999,-1.3546 0.282599,-0.243399 0.627599,-0.366199 1.035,-0.366199 0.452899,0 0.823298,0.1482 1.1101,0.445599 0.287799,0.296299 0.430699,0.705798 0.430699,1.2286 0,0.424399 -0.0634999,0.757698 -0.1905,0.999998 -0.127,0.243399 -0.312199,0.431799 -0.554499,0.566199 -0.243399,0.1344 -0.507999,0.2011 -0.795798,0.2011 -0.460399,0 -0.832898,-0.1471 -1.1175,-0.443399 -0.284699,-0.295299 -0.426499,-0.720698 -0.426499,-1.2773zm0.573599 0c0,0.422199 0.0919998,0.737598 0.276199,0.947098 0.1841,0.2106 0.415899,0.315399 0.694198,0.315399 0.277199,0 0.507899,-0.1059 0.692098,-0.316499 0.1831,-0.2106 0.275099,-0.532299 0.275099,-0.963998 0,-0.407499 -0.0919998,-0.716498 -0.277199,-0.925998 -0.1852,-0.2095 -0.414899,-0.314299 -0.689998,-0.314299 -0.278299,0 -0.510099,0.1048 -0.694198,0.313199 -0.1842,0.2085 -0.276199,0.523899 -0.276199,0.945098z"/>
   <path id="_251861720123456" class="fil23" d="M91.2176 41.8134l0 -4.55359 0.507899 0 0 0.427499c0.1196,-0.1672 0.255099,-0.293099 0.406399,-0.376699 0.1503,-0.0835998 0.333299,-0.126 0.548199,-0.126 0.281499,0 0.529099,0.0730998 0.743898,0.217 0.2159,0.145 0.377799,0.349199 0.486799,0.612699 0.1101,0.263499 0.1651,0.552399 0.1651,0.866698 0,0.336499 -0.0602999,0.640299 -0.182,0.910098 -0.1207,0.269899 -0.296299,0.476199 -0.526999,0.620199 -0.230699,0.1428 -0.473099,0.2148 -0.726998,0.2148 -0.1863,0 -0.352399,-0.0391999 -0.500599,-0.1175 -0.1482,-0.0782998 -0.268799,-0.1778 -0.363999,-0.297399l0 1.6022 -0.557699 0zm0.504799 -2.88899c0,0.423299 0.0856998,0.736598 0.257099,0.939698 0.1714,0.2022 0.379899,0.303799 0.623299,0.303799 0.247599,0 0.460399,-0.1048 0.637099,-0.315399 0.1767,-0.2095 0.265599,-0.534399 0.265599,-0.974698 0,-0.420099 -0.0867998,-0.733298 -0.259299,-0.942898 -0.1725,-0.2084 -0.378799,-0.313199 -0.617999,-0.313199 -0.238099,0 -0.448699,0.1111 -0.631799,0.333399 -0.183,0.2222 -0.273999,0.545999 -0.273999,0.969298z"/>
   <path id="_2518617201234567" class="fil23" d="M100.041 40.552l0 -3.29219 0.498399 0 0 0.461399c0.1037,-0.1609 0.241299,-0.290999 0.412699,-0.388399 0.1715,-0.0983998 0.367199,-0.1482 0.586299,-0.1482 0.243399,0 0.443399,0.0507999 0.598999,0.1524 0.1566,0.1016 0.266599,0.242399 0.330099,0.424399 0.261399,-0.384099 0.600099,-0.576799 1.017,-0.576799 0.326999,0 0.577799,0.0910998 0.753498,0.271999 0.1757,0.181 0.263499,0.459299 0.263499,0.834998l0 2.26039 -0.554499 0 0 -2.0742c0,-0.2233 -0.018,-0.384099 -0.0539999,-0.482499 -0.0369999,-0.0973998 -0.1027,-0.1768 -0.1968,-0.237099 -0.0952998,-0.0591999 -0.2075,-0.0898998 -0.335499,-0.0898998 -0.231799,0 -0.423299,0.0771998 -0.576699,0.231699 -0.1524,0.1535 -0.229699,0.399999 -0.229699,0.738698l0 1.9133 -0.557699 0 0 -2.1387c0,-0.248699 -0.0454999,-0.434999 -0.1365,-0.558799 -0.0909998,-0.1238 -0.239199,-0.1862 -0.446599,-0.1862 -0.1566,0 -0.301599,0.0411999 -0.434899,0.1248 -0.1334,0.0825998 -0.230699,0.2032 -0.289999,0.361999 -0.0602999,0.1598 -0.0898998,0.389399 -0.0898998,0.688898l0 1.708 -0.557699 0z"/>
   <path id="_25186172012345678" class="fil23" d="M111.112 39.4916l0.576699 0.0708998c-0.0909998,0.337599 -0.259199,0.598999 -0.504799,0.785298 -0.246499,0.1852 -0.560799,0.278299 -0.942898,0.278299 -0.481499,0 -0.863498,-0.1482 -1.145,-0.444499 -0.282499,-0.296299 -0.423299,-0.712198 -0.423299,-1.2477 0,-0.554499 0.1429,-0.984098 0.427499,-1.29 0.285799,-0.305799 0.655099,-0.459299 1.1102,-0.459299 0.440199,0 0.799998,0.1503 1.0783,0.449799 0.279399,0.299499 0.419099,0.721698 0.419099,1.2646 0,0.0338999 -0.0011,0.0835998 -0.00319999,0.1492l-2.45509 0c0.0201,0.361899 0.1227,0.639199 0.306899,0.830798 0.1841,0.1926 0.412699,0.288899 0.687798,0.288899 0.2043,0 0.378899,-0.0539999 0.523799,-0.162 0.145,-0.1068 0.259299,-0.278299 0.343999,-0.514299zm-1.8318 -0.902698l1.8381 0c-0.0242999,-0.276199 -0.0951998,-0.484599 -0.2106,-0.622199 -0.1777,-0.2148 -0.408399,-0.322799 -0.690998,-0.322799 -0.256099,0 -0.471999,0.0856998 -0.646599,0.257199 -0.1746,0.1714 -0.270899,0.401099 -0.289899,0.687798z"/>
   <path id="_251861720123456789" class="fil23" d="M115.918 40.552l0 -3.29219 0.501599 0 0 0.467699c0.242299,-0.361899 0.591499,-0.542899 1.0476,-0.542899 0.199,0 0.380999,0.0359999 0.547199,0.1069 0.1672,0.0719998 0.290999,0.1651 0.373499,0.281499 0.0835998,0.1154 0.1408,0.252899 0.1746,0.411699 0.0201,0.1037 0.0306999,0.284699 0.0306999,0.542899l0 2.0244 -0.558699 0 0 -2.0033c0,-0.226399 -0.0212,-0.396799 -0.0645999,-0.509999 -0.0433999,-0.1122 -0.1206,-0.2022 -0.230699,-0.268799 -0.1111,-0.0677998 -0.240199,-0.1016 -0.389399,-0.1016 -0.238099,0 -0.442399,0.0761998 -0.615899,0.226399 -0.1725,0.1514 -0.258199,0.437099 -0.258199,0.859298l0 1.798 -0.557699 0z"/>
   <path id="_25186172012345678910" class="fil23" d="M124.196 40.0525l0.0803998 0.493199c-0.1566,0.0327999 -0.297299,0.0496999 -0.421099,0.0496999 -0.2032,0 -0.359799,-0.0317999 -0.471999,-0.0962998 -0.1111,-0.0634999 -0.1895,-0.1482 -0.234999,-0.252899 -0.0454999,-0.1037 -0.0686998,-0.323899 -0.0686998,-0.658299l0 -1.8942 -0.409599 0 0 -0.433899 0.409599 0 0 -0.815898 0.555499 -0.334399 0 1.1503 0.560899 0 0 0.433899 -0.560899 0 0 1.9249c0,0.1598 0.00959998,0.261399 0.0285999,0.306899 0.0201,0.0454999 0.0518999,0.0814998 0.0962998,0.109 0.0444999,0.0264999 0.108,0.0401999 0.1905,0.0401999 0.0623999,0 0.1439,-0.00739998 0.245499,-0.0222z"/>
   <path id="_251861576" class="fil23" d="M132.902 40.0525l0.0803998 0.493199c-0.1566,0.0327999 -0.297299,0.0496999 -0.421099,0.0496999 -0.2032,0 -0.359799,-0.0317999 -0.471999,-0.0962998 -0.1111,-0.0634999 -0.1895,-0.1482 -0.234999,-0.252899 -0.0454999,-0.1037 -0.0686998,-0.323899 -0.0686998,-0.658299l0 -1.8942 -0.409599 0 0 -0.433899 0.409599 0 0 -0.815898 0.555499 -0.334399 0 1.1503 0.560899 0 0 0.433899 -0.560899 0 0 1.9249c0,0.1598 0.00959998,0.261399 0.0285999,0.306899 0.0201,0.0454999 0.0518999,0.0814998 0.0962998,0.109 0.0444999,0.0264999 0.108,0.0401999 0.1905,0.0401999 0.0623999,0 0.1439,-0.00739998 0.245499,-0.0222z"/>
   <path id="_251862824" class="fil23" d="M139.567 39.4916l0.576699 0.0708998c-0.0909998,0.337599 -0.259199,0.598999 -0.504799,0.785298 -0.246499,0.1852 -0.560799,0.278299 -0.942898,0.278299 -0.481499,0 -0.863498,-0.1482 -1.145,-0.444499 -0.282499,-0.296299 -0.423299,-0.712198 -0.423299,-1.2477 0,-0.554499 0.1429,-0.984098 0.427499,-1.29 0.285799,-0.305799 0.655099,-0.459299 1.1102,-0.459299 0.440199,0 0.799998,0.1503 1.0783,0.449799 0.279399,0.299499 0.419099,0.721698 0.419099,1.2646 0,0.0338999 -0.0011,0.0835998 -0.00319999,0.1492l-2.45509 0c0.0201,0.361899 0.1227,0.639199 0.306899,0.830798 0.1841,0.1926 0.412699,0.288899 0.687798,0.288899 0.2043,0 0.378899,-0.0539999 0.523799,-0.162 0.145,-0.1068 0.259299,-0.278299 0.343999,-0.514299zm-1.8318 -0.902698l1.8381 0c-0.0242999,-0.276199 -0.0951998,-0.484599 -0.2106,-0.622199 -0.1777,-0.2148 -0.408399,-0.322799 -0.690998,-0.322799 -0.256099,0 -0.471999,0.0856998 -0.646599,0.257199 -0.1746,0.1714 -0.270899,0.401099 -0.289899,0.687798z"/>
   <path id="_2518628241" class="fil23" d="M146.522 40.1456c-0.2074,0.1757 -0.406399,0.299499 -0.596799,0.372499 -0.1916,0.0719998 -0.396899,0.108 -0.615899,0.108 -0.361999,0 -0.639199,-0.0878998 -0.833898,-0.264599 -0.1937,-0.1767 -0.291099,-0.403199 -0.291099,-0.677298 0,-0.1619 0.0359999,-0.308999 0.1101,-0.442299 0.0729998,-0.1334 0.1693,-0.240199 0.287799,-0.320699 0.1196,-0.0803998 0.252999,-0.1418 0.402199,-0.183 0.109,-0.0285999 0.274099,-0.0571999 0.495199,-0.0835998 0.450899,-0.0539999 0.783098,-0.1175 0.995898,-0.1926 0.0021,-0.0761998 0.00309999,-0.1249 0.00309999,-0.145 0,-0.227499 -0.0528999,-0.388399 -0.1587,-0.480499 -0.1418,-0.127 -0.354499,-0.1894 -0.634999,-0.1894 -0.262399,0 -0.456099,0.0454999 -0.581999,0.1376 -0.1249,0.0919998 -0.2169,0.254999 -0.277299,0.488899l-0.544999 -0.0750998c0.0497999,-0.232899 0.1313,-0.422299 0.244499,-0.565199 0.1132,-0.1439 0.278299,-0.254999 0.493099,-0.332199 0.2149,-0.0772998 0.463599,-0.1165 0.747198,-0.1165 0.281499,0 0.508999,0.0338999 0.684698,0.0994998 0.1756,0.0666999 0.304699,0.1492 0.388299,0.249799 0.0825998,0.1005 0.1397,0.226399 0.1736,0.379899 0.018,0.0951998 0.0274999,0.266699 0.0274999,0.514299l0 0.743898c0,0.519599 0.0116,0.847698 0.0359999,0.984198 0.0232999,0.1376 0.0708998,0.269899 0.1407,0.395799l-0.583099 0c-0.0570999,-0.1153 -0.0951998,-0.250799 -0.1111,-0.406399zm-0.0464999 -1.2466c-0.2032,0.0835998 -0.506999,0.1535 -0.911198,0.2117 -0.229599,0.0327999 -0.392599,0.0697998 -0.486799,0.1111 -0.0951998,0.0412999 -0.1693,0.1016 -0.2201,0.182 -0.0518999,0.0793998 -0.0782998,0.1672 -0.0782998,0.264599 0,0.1492 0.0570999,0.272999 0.1693,0.372499 0.1122,0.0983998 0.277299,0.1481 0.494199,0.1481 0.2148,0 0.406399,-0.0464999 0.573599,-0.1407 0.1672,-0.0941998 0.290999,-0.2233 0.369299,-0.386299 0.0602999,-0.1259 0.0899998,-0.312199 0.0899998,-0.557699l0 -0.2053z"/>
   <path id="_25186282412" class="fil23" d="M151.433 40.552l0 -3.29219 0.498399 0 0 0.461399c0.1037,-0.1609 0.241299,-0.290999 0.412699,-0.388399 0.1715,-0.0983998 0.367199,-0.1482 0.586299,-0.1482 0.243399,0 0.443399,0.0507999 0.598999,0.1524 0.1566,0.1016 0.266599,0.242399 0.330099,0.424399 0.261399,-0.384099 0.600099,-0.576799 1.017,-0.576799 0.326999,0 0.577799,0.0910998 0.753498,0.271999 0.1757,0.181 0.263499,0.459299 0.263499,0.834998l0 2.26039 -0.554499 0 0 -2.0742c0,-0.2233 -0.018,-0.384099 -0.0539999,-0.482499 -0.0369999,-0.0973998 -0.1027,-0.1768 -0.1968,-0.237099 -0.0952998,-0.0591999 -0.2075,-0.0898998 -0.335499,-0.0898998 -0.231799,0 -0.423299,0.0771998 -0.576699,0.231699 -0.1524,0.1535 -0.229699,0.399999 -0.229699,0.738698l0 1.9133 -0.557699 0 0 -2.1387c0,-0.248699 -0.0454999,-0.434999 -0.1365,-0.558799 -0.0909998,-0.1238 -0.239199,-0.1862 -0.446599,-0.1862 -0.1566,0 -0.301599,0.0411999 -0.434899,0.1248 -0.1334,0.0825998 -0.230699,0.2032 -0.289999,0.361999 -0.0602999,0.1598 -0.0898998,0.389399 -0.0898998,0.688898l0 1.708 -0.557699 0z"/>
  </g>
 </g>
</svg>
