<svg width="557" height="583" xmlns="http://www.w3.org/2000/svg" xmlns:xlink="http://www.w3.org/1999/xlink" xml:space="preserve" overflow="hidden"><defs><clipPath id="clip0"><rect x="4" y="1703" width="557" height="583"/></clipPath></defs><g clip-path="url(#clip0)" transform="translate(-4 -1703)"><path d="M345.947 2140.59 342.102 2144.48 337.158 2146.7 332.215 2146.7 328.918 2146.15 326.171 2144.48 324.523 2143.92 323.425 2143.37 322.876 2142.81 322.326 2141.7 322.326 2141.14 321.777 2139.48 345.947 2140.59 345.947 2140.59ZM355.286 2168.38 350.892 2168.38 338.806 2172.27 333.863 2167.27 330.567 2168.94 328.37 2170.05 325.073 2171.16 322.876 2171.72 321.777 2171.72 320.678 2171.16 319.58 2170.61 317.932 2170.05 315.184 2169.49 312.987 2169.49 311.34 2169.49 308.593 2170.61 307.494 2170.61 304.748 2170.61 301.452 2169.49 296.508 2167.27 291.563 2165.05 287.72 2162.27 283.874 2160.04 281.128 2156.71 278.381 2153.37 276.733 2149.48 274.536 2144.48 272.888 2138.92 280.578 2136.7 289.368 2147.26 294.311 2152.82 299.255 2157.27 303.649 2145.59 311.89 2153.93 321.777 2152.82 331.665 2152.26 342.102 2152.26 351.991 2153.37 356.385 2147.26 365.174 2154.49 375.062 2148.93 373.964 2155.04 373.414 2160.04 372.865 2164.49 371.765 2167.83 369.568 2170.05 366.823 2171.72 361.878 2172.83 355.836 2172.83 355.286 2168.38 355.286 2168.38ZM273.438 2137.25 270.691 2135.59 268.494 2132.81 265.746 2127.25 264.098 2120.02 263 2113.35 266.297 2113.35 269.592 2113.35 273.987 2113.35 277.283 2114.46 281.677 2116.69 273.438 2137.25 273.438 2137.25ZM218.504 2108.9 217.406 2107.79 216.307 2107.24 215.209 2106.12 214.11 2103.9 212.462 2099.45 210.814 2095.01 210.265 2090 210.265 2085 211.913 2074.99 214.11 2066.66 218.504 2108.9 218.504 2108.9ZM203.123 2058.87 204.771 2056.65 205.32 2055.54 205.32 2055.54 205.32 2055.54 204.771 2056.09 204.771 2056.09 205.32 2055.54 206.968 2054.42 208.617 2053.31 209.165 2052.2 209.716 2052.2 210.265 2051.64 211.364 2051.64 212.462 2050.53 203.123 2058.87 203.123 2058.87ZM294.311 1946.58 294.859 1951.03 294.859 1955.48 294.311 1962.15 291.563 1967.71 289.368 1971.04 287.171 1974.38 278.381 1956.59 282.226 1953.25 284.974 1950.47 286.622 1948.81 287.72 1947.14 290.465 1946.58 292.114 1946.58 294.311 1946.58 294.311 1946.58ZM294.311 1946.58 295.41 1942.69 297.057 1940.47 299.255 1939.36 303.1 1937.69 311.34 1935.47 319.03 1934.91 326.171 1934.35 333.863 1934.91 338.806 1935.47 342.102 1934.91 345.947 1933.8 349.793 1933.8 352.54 1933.8 354.188 1934.35 356.934 1935.47 359.681 1936.58 361.878 1936.58 364.624 1936.58 370.668 1936.58 376.161 1937.13 381.104 1938.8 384.95 1941.58 387.696 1945.47 389.893 1949.92 390.444 1954.92 389.345 1960.48 383.302 1952.14 373.414 1964.93 363.526 1953.81 355.286 1962.15 340.454 1951.59 330.567 1962.7 315.184 1953.25 309.143 1961.59 306.396 1959.37 304.198 1958.26 302.55 1957.14 302.001 1956.03 299.804 1953.81 298.705 1952.7 297.057 1949.92 296.508 1948.81 294.859 1947.14 294.859 1946.58 294.311 1946.58 294.311 1946.58ZM388.245 1861.53 389.893 1855.97 392.09 1849.86 394.838 1843.74 396.486 1841.52 398.134 1839.85 388.245 1861.53 388.245 1861.53ZM319.03 1836.52 320.678 1838.18 322.326 1838.74 322.876 1839.3 322.876 1839.85 323.425 1840.41 323.974 1840.96 324.523 1842.07 327.819 1845.97 330.567 1848.75 332.764 1850.41 334.961 1851.52 337.708 1853.75 338.806 1854.86 340.454 1856.53 337.708 1857.64 334.961 1858.2 329.467 1857.64 324.523 1855.42 320.129 1852.08 316.833 1848.19 315.184 1843.74 315.184 1841.52 315.735 1839.85 316.833 1838.18 319.03 1836.52 319.03 1836.52ZM100.948 1825.4 96.0034 1823.73 91.0606 1822.06 87.2153 1819.84 83.9192 1817.06 81.1719 1814.28 78.9749 1810.94 77.8769 1807.05 77.3267 1802.61 104.244 1805.39 108.638 1805.39 111.934 1804.83 115.231 1804.27 119.076 1804.83 121.823 1805.39 124.02 1806.5 126.217 1808.17 127.317 1809.83 127.865 1810.39 112.485 1810.39 116.33 1815.95 100.948 1825.4 100.948 1825.4ZM64.143 1823.73 70.1853 1828.18 70.7356 1828.73 70.7356 1829.29 71.2847 1829.29 71.8335 1829.85 72.3838 1830.4 63.5942 1829.85 55.904 1827.62 49.3115 1824.84 44.3672 1820.39 43.2692 1818.17 41.621 1815.39 39.9731 1812.61 39.4239 1809.28 38.8737 1805.39 39.4239 1802.61 41.621 1799.83 44.9174 1798.16 47.6633 1802.05 49.8603 1805.94 53.7056 1812.61 58.1011 1818.17 60.8469 1820.95 64.143 1823.73 64.143 1823.73ZM477.236 1799.83 479.433 1803.72 480.532 1808.17 482.18 1813.17 482.729 1817.62 482.18 1822.62 481.63 1828.18 479.433 1824.29 477.236 1819.84 472.842 1810.94 470.094 1805.39 468.996 1801.49 468.996 1799.27 469.546 1797.05 470.094 1795.38 472.291 1792.6 474.49 1794.82 475.587 1795.94 476.137 1797.05 477.236 1799.83 477.236 1799.83ZM241.026 1799.83 243.223 1800.38 244.322 1800.94 245.97 1802.05 247.068 1803.16 247.617 1804.83 248.167 1806.5 237.181 1813.72 232.785 1804.83 234.984 1806.5 237.181 1808.17 238.279 1808.72 238.829 1809.28 241.026 1809.83 242.124 1809.28 243.772 1809.28 243.772 1807.05 243.772 1805.39 243.772 1804.27 243.772 1803.72 242.674 1802.61 242.124 1801.49 241.026 1799.83 241.026 1799.83ZM241.026 1799.83 237.181 1799.83 233.884 1800.38 228.391 1802.05 224.546 1804.27 220.151 1807.61 223.447 1803.16 227.292 1799.27 229.49 1798.16 232.237 1797.6 235.533 1797.6 239.378 1798.16 241.026 1799.83 241.026 1799.83ZM51.5071 1779.82 54.2544 1785.93 55.9026 1792.6 51.5071 1787.6 46.5628 1783.15 44.3657 1780.93 42.1687 1778.15 41.0696 1775.37 40.5205 1772.03 42.7175 1772.03 44.916 1772.03 47.6622 1773.7 49.31 1775.92 51.5071 1779.82 51.5071 1779.82ZM337.157 1763.14 337.157 1762.03 337.707 1760.91 338.256 1761.47 338.804 1761.47 339.904 1761.47 340.453 1761.47 340.453 1762.03 339.904 1763.69 338.804 1766.47 337.707 1765.36 337.157 1765.36 337.157 1765.36 337.157 1765.36 337.157 1764.25 337.157 1763.14 337.157 1763.14ZM145.992 1773.7 148.738 1773.7 151.485 1773.7 154.232 1774.26 156.979 1774.81 160.275 1774.81 162.472 1774.81 163.57 1775.37 164.12 1775.37 164.669 1775.92 165.218 1776.48 165.768 1777.04 150.937 1779.26 149.837 1779.26 149.288 1778.7 149.288 1778.7 149.288 1779.26 149.837 1780.93 158.076 1784.26 150.386 1788.15 143.245 1791.49 139.95 1793.16 137.203 1793.71 135.006 1794.27 133.907 1793.71 133.357 1793.16 132.809 1792.04 130.61 1788.15 128.413 1782.59 125.667 1776.48 123.47 1770.36 121.272 1765.36 119.623 1761.47 119.075 1760.36 119.075 1759.25 124.568 1765.36 130.61 1769.81 133.907 1771.48 137.751 1773.14 141.597 1773.7 145.992 1773.7 145.992 1773.7ZM364.074 1769.81 366.821 1768.7 369.018 1767.59 370.116 1766.47 370.666 1765.92 371.764 1765.36 372.863 1764.81 375.06 1764.81 378.357 1764.81 370.666 1772.03 416.261 1784.82 410.768 1787.04 405.823 1789.27 402.527 1791.49 399.231 1792.6 394.287 1794.82 389.892 1795.38 384.399 1794.82 381.103 1794.27 377.257 1793.71 372.315 1792.6 366.821 1790.93 359.68 1789.82 351.439 1787.6 350.89 1788.71 350.341 1789.82 349.791 1790.93 350.341 1792.6 350.89 1794.27 351.99 1797.05 353.636 1801.49 343.2 1800.94 333.862 1802.05 325.621 1803.16 317.931 1804.83 303.099 1810.39 294.858 1813.72 286.07 1817.62 286.07 1812.06 286.62 1807.05 288.268 1796.49 288.818 1791.49 288.818 1786.49 287.169 1782.04 283.873 1778.15 281.676 1775.92 278.93 1774.81 273.437 1773.14 268.492 1772.59 263.548 1773.7 258.604 1775.37 254.759 1777.59 250.913 1779.26 248.167 1780.93 208.615 1793.16 207.516 1796.49 205.869 1799.27 203.122 1801.49 200.376 1804.27 193.784 1809.28 186.093 1814.28 187.191 1815.39 187.741 1815.95 188.839 1816.5 191.036 1817.62 197.629 1819.84 204.221 1820.95 217.954 1822.62 230.588 1823.73 236.082 1824.29 241.026 1824.84 245.42 1826.51 248.716 1828.18 251.464 1830.96 253.11 1834.85 253.661 1839.3 252.562 1845.41 250.365 1852.64 246.519 1862.09 244.322 1867.65 242.674 1873.2 241.575 1878.76 241.026 1884.32 241.575 1895.44 244.322 1906.56 247.617 1918.23 252.562 1929.91 257.506 1942.14 262.999 1955.48 265.196 1953.81 266.295 1952.7 266.844 1951.03 267.393 1949.36 268.492 1947.69 270.69 1941.58 272.337 1936.58 272.337 1932.13 272.337 1928.79 271.238 1926.02 270.14 1923.23 267.393 1918.23 265.745 1914.9 264.097 1911.56 262.999 1907.67 262.45 1902.67 262.45 1897.11 262.999 1889.88 264.647 1881.54 267.393 1870.98 270.14 1862.64 273.986 1854.3 277.831 1847.08 282.775 1840.41 287.718 1834.85 293.76 1829.29 299.803 1824.84 305.845 1821.51 312.986 1818.17 320.128 1815.95 327.818 1814.28 335.509 1813.17 343.749 1812.61 351.99 1813.17 360.778 1813.72 369.567 1815.39 380.005 1817.62 389.343 1819.84 397.034 1823.17 400.33 1825.95 403.076 1828.73 405.274 1832.07 407.471 1835.96 409.668 1840.96 410.768 1847.08 411.865 1853.75 412.415 1862.09 412.415 1870.98 412.415 1881.54 407.471 1931.57 404.175 1928.24 401.978 1925.46 399.781 1923.23 398.133 1921.57 396.484 1918.79 394.287 1916.56 392.089 1914.9 389.892 1913.79 387.695 1912.67 384.399 1911.56 380.554 1909.34 375.06 1907.11 369.018 1904.33 364.623 1902.11 361.328 1899.89 359.129 1897.66 356.932 1895.44 355.834 1893.22 355.284 1890.44 355.284 1885.99 357.483 1880.43 360.778 1875.43 364.623 1869.87 368.469 1863.75 368.469 1864.31 369.018 1864.87 371.215 1867.65 374.512 1870.98 378.906 1874.32 383.85 1875.98 386.596 1876.54 389.343 1875.98 392.089 1874.87 395.385 1873.2 398.133 1869.87 400.879 1865.98 403.626 1859.86 405.274 1853.75 405.274 1848.19 404.175 1843.19 401.978 1838.18 399.231 1833.74 395.385 1830.4 390.443 1827.07 387.146 1825.4 383.85 1824.29 377.808 1823.73 372.315 1823.73 366.821 1825.4 361.877 1826.51 356.384 1827.62 350.89 1828.18 344.298 1827.07 301.451 1832.62 300.902 1830.96 295.957 1833.74 292.661 1837.07 291.562 1842.07 291.562 1847.08 292.661 1852.08 294.858 1856.53 298.154 1860.42 302 1863.75 308.042 1867.09 313.535 1868.76 317.931 1869.87 322.325 1870.43 326.17 1869.87 331.114 1868.76 336.607 1867.09 343.2 1865.42 344.848 1868.2 347.045 1872.09 348.143 1875.98 349.242 1880.43 349.242 1884.88 349.242 1889.33 347.594 1893.22 345.946 1897.11 343.2 1900.44 340.453 1902.67 334.41 1906 327.269 1908.78 319.029 1912.12 312.986 1914.9 306.395 1918.79 293.76 1928.24 287.718 1933.24 282.225 1938.24 277.282 1943.25 273.437 1947.69 268.492 1954.37 264.647 1961.59 262.45 1969.37 260.802 1977.71 260.252 1986.05 260.252 1995.5 261.351 2004.95 262.999 2014.96 264.097 2024.96 265.196 2034.41 265.745 2042.75 265.745 2051.09 265.745 2059.43 265.196 2068.32 265.196 2077.22 264.647 2087.78 275.634 2085.56 275.084 2088.33 274.534 2091.67 272.337 2098.9 270.69 2102.23 268.492 2105.01 265.745 2106.68 262.45 2106.68 261.351 2102.79 260.252 2097.78 260.252 2092.23 260.252 2085.56 260.802 2072.77 261.351 2066.66 261.351 2061.65 259.703 2049.98 257.506 2039.42 254.759 2029.97 252.012 2020.52 245.97 2003.28 243.223 1994.94 241.026 1986.61 239.927 1981.05 239.378 1974.93 239.378 1963.26 239.927 1951.59 239.927 1939.91 239.378 1934.35 238.829 1928.79 237.181 1919.34 236.631 1914.9 236.631 1909.89 236.631 1904.33 237.181 1897.66 237.73 1892.66 238.829 1887.1 240.477 1875.43 241.575 1863.75 241.575 1858.2 241.026 1853.19 239.378 1848.19 237.181 1844.3 234.434 1842.07 230.588 1840.96 226.743 1840.41 222.898 1841.52 218.503 1843.19 214.657 1845.97 183.896 1846.52 183.346 1852.64 183.346 1858.2 183.896 1862.64 184.994 1866.53 186.642 1869.31 188.29 1872.09 192.135 1875.43 196.529 1878.76 201.474 1881.54 205.869 1885.99 208.066 1888.77 209.714 1891.55 211.362 1897.66 211.912 1903.78 211.912 1911.01 211.362 1919.34 211.362 1927.68 211.912 1936.58 213.01 1945.47 216.306 1955.48 219.602 1962.7 222.349 1969.93 228.391 1982.16 233.884 1993.83 238.829 2004.95 243.223 2017.18 244.871 2023.29 247.068 2030.52 248.716 2038.3 250.365 2046.09 251.464 2055.54 252.562 2065.54 254.209 2082.22 255.309 2098.9 256.957 2114.46 259.154 2128.91 262.999 2142.26 265.745 2148.93 268.492 2154.49 272.337 2160.6 276.732 2165.6 281.676 2170.61 287.718 2175.05 294.309 2178.39 301.451 2180.61 309.69 2182.28 318.479 2182.84 336.059 2182.84 344.848 2182.84 353.636 2182.84 384.949 2140.59 389.343 2150.04 391.54 2161.71 392.089 2173.39 390.991 2186.17 387.695 2198.4 382.751 2209.52 375.609 2219.53 371.764 2223.97 366.821 2227.31 362.426 2230.09 356.932 2232.31 350.89 2233.98 344.848 2235.09 332.213 2235.65 318.479 2234.53 305.296 2232.31 293.21 2228.98 282.225 2224.53 277.282 2221.75 273.437 2219.53 266.295 2213.41 260.252 2206.74 254.759 2199.51 250.913 2191.73 247.068 2183.39 244.322 2174.5 241.575 2165.6 239.927 2156.15 237.181 2137.25 235.533 2118.91 233.884 2101.12 231.687 2085 230.588 2078.88 229.49 2072.77 226.743 2058.32 225.095 2044.42 224.546 2038.3 224.546 2032.19 223.447 2032.74 222.898 2032.19 222.898 2032.19 222.898 2032.19 222.349 2032.74 221.799 2034.41 220.151 2036.08 220.151 2034.41 219.602 2033.3 219.602 2031.63 220.151 2030.52 220.701 2029.41 221.799 2027.74 221.25 2020.52 206.967 2048.31 202.023 2053.31 202.023 2051.64 202.023 2049.98 202.573 2048.31 203.122 2047.2 203.671 2046.64 204.77 2044.98 206.418 2038.86 208.066 2032.74 208.066 2026.63 207.516 2019.4 206.418 2015.51 205.319 2012.73 202.573 2007.73 199.277 2003.28 194.883 1999.39 194.332 2006.62 193.234 2013.29 191.587 2020.52 189.389 2027.19 187.191 2033.3 183.896 2038.3 180.6 2042.75 177.304 2046.09 176.204 2047.75 175.656 2048.87 175.107 2050.53 173.459 2050.53 172.359 2051.09 170.711 2051.64 170.711 2049.42 170.711 2048.31 170.711 2047.2 171.81 2046.64 172.909 2046.09 174.007 2044.98 175.656 2038.86 177.304 2033.3 178.952 2028.3 179.501 2023.29 178.952 2018.29 177.853 2012.73 175.656 2006.62 172.359 1999.95 167.965 1994.39 167.965 2009.4 162.472 1988.27 152.583 2030.52 151.485 2029.97 150.937 2029.41 150.386 2029.97 150.386 2029.97 150.386 2028.85 149.837 2027.19 149.288 2024.41 149.288 2021.07 148.189 2017.18 147.09 2012.73 144.893 2008.29 140.499 1999.39 135.006 1990.5 130.062 1982.72 127.316 1978.27 125.117 1973.82 122.92 1968.26 120.723 1963.26 119.624 1957.14 119.075 1951.59 119.075 1946.58 120.723 1941.58 122.371 1938.8 124.02 1937.13 127.865 1933.24 130.062 1931.02 122.92 1928.79 144.344 1926.57 142.147 1924.35 139.4 1922.12 136.654 1921.01 134.457 1920.46 128.964 1920.46 123.471 1921.57 118.526 1924.35 113.582 1927.68 109.188 1931.02 104.792 1934.35 104.243 1926.57 104.792 1918.79 106.441 1911.56 109.188 1904.89 110.836 1901 112.484 1897.66 113.582 1896 115.23 1894.33 116.878 1892.66 119.075 1890.99 121.822 1889.33 125.668 1886.55 122.92 1885.43 120.174 1884.32 116.878 1884.32 114.131 1884.88 108.089 1887.1 102.046 1890.99 96.5533 1895.44 91.609 1900.44 87.2149 1904.89 83.3697 1909.34 83.9185 1903.78 86.1155 1897.66 89.9608 1890.99 93.806 1884.32 98.2012 1878.21 103.144 1872.65 108.089 1867.65 113.033 1863.2 115.779 1860.97 117.977 1859.31 121.822 1857.64 125.668 1855.42 130.062 1853.19 128.964 1852.64 128.414 1852.08 127.865 1851.52 126.766 1850.41 122.92 1849.3 119.075 1849.3 111.385 1849.86 109.737 1851.52 108.638 1852.64 106.441 1853.75 105.343 1854.3 103.144 1855.42 104.243 1851.52 104.792 1849.3 105.892 1848.19 106.441 1847.08 106.989 1847.08 108.089 1846.52 147.09 1823.17 134.457 1809.83 148.738 1811.5 153.682 1803.16 159.725 1794.82 167.416 1785.93 176.204 1777.59 184.994 1769.81 194.883 1763.14 204.221 1757.02 214.109 1752.02 220.151 1749.8 227.292 1747.02 235.533 1744.24 243.772 1742.01 252.562 1740.35 260.802 1738.68 268.492 1738.12 275.634 1738.68 276.732 1738.68 277.282 1739.24 278.38 1739.24 279.479 1739.24 280.028 1739.24 281.676 1739.24 285.521 1739.24 288.268 1739.24 293.21 1740.9 295.957 1742.57 299.254 1744.24 303.099 1747.02 308.592 1749.8 316.832 1741.46 320.128 1739.24 323.973 1738.12 327.818 1737.57 331.663 1737.57 339.904 1737.01 348.143 1738.12 356.384 1739.24 364.623 1740.9 380.554 1745.9 396.484 1753.13 411.316 1761.47 425.599 1771.48 438.234 1782.04 449.769 1793.71 454.714 1799.27 458.559 1804.27 461.855 1809.28 464.601 1813.72 466.798 1818.73 468.996 1823.73 471.743 1829.85 475.039 1837.63 460.207 1831.51 468.996 1842.07 476.687 1853.19 479.983 1859.31 482.729 1866.53 485.476 1873.76 487.673 1882.65 496.463 1951.59 482.18 1945.47 483.278 1949.92 485.476 1954.92 487.673 1961.04 489.321 1968.26 490.97 1976.05 490.97 1984.94 489.321 1994.94 488.222 2000.5 486.025 2006.06 484.377 2010.51 482.18 2014.4 479.983 2017.74 476.687 2022.18 466.249 1983.83 466.798 1990.5 466.798 1996.61 467.348 2001.61 467.348 2006.06 466.798 2013.29 465.7 2019.96 463.503 2026.63 460.207 2034.41 458.01 2038.86 455.262 2043.86 452.517 2049.98 449.22 2057.2 450.318 2051.09 451.418 2045.53 453.615 2035.52 454.163 2030.52 454.714 2024.96 454.163 2018.29 453.065 2011.07 428.345 1982.72 428.895 1983.27 428.895 1984.38 429.444 1984.94 429.993 1985.5 434.937 1992.17 437.134 1997.17 438.783 2001.61 439.332 2006.06 439.882 2011.07 439.332 2022.18 438.783 2028.3 438.234 2034.97 424.5 2012.18 411.316 2080 405.274 2065.54 389.343 2121.13 386.047 2114.46 384.399 2106.12 383.85 2097.78 384.399 2088.89 384.949 2080 386.596 2071.1 388.244 2063.32 390.443 2056.09 391.54 2051.64 393.188 2046.09 394.287 2040.53 395.385 2034.41 397.582 2019.96 399.781 2004.95 400.879 1989.94 401.978 1975.49 401.978 1968.82 401.978 1962.15 401.429 1956.59 400.879 1951.59 400.33 1948.25 398.681 1945.47 394.287 1939.91 388.794 1935.47 382.202 1932.69 311.888 1931.02 314.085 1927.68 316.282 1924.9 319.579 1923.23 323.973 1921.57 331.663 1919.34 339.904 1918.23 344.298 1917.68 348.693 1917.68 359.129 1918.23 368.469 1919.34 372.863 1920.46 376.709 1921.01 408.02 1971.6 410.768 1967.71 413.513 1962.7 415.71 1957.7 417.909 1951.59 421.754 1939.91 424.5 1928.24 423.402 1872.09 440.431 1880.99 436.586 1877.65 433.29 1874.32 431.093 1870.43 428.895 1866.53 425.599 1857.64 422.303 1846.52 401.429 1815.39 410.768 1813.17 406.922 1797.05 411.316 1796.49 415.162 1797.05 419.007 1798.16 422.852 1799.27 423.951 1800.38 423.951 1800.38 423.402 1800.38 423.402 1800.94 423.402 1802.05 422.852 1802.61 422.303 1803.72 422.303 1804.27 421.754 1804.83 440.98 1804.83 439.882 1801.49 438.234 1798.16 433.838 1790.38 428.895 1783.71 426.697 1780.93 425.049 1778.7 419.556 1773.7 412.965 1768.14 405.823 1763.14 397.582 1758.69 389.892 1755.35 382.202 1752.58 375.609 1750.35 369.567 1749.8 335.509 1757.58 334.959 1773.7 337.157 1772.59 338.804 1771.48 340.453 1769.81 341.003 1768.7 342.101 1767.59 343.749 1767.03 345.946 1766.47 348.143 1765.92 350.89 1765.92 354.735 1765.36 359.68 1764.25 365.722 1763.69 364.074 1769.81 364.074 1769.81ZM485.476 1735.9 487.123 1735.34 489.871 1734.23 493.167 1733.68 497.012 1733.68 504.153 1733.68 507.449 1734.23 510.196 1734.79 514.59 1737.01 518.985 1740.35 523.379 1743.68 526.126 1746.46 519.534 1748.13 535.465 1787.04 534.916 1788.71 534.365 1790.93 531.62 1795.94 528.323 1801.49 523.929 1806.5 520.083 1811.5 516.237 1815.39 513.492 1818.17 512.393 1818.73 515.14 1786.49 514.59 1782.59 513.492 1778.7 510.196 1772.59 505.251 1767.03 499.758 1763.69 493.167 1761.47 486.574 1760.91 479.983 1763.14 476.687 1764.81 473.94 1767.03 470.643 1771.48 467.348 1777.04 464.601 1783.71 461.855 1789.82 443.177 1769.81 449.22 1764.25 454.163 1759.8 458.01 1757.02 461.855 1754.8 465.7 1753.69 470.094 1752.58 475.039 1752.02 481.63 1750.91 485.476 1735.9 485.476 1735.9ZM85.5671 1737.57 87.2153 1738.12 88.3129 1738.68 88.8632 1738.68 89.4123 1739.24 89.9611 1739.79 91.0602 1741.46 93.2572 1743.68 94.9055 1745.91 96.5537 1748.13 98.2019 1750.35 99.8498 1752.58 102.047 1754.8 108.089 1767.59 70.7356 1755.36 70.7356 1770.92 51.5085 1759.8 56.4528 1747.02 67.9879 1750.91 60.8465 1733.12 64.6918 1734.79 67.4391 1736.46 69.0873 1737.01 70.7352 1737.57 72.9322 1738.12 75.6784 1738.12 80.0739 1737.57 85.5671 1737.57 85.5671 1737.57ZM24.0418 1958.26 26.7891 1950.48 29.5353 1944.36 32.2826 1938.25 36.6766 1932.69 26.7891 1961.04 27.3383 1964.93 27.3383 1967.15 26.7891 1968.26 26.7891 1968.82 26.7891 1968.82 27.3383 1968.26 27.8871 1968.26 28.9861 1968.26 32.2826 1962.15 36.6766 1956.59 42.1698 1952.14 48.2121 1949.36 46.5638 1955.48 44.3668 1960.48 41.621 1969.93 40.5215 1974.93 39.4239 1980.49 39.4239 1987.16 39.4239 1994.95 39.9727 2001.62 41.0707 2007.17 43.818 2017.74 47.1141 2027.19 49.8599 2037.75 50.4102 2038.3 50.9594 2038.86 51.5082 2038.3 51.5082 2037.75 52.0573 2038.3 52.6072 2039.42 53.1564 2041.64 53.1564 2034.41 52.0573 2028.3 50.4102 2021.63 48.2121 2013.85 47.6629 2004.95 47.6629 1999.95 48.2121 1994.39 49.8599 1988.83 52.0573 1982.16 55.3534 1975.49 59.1987 1968.26 64.6918 1960.48 71.2844 1951.59 68.5371 1959.37 66.34 1966.04 64.143 1972.16 62.4948 1977.71 60.8465 1982.16 59.7489 1986.61 58.1007 1993.83 57.5505 2000.5 58.6495 2007.17 61.3968 2014.96 63.0436 2018.85 65.7909 2023.3 70.7352 2023.85 73.4814 2021.63 75.1296 2016.63 77.8769 2010.51 80.6227 2003.28 84.468 1995.5 88.3129 1987.72 91.6094 1980.49 94.9055 1974.38 96.5533 1972.16 97.1025 1970.49 92.1582 1992.72 89.9611 2003.84 88.3129 2014.4 87.2153 2024.41 88.3129 2034.97 90.5099 2045.53 92.1582 2051.09 94.9055 2056.65 95.4543 2058.32 96.5537 2059.98 97.6513 2062.21 98.7507 2063.32 100.948 2065.54 104.793 2032.19 105.892 2029.97 107.54 2026.63 110.286 2019.4 111.934 2015.51 113.582 2012.18 114.681 2009.4 115.23 2007.73 114.681 2021.07 114.131 2033.3 114.131 2043.86 114.131 2053.87 115.779 2063.32 118.527 2073.33 122.921 2083.89 125.668 2089.45 129.513 2095.01 130.611 2096.12 131.161 2096.12 132.259 2095.01 132.259 2095.01 132.259 2096.12 132.259 2097.78 132.259 2101.68 131.161 2101.12 131.161 2100.56 131.71 2100.01 131.71 2098.34 132.259 2093.89 131.71 2090 130.611 2082.22 130.062 2078.89 130.062 2074.44 131.71 2069.99 133.908 2064.99 161.924 2118.91 159.177 2101.12 161.374 2103.34 162.473 2105.01 163.022 2105.57 163.571 2106.12 163.571 2107.24 164.121 2108.35 165.219 2110.57 171.263 2120.58 178.953 2128.36 186.643 2135.03 194.884 2140.03 202.024 2143.92 208.617 2146.7 210.814 2147.81 213.011 2148.93 214.659 2150.04 215.209 2151.15 216.307 2152.82 216.857 2155.6 217.406 2159.49 217.955 2163.38 219.054 2172.83 220.702 2183.39 223.448 2193.4 225.645 2197.85 227.844 2202.29 230.59 2206.18 233.886 2208.96 238.28 2211.19 242.675 2212.3 241.027 2198.96 243.773 2198.4 246.521 2204.52 249.267 2209.52 252.563 2214.52 256.408 2218.97 264.649 2226.2 273.438 2232.31 283.325 2237.31 293.762 2242.32 304.747 2246.76 315.734 2251.77 321.776 2254.55 326.17 2257.33 329.466 2259.55 331.663 2261.77 335.509 2265.11 337.707 2266.78 340.453 2269 344.298 2262.89 347.594 2258.44 351.439 2253.99 360.778 2246.76 371.215 2240.09 381.103 2233.42 388.244 2227.31 393.188 2221.19 397.582 2213.97 400.879 2206.74 403.076 2198.96 404.724 2191.18 406.372 2174.5 407.471 2158.38 408.569 2143.37 410.217 2136.14 411.865 2129.47 414.612 2122.8 418.458 2117.8 421.204 2115.02 423.951 2112.79 429.444 2109.46 435.487 2106.68 441.53 2102.79 444.276 2100.01 446.473 2097.78 449.769 2091.67 453.065 2085.56 456.362 2079.44 460.756 2073.88 465.7 2068.88 474.49 2059.43 482.18 2050.53 488.771 2042.19 494.815 2034.41 500.308 2026.63 504.702 2018.85 508.547 2011.07 511.295 2002.73 514.04 1994.94 515.689 1986.61 516.788 1978.27 517.337 1969.38 517.337 1959.93 516.788 1949.36 515.689 1938.8 513.492 1927.13 511.295 1914.9 509.646 1907.67 507.999 1899.89 503.603 1882.1 501.956 1873.76 500.857 1864.87 500.308 1857.08 500.308 1849.3 509.646 1842.63 518.436 1835.96 526.675 1828.73 533.817 1820.4 539.859 1811.5 544.254 1800.94 545.352 1795.38 546.451 1788.71 547 1782.04 546.451 1774.81 545.902 1769.25 544.803 1763.69 540.409 1752.02 534.365 1741.46 526.675 1732.56 522.281 1728.67 517.337 1724.78 512.393 1722 506.899 1719.78 500.857 1718.11 495.364 1717.56 489.321 1717.56 482.729 1718.67 475.587 1720.89 469.546 1723.11 464.052 1725.89 458.559 1729.23 449.769 1735.34 441.53 1740.9 433.29 1745.35 428.895 1747.02 424.5 1748.13 419.007 1748.13 413.513 1747.57 406.922 1745.91 399.231 1743.13 395.385 1742.01 390.443 1739.79 384.949 1738.12 378.906 1736.46 365.173 1732.56 350.89 1729.78 336.607 1728.12 330.016 1728.12 323.424 1728.12 317.382 1729.23 311.888 1730.9 307.493 1733.12 303.648 1736.46 297.055 1734.79 291.013 1733.12 285.521 1732.01 280.577 1730.9 271.238 1729.23 263.548 1728.12 255.309 1728.12 246.521 1729.23 241.027 1730.34 235.534 1731.45 229.492 1733.68 222.35 1735.9 217.955 1737.01 214.659 1738.68 211.913 1739.79 209.716 1740.35 206.419 1742.01 204.222 1742.57 202.024 1742.01 198.729 1740.9 196.531 1739.79 193.785 1738.68 189.94 1737.57 186.094 1735.9 180.051 1733.68 174.558 1732.56 169.615 1732.56 164.67 1732.56 159.726 1734.23 155.881 1736.46 152.036 1739.24 149.29 1743.13 166.318 1761.47 160.825 1759.25 155.881 1758.14 151.487 1756.47 147.641 1755.36 141.049 1753.13 136.105 1751.46 132.81 1750.35 130.611 1749.24 128.964 1748.13 127.865 1747.57 125.668 1745.35 124.569 1744.24 122.372 1742.57 119.076 1740.35 114.682 1737.57 108.638 1734.23 100.948 1729.78 92.7084 1725.89 83.37 1722 72.9326 1718.67 62.4948 1717 56.4528 1717 50.9594 1717.56 46.5638 1719.22 43.2692 1721.45 39.9727 1724.23 37.7757 1727.56 32.2826 1735.34 28.4373 1742.57 25.1412 1749.24 22.3939 1755.91 20.7457 1762.58 19.0975 1768.7 17.9999 1774.81 17.9999 1786.49 19.0975 1797.6 21.8448 1808.17 26.2388 1817.62 31.1835 1826.51 36.6766 1834.85 42.7189 1842.63 48.7623 1849.3 54.2558 1855.42 59.7489 1860.98 64.143 1865.98 67.4391 1869.87 69.0873 1873.21 65.7912 1877.65 61.3972 1882.1 52.0573 1892.11 43.2692 1902.67 39.4239 1907.11 36.1278 1911.01 28.9861 1922.68 26.2388 1928.24 24.0418 1934.91 23.493 1936.02 23.493 1937.13 22.9442 1941.03 21.8451 1946.03 21.296 1951.03 21.296 1955.48 21.296 1958.26 21.8451 1959.37 22.3939 1959.37 22.9442 1959.37 24.0418 1958.26 24.0418 1958.26Z" fill="#010001" fill-rule="evenodd"/><path d="M309.722 1758.54 314.115 1762.43 316.312 1767.98 317.41 1774.09 317.41 1782.41 315.762 1780.19 314.115 1777.42 311.918 1771.31 310.27 1764.65 309.722 1758.54 309.722 1758.54ZM288.303 1750.77 291.598 1751.32 295.442 1753.54 298.737 1756.32 300.934 1759.65 289.402 1753.54 288.854 1752.99 288.303 1752.43 288.303 1752.43 288.303 1752.43 288.303 1751.88 288.303 1750.77 288.303 1750.77ZM288.303 1750.77 286.107 1749.66 285.009 1749.66 284.459 1748.55 283.91 1747.44 282.812 1745.77 285.558 1746.88 287.206 1747.99 288.303 1747.99 288.303 1748.55 287.755 1748.55 287.755 1749.66 288.303 1750.77 288.303 1750.77ZM108.713 1846.82 108.164 1851.26 112.009 1850.15 119.698 1849.59 123.542 1849.59 127.386 1851.26 128.485 1851.81 129.034 1852.37 130.133 1853.48 125.738 1856.26 122.444 1857.92 118.6 1860.14 116.402 1861.81 113.108 1864.03 108.713 1867.91 103.77 1872.91 98.8281 1878.46 94.4339 1885.12 90.0405 1891.23 86.7451 1897.89 84.5486 1904 83.9999 1909.55 87.8439 1905.67 92.237 1900.67 97.1806 1895.67 102.672 1891.23 108.713 1887.9 114.754 1885.12 117.501 1885.12 120.246 1885.12 123.542 1885.68 126.288 1886.79 122.444 1889.57 119.698 1891.23 117.501 1892.9 115.853 1894.56 114.205 1896.23 112.557 1898.45 111.46 1901.22 109.812 1905.11 107.066 1911.77 105.418 1918.99 104.869 1926.76 105.418 1934.54 109.262 1931.76 114.205 1927.87 119.149 1924.54 124.092 1922.32 129.584 1920.66 134.526 1920.66 137.272 1921.21 140.018 1922.88 142.215 1924.54 144.961 1927.32 123.542 1928.98 130.133 1931.2 128.485 1933.98 124.092 1937.31 122.444 1939.53 121.345 1941.75 119.697 1946.75 119.149 1952.3 120.246 1957.85 121.345 1963.41 123.542 1968.96 125.738 1973.95 127.936 1978.95 130.681 1982.84 135.625 1991.17 141.117 1999.49 145.51 2008.37 147.707 2012.81 148.805 2017.26 149.354 2021.14 149.905 2024.47 150.453 2027.25 151.002 2029.47 151.002 2030.03 151.002 2030.03 151.552 2029.47 152.101 2030.03 153.198 2030.58 162.536 1988.39 168.577 2010.04 168.577 1995.05 172.97 2000.05 176.266 2006.71 178.462 2012.82 179.561 2018.37 179.561 2023.36 179.012 2028.36 177.913 2033.91 176.266 2038.91 174.618 2045.02 174.618 2046.68 174.618 2047.79 175.167 2047.79 176.266 2047.24 177.365 2046.13 181.209 2043.35 184.505 2038.91 187.25 2033.36 189.996 2027.25 192.193 2020.59 193.841 2013.37 194.939 2006.71 194.939 2000.05 199.882 2003.93 203.177 2007.82 205.923 2012.82 207.022 2016.15 207.57 2019.48 208.669 2026.69 208.119 2033.36 207.022 2038.91 204.825 2045.57 204.825 2047.24 205.374 2048.35 205.923 2048.35 207.57 2048.35 221.85 2020.59 221.85 2027.81 225.145 2028.36 225.145 2032.25 225.145 2038.35 225.694 2045.02 227.342 2058.9 230.089 2072.78 231.186 2079.44 232.285 2084.99 234.482 2101.09 236.13 2118.86 237.777 2137.73 240.523 2156.61 242.17 2165.49 244.367 2174.37 247.662 2183.26 250.958 2191.59 255.351 2199.36 260.843 2206.58 266.885 2213.24 274.025 2219.34 277.869 2222.12 282.812 2224.34 293.245 2228.78 305.877 2232.11 319.058 2234.89 332.239 2236 345.42 2234.89 351.461 2233.78 357.502 2232.11 362.446 2230.45 367.389 2227.67 372.331 2223.79 376.175 2219.9 383.315 2209.91 388.258 2198.25 391.554 2186.03 392.651 2173.82 392.102 2161.61 389.906 2150.5 385.513 2140.51 353.658 2182.7 345.42 2182.7 336.633 2182.7 318.509 2182.7 310.27 2182.15 302.033 2181.04 294.344 2178.26 288.303 2174.93 282.262 2170.49 276.771 2165.49 272.926 2160.49 269.082 2154.94 265.786 2148.84 263.59 2142.73 259.745 2129.41 257.549 2114.41 255.901 2098.87 254.254 2082.77 253.154 2065.56 252.057 2055.57 250.409 2046.68 248.761 2038.35 247.114 2030.58 245.466 2023.92 243.269 2017.26 238.875 2005.6 233.933 1993.94 228.441 1982.84 222.949 1970.07 219.653 1963.41 216.907 1955.63 213.611 1946.19 211.965 1936.76 211.965 1927.87 211.965 1919.55 211.965 1911.77 212.513 1904.56 211.965 1897.89 210.317 1892.34 208.669 1889.01 206.473 1886.23 202.078 1882.35 197.135 1879.02 192.742 1876.24 188.349 1872.35 186.701 1869.58 185.602 1866.8 184.505 1862.92 183.954 1858.48 183.954 1853.48 184.505 1846.82 214.71 1846.82 219.103 1844.04 223.498 1841.82 227.342 1841.27 231.186 1841.27 234.482 1842.37 237.777 1845.15 239.974 1848.48 241.622 1854.03 242.17 1858.48 242.17 1864.03 241.073 1875.69 238.875 1887.9 238.326 1893.45 237.777 1897.89 237.227 1904.56 236.678 1910.11 237.227 1915.11 237.777 1920.1 239.425 1928.98 239.974 1934.54 240.523 1940.09 240.523 1952.3 239.974 1963.96 239.974 1975.62 240.523 1981.17 241.622 1987.28 243.818 1995.6 246.015 2003.93 252.606 2021.14 255.351 2030.03 258.098 2040.02 260.294 2050.57 261.393 2061.67 261.942 2066.67 261.393 2072.78 260.843 2085.54 260.843 2092.21 260.843 2098.31 261.393 2103.31 263.041 2106.64 266.335 2106.64 269.082 2104.98 271.278 2102.76 272.926 2099.42 275.123 2091.65 275.671 2088.32 275.671 2085.54 265.238 2087.77 265.238 2077.77 265.786 2068.33 265.786 2059.45 266.335 2051.68 265.786 2043.35 265.786 2034.47 264.688 2025.58 263.041 2015.04 261.942 2005.04 260.843 1995.61 260.843 1986.72 261.393 1977.84 263.041 1970.07 265.238 1962.3 269.082 1955.08 274.025 1947.86 277.869 1943.42 282.812 1938.42 288.303 1933.43 293.794 1928.43 306.976 1919.55 313.017 1915.66 319.607 1912.33 327.297 1909 334.436 1906.22 341.026 1902.89 343.773 1900.67 345.969 1897.89 348.166 1894.01 349.265 1889.57 349.814 1885.12 349.814 1880.68 348.715 1876.24 347.068 1872.35 345.42 1869.02 343.222 1866.25 336.633 1867.91 331.69 1869.02 326.746 1870.13 322.353 1870.69 318.509 1870.69 314.115 1869.58 308.622 1867.36 302.582 1864.03 298.737 1861.25 295.442 1856.81 293.245 1852.37 292.146 1847.37 291.598 1842.37 293.245 1837.93 295.992 1834.05 300.934 1831.27 302.033 1832.94 344.87 1827.38 350.913 1828.5 356.953 1828.5 362.446 1827.38 367.389 1825.72 372.881 1824.61 378.373 1824.05 384.414 1824.61 387.709 1826.27 391.005 1827.94 395.398 1830.72 399.242 1834.6 402.537 1838.49 404.734 1843.49 405.833 1848.48 405.833 1854.59 404.185 1860.14 400.89 1866.25 398.143 1870.69 395.398 1873.47 392.651 1875.13 389.906 1876.24 387.159 1876.8 384.414 1876.24 379.47 1874.58 375.077 1871.24 371.782 1867.91 369.585 1865.14 369.037 1864.58 368.487 1864.03 364.642 1870.13 360.798 1875.69 358.052 1881.24 355.854 1886.23 355.854 1891.23 356.405 1893.45 357.502 1895.67 359.15 1897.89 361.897 1900.11 365.191 1902.34 369.585 1904.56 375.626 1907.33 380.569 1909.55 384.963 1911.77 388.258 1913.44 390.454 1914.55 392.651 1915.66 394.849 1917.33 396.497 1918.99 398.693 1921.77 400.341 1923.43 401.989 1925.65 404.734 1928.43 408.03 1931.76 412.972 1881.79 412.972 1871.24 412.972 1862.36 412.423 1854.59 411.325 1847.37 409.676 1841.82 408.03 1836.82 405.833 1832.38 403.634 1829.05 400.341 1826.27 397.046 1824.05 389.357 1820.72 380.569 1817.95 370.134 1815.73 361.346 1814.62 352.56 1813.51 344.322 1813.51 336.084 1813.51 328.394 1814.62 320.705 1816.28 313.566 1819.06 306.426 1821.83 299.836 1825.72 293.794 1830.16 288.303 1835.16 283.361 1840.71 278.418 1847.37 274.574 1854.59 270.73 1862.92 267.983 1871.8 265.238 1881.79 263.59 1890.12 263.041 1897.34 263.041 1902.89 263.59 1907.89 264.688 1911.77 265.786 1915.66 267.434 1918.44 270.73 1923.43 271.827 1926.21 272.926 1929.54 272.926 1932.87 272.377 1936.76 271.278 1941.75 269.082 1947.86 267.983 1949.53 267.434 1951.19 266.885 1952.86 265.786 1953.97 263.59 1955.63 258.098 1942.86 252.606 1930.09 248.211 1918.44 244.367 1906.78 242.17 1895.67 241.622 1884.57 242.17 1879.02 243.269 1873.47 244.367 1867.91 247.114 1862.36 250.958 1853.48 253.154 1845.71 253.703 1839.6 253.703 1835.16 252.057 1831.27 249.31 1828.5 246.015 1826.83 241.622 1825.16 236.13 1824.61 230.637 1824.05 218.554 1822.94 204.825 1821.83 198.234 1820.17 191.643 1817.95 189.446 1817.39 188.349 1816.84 187.799 1815.73 186.701 1814.62 194.389 1809.62 200.981 1804.62 203.726 1802.4 206.473 1799.63 208.119 1796.85 209.218 1793.52 248.761 1781.3 251.507 1780.19 255.351 1777.97 259.195 1776.31 264.139 1774.64 269.082 1773.53 274.025 1773.53 279.517 1775.2 281.714 1776.86 284.459 1778.53 287.755 1782.41 288.854 1786.86 289.402 1791.85 288.854 1796.85 287.206 1807.4 286.656 1812.95 286.656 1817.95 295.442 1814.06 303.131 1810.73 317.96 1805.73 325.649 1803.51 334.436 1802.4 343.773 1801.85 354.207 1801.85 352.56 1797.96 351.461 1794.63 350.363 1792.96 350.363 1791.85 350.913 1790.19 351.461 1789.63 352.01 1788.52 360.249 1790.19 367.389 1791.85 372.881 1792.96 377.823 1794.07 381.667 1795.18 384.961 1795.74 389.904 1795.74 394.297 1795.18 399.79 1793.52 402.536 1791.85 406.381 1790.19 410.774 1787.97 416.266 1785.19 371.233 1772.98 370.134 1772.42 369.585 1772.42 368.487 1772.42 366.839 1771.87 366.29 1771.87 365.741 1771.31 365.191 1770.75 364.093 1770.2 366.29 1764.09 360.249 1765.2 355.306 1765.76 351.461 1766.31 348.166 1766.87 345.969 1766.87 344.322 1767.42 342.674 1767.98 341.576 1769.09 340.477 1770.2 338.829 1771.87 337.182 1772.98 334.985 1774.09 336.084 1757.99 370.133 1750.77 375.625 1751.32 382.765 1752.99 390.453 1755.77 398.142 1759.65 405.832 1764.09 413.521 1769.09 420.11 1774.09 425.602 1779.64 427.25 1781.86 429.448 1784.08 434.39 1791.3 438.784 1798.51 440.432 1801.85 440.981 1805.18 422.308 1805.18 421.209 1804.62 420.66 1804.62 420.11 1805.18 420.11 1805.18 419.561 1805.18 419.561 1804.07 419.561 1802.4 422.857 1799.62 419.012 1798.51 415.717 1797.4 411.324 1797.4 407.48 1797.96 411.324 1813.51 401.987 1815.73 422.857 1847.37 426.152 1857.92 429.448 1867.36 431.094 1871.24 433.841 1874.58 437.136 1878.46 440.981 1881.24 423.406 1872.35 424.504 1928.43 422.308 1940.09 418.464 1952.3 416.266 1957.85 413.521 1963.41 410.774 1967.85 408.028 1972.29 377.273 1921.77 373.43 1920.66 369.037 1920.1 359.15 1918.99 349.265 1918.44 344.87 1918.44 340.477 1918.44 332.239 1920.1 324.55 1922.32 320.157 1923.99 316.861 1925.65 314.115 1927.87 311.918 1931.2 382.217 1932.87 388.807 1935.65 394.848 1940.09 399.241 1945.64 400.889 1948.97 401.437 1952.3 401.987 1956.74 402.536 1962.85 402.536 1968.96 401.987 1975.62 401.437 1990.05 399.79 2005.6 398.142 2020.59 395.945 2034.47 394.297 2040.57 393.2 2046.68 392.101 2051.68 391.004 2056.12 388.806 2063.34 387.158 2071.11 385.511 2079.99 384.412 2088.88 384.412 2097.76 384.961 2106.64 386.609 2114.41 389.356 2121.63 405.832 2065.56 411.873 2079.99 425.053 2012.26 438.784 2035.02 439.333 2028.36 439.882 2022.26 439.882 2011.71 439.882 2006.71 439.333 2001.71 437.685 1997.27 435.489 1992.83 430.545 1985.61 429.997 1985.61 429.448 1984.5 428.898 1983.95 428.898 1983.39 453.612 2011.15 454.712 2018.37 455.262 2025.03 454.712 2030.58 454.161 2035.58 451.416 2045.57 450.317 2051.12 449.768 2057.23 453.064 2050.57 455.809 2044.46 458.006 2038.91 460.202 2034.47 463.498 2026.7 466.244 2020.03 467.342 2013.93 467.892 2006.15 467.342 2001.71 467.342 1996.72 466.793 1991.17 466.244 1984.5 477.229 2022.26 479.974 2017.81 482.17 2014.48 484.368 2010.6 486.565 2006.15 488.761 2000.6 489.86 1995.05 491.508 1985.06 490.958 1976.18 489.86 1968.4 487.663 1961.74 485.466 1955.63 483.818 1950.08 482.721 1945.64 497 1951.75 487.663 1882.9 486.016 1874.58 483.269 1866.8 480.524 1860.14 477.229 1853.48 469.54 1842.37 460.204 1831.83 475.033 1837.93 472.287 1830.72 469.541 1824.61 466.795 1819.06 464.598 1814.06 462.402 1809.62 459.106 1805.18 455.262 1800.18 450.318 1794.63 438.785 1782.97 425.604 1771.87 411.874 1761.87 397.046 1753.54 381.118 1746.33 365.191 1741.33 356.953 1739.67 348.715 1738.55 340.477 1738 332.239 1738 327.846 1738 324.001 1738.55 320.705 1739.67 317.41 1741.89 309.173 1750.77 303.681 1747.44 299.286 1745.22 295.992 1743 293.245 1741.89 288.854 1740.22 285.558 1739.67 282.262 1739.67 280.615 1739.67 279.517 1739.67 278.967 1739.67 277.869 1739.67 277.319 1739.11 276.222 1739.11 269.082 1738.55 260.843 1739.11 252.606 1740.78 244.367 1742.44 235.581 1745.22 227.891 1747.44 220.751 1750.21 214.161 1752.44 204.825 1757.43 194.939 1763.54 185.602 1770.2 176.266 1778.53 168.028 1786.86 160.339 1795.18 154.298 1803.51 149.354 1811.84 135.076 1810.17 147.707 1823.5 108.713 1846.82 108.713 1846.82Z" fill="#FBFCFC" fill-rule="evenodd"/><path d="M27.6205 1965.63 27.0717 1961.19 27.0717 1958.97 26.5215 1957.86 25.9727 1957.86 23.7757 1958.41 23.2266 1959.52 22.1276 1960.08 22.1276 1959.52 21.5788 1958.97 21.5788 1955.63 21.5788 1951.19 22.1276 1946.19 22.6763 1941.75 23.2266 1937.87 23.7757 1936.2 23.7757 1935.65 26.5215 1928.98 29.2687 1922.88 36.4098 1911.77 39.7058 1907.88 43.0007 1902.89 52.3388 1892.89 61.1282 1882.34 65.5236 1877.9 69.3683 1874.01 67.1714 1870.68 63.8754 1866.24 59.48 1861.8 54.5373 1856.25 48.4937 1850.14 42.4519 1842.92 36.9586 1835.7 30.9169 1827.37 25.9727 1818.49 22.1276 1808.5 19.3804 1798.5 17.7336 1787.4 18.2824 1775.74 19.3804 1769.63 20.4794 1762.97 22.6763 1756.86 25.4236 1750.19 28.7199 1743.53 32.5647 1736.31 37.5078 1728.54 40.255 1725.21 43.0007 1721.88 46.8459 1719.66 51.2409 1718.55 56.1851 1717.44 62.7763 1717.99 73.2135 1719.66 83.1007 1722.43 92.9887 1726.32 101.228 1730.76 108.918 1734.65 114.961 1738.54 119.355 1741.31 122.102 1742.98 124.299 1745.2 125.948 1746.31 127.596 1747.97 128.693 1749.08 130.342 1749.64 133.089 1750.75 136.384 1752.42 141.328 1754.08 147.37 1755.75 151.765 1757.41 156.159 1758.52 161.103 1760.19 166.597 1761.86 149.568 1744.09 152.314 1740.2 155.61 1736.87 160.004 1735.2 164.4 1733.54 169.342 1732.98 174.835 1733.54 180.329 1734.65 185.822 1736.31 190.217 1737.98 193.513 1739.65 196.259 1740.76 198.456 1741.87 201.752 1742.98 203.949 1743.53 206.148 1742.98 209.442 1741.31 211.641 1740.2 214.387 1739.09 218.231 1737.98 222.627 1736.31 229.218 1734.09 235.81 1732.43 241.303 1731.32 246.247 1730.21 255.035 1729.1 263.276 1729.1 271.515 1729.65 280.304 1731.87 285.248 1732.98 290.74 1734.09 296.782 1735.76 303.922 1736.87 307.767 1734.09 312.162 1731.87 317.105 1730.21 323.148 1729.1 329.739 1728.54 336.332 1729.1 350.614 1730.76 365.445 1733.54 378.629 1737.42 385.22 1739.09 390.714 1740.76 395.108 1742.42 399.502 1744.09 406.643 1746.86 413.235 1747.97 419.277 1749.08 424.221 1748.53 429.166 1747.97 433.56 1746.31 441.8 1741.87 449.49 1736.31 458.828 1730.21 463.772 1726.88 469.265 1724.1 475.857 1721.88 482.449 1719.66 489.039 1718.55 495.083 1718.55 501.125 1719.1 506.618 1720.77 512.111 1722.99 517.055 1725.76 521.998 1729.1 526.394 1733.54 534.084 1742.42 540.126 1752.97 544.521 1764.08 545.619 1769.63 546.169 1775.74 546.718 1782.95 546.169 1789.62 545.619 1795.72 543.971 1801.83 539.577 1811.83 534.084 1821.27 526.943 1829.04 518.703 1836.26 509.914 1843.48 500.576 1850.14 500.026 1857.36 500.576 1865.69 501.674 1874.01 503.322 1882.9 507.717 1900.11 509.914 1908.44 511.562 1915.66 513.759 1927.87 515.407 1939.53 516.505 1950.08 517.055 1960.08 517.055 1969.52 516.505 1978.4 515.407 1987.28 513.759 1995.61 511.562 2003.38 508.266 2011.16 504.421 2018.93 500.026 2026.7 495.083 2034.48 489.039 2042.81 481.898 2051.13 474.759 2059.46 465.419 2069.46 461.025 2074.45 456.631 2079.45 452.786 2085.56 450.039 2091.67 446.194 2097.77 443.997 2100.55 441.8 2102.77 435.757 2106.66 429.714 2109.43 423.672 2112.77 420.925 2114.99 418.179 2117.76 414.883 2123.31 412.136 2129.42 409.939 2136.09 408.84 2143.3 407.193 2158.85 406.094 2174.95 404.446 2191.05 402.798 2198.83 400.601 2206.6 397.305 2213.82 393.46 2221.04 387.967 2227.7 381.374 2233.25 370.938 2239.91 361.05 2246.58 351.712 2253.8 347.867 2258.24 344.571 2262.68 340.177 2268.79 337.43 2266.57 335.233 2264.9 331.936 2261.57 329.739 2259.35 326.443 2257.13 322.049 2254.35 316.007 2251.58 304.471 2246.58 294.036 2242.14 283.6 2237.14 273.713 2232.14 264.374 2226.03 256.134 2218.82 252.838 2214.38 248.993 2209.93 246.247 2204.38 243.5 2198.27 240.754 2198.83 242.401 2212.15 238.007 2211.04 234.162 2208.82 230.866 2206.05 227.57 2202.16 225.373 2198.27 223.725 2193.27 220.979 2183.28 218.781 2172.73 217.683 2163.29 217.134 2159.41 216.584 2156.07 216.034 2153.3 215.486 2151.08 214.387 2149.97 213.287 2149.41 211.09 2147.74 208.345 2146.63 202.301 2143.86 194.611 2139.97 186.372 2134.98 178.682 2128.87 171.541 2120.54 164.949 2110.54 164.4 2108.88 163.85 2107.21 163.3 2106.1 163.3 2105.55 162.202 2104.99 161.103 2103.33 158.906 2101.1 162.202 2118.87 133.638 2065.57 131.441 2070.57 130.342 2075.01 129.793 2078.9 130.342 2082.78 131.441 2090 131.99 2093.89 131.99 2098.33 133.638 2101.66 134.187 2103.88 135.286 2107.21 136.384 2111.1 139.68 2116.65 141.328 2118.87 142.976 2121.09 147.92 2126.09 154.511 2131.09 162.202 2137.2 170.442 2142.75 179.231 2148.3 187.47 2153.3 195.161 2158.29 201.203 2162.18 202.851 2172.18 203.949 2180.5 205.597 2188.28 207.794 2194.94 209.993 2201.6 213.837 2207.16 218.231 2213.26 223.725 2219.37 227.021 2222.15 230.317 2224.37 235.81 2227.14 239.106 2228.81 242.951 2231.03 247.894 2233.81 254.486 2238.25 264.374 2244.91 274.811 2250.46 285.797 2254.91 297.329 2259.9 308.866 2265.46 319.302 2271.56 338.529 2286 342.374 2285.45 345.121 2285.45 347.867 2284.89 350.064 2284.33 352.811 2282.67 353.909 2280.45 355.008 2277.67 355.557 2274.9 357.205 2271.56 359.402 2267.68 361.05 2266.01 363.797 2263.79 366.543 2261.57 370.388 2259.35 377.529 2255.46 380.825 2253.8 383.573 2252.13 391.812 2246.02 398.953 2239.36 404.995 2232.14 409.39 2224.92 413.235 2216.6 415.981 2208.82 418.179 2200.49 419.277 2192.17 420.925 2176.06 422.025 2161.07 422.573 2153.85 423.672 2147.19 424.77 2141.08 426.418 2135.53 428.066 2132.2 430.264 2129.42 432.461 2127.2 435.208 2124.98 441.25 2121.65 444.546 2119.98 448.391 2117.76 450.588 2116.1 452.786 2114.43 456.081 2111.1 458.279 2107.77 460.476 2103.33 463.222 2098.33 467.617 2091.67 470.363 2087.78 474.208 2083.89 478.604 2078.9 483.546 2073.34 488.491 2067.79 492.885 2063.35 497.28 2058.35 501.674 2052.24 509.914 2040.58 517.055 2028.92 521.998 2017.26 526.394 2006.16 529.139 1994.5 531.336 1983.4 531.887 1971.74 531.887 1960.63 531.336 1948.97 530.238 1936.76 525.843 1912.33 520.35 1886.78 517.604 1872.9 514.308 1859.02 519.253 1854.58 524.197 1850.69 529.139 1847.36 533.535 1843.48 538.478 1839.03 542.873 1833.48 547.817 1826.82 552.76 1818.49 557.155 1806.83 559.901 1795.17 561 1782.95 559.901 1771.29 557.155 1759.63 553.31 1748.53 547.817 1737.98 540.676 1729.1 532.985 1720.77 524.197 1714.1 514.308 1709.11 503.322 1705.78 497.829 1705.22 492.336 1704.67 486.294 1705.22 480.252 1705.78 474.208 1707.44 468.166 1709.66 462.124 1712.44 455.532 1715.77 449.49 1719.66 443.997 1722.99 438.504 1726.88 432.461 1730.21 428.066 1732.98 423.672 1734.65 420.376 1735.2 417.08 1735.76 413.784 1735.2 410.488 1734.65 402.798 1731.32 398.404 1729.65 393.46 1727.43 387.967 1725.21 380.825 1722.99 373.135 1720.77 364.346 1719.1 353.909 1716.88 341.825 1715.77 335.783 1715.21 330.289 1715.21 325.894 1715.21 322.049 1715.21 313.809 1716.33 309.415 1716.88 303.922 1717.99 299.528 1717.44 293.486 1716.88 286.346 1715.77 278.107 1714.66 268.22 1713.55 257.233 1714.1 245.697 1715.77 232.514 1718.55 203.4 1729.65 198.456 1727.43 194.611 1725.76 186.921 1721.88 183.076 1720.21 178.682 1719.66 173.189 1718.55 167.146 1719.1 135.835 1735.2 129.793 1731.87 123.751 1728.54 117.707 1724.65 110.566 1720.21 102.876 1715.77 94.0867 1711.88 83.651 1708 72.1144 1704.67 65.5236 1703.55 60.0302 1703 54.5373 1703 49.5931 1703.55 41.3526 1705.78 34.7617 1710.22 28.7199 1716.33 23.7757 1723.54 18.8316 1731.87 13.887 1740.76 10.0422 1749.64 6.74733 1759.08 4.54892 1768.52 4.00013 1778.51 4.00013 1788.51 5.09916 1798.5 7.29612 1808.5 11.1413 1818.49 13.3382 1824.04 16.0854 1829.59 23.2266 1841.26 31.4657 1852.36 35.3104 1857.36 39.1556 1861.24 43.0007 1865.13 45.1992 1868.46 47.9449 1871.79 50.6921 1876.24 46.2967 1879.01 41.3526 1882.9 36.4098 1887.9 31.4657 1894 22.6763 1906.22 18.8316 1912.88 15.5352 1918.99 11.1413 1928.43 8.9443 1936.76 7.84528 1943.42 7.84528 1950.08 8.9443 1956.74 11.1413 1963.41 13.887 1971.18 17.1834 1981.18 18.8316 1979.51 19.9306 1978.4 21.0285 1977.29 21.5788 1976.18 22.6763 1974.51 23.2266 1972.29 23.7757 1970.63 24.3245 1968.96 24.8733 1967.85 25.9727 1966.74 27.6205 1965.63Z" fill="#FBFCFC" fill-rule="evenodd"/><path d="M485.626 1736.22 481.75 1751.22 475.108 1751.78 470.125 1752.89 465.697 1753.44 461.822 1755.11 457.948 1756.78 454.071 1760.11 449.09 1764 443 1770.11 461.822 1789.56 464.589 1783.44 467.358 1777.33 470.678 1771.78 474 1766.78 477.322 1764.55 480.09 1762.89 486.732 1761.22 493.376 1761.22 500.018 1763.44 505.553 1767.33 510.536 1772.33 513.857 1779 514.964 1782.33 515.518 1786.22 512.75 1819 513.857 1817.89 516.625 1815.11 520.499 1811.22 524.375 1806.78 528.803 1801.22 532.678 1796.22 534.892 1791.22 535.447 1789 536 1786.78 519.946 1748.44 526.589 1746.78 523.821 1744 519.393 1740.67 514.964 1737.33 510.536 1735.11 507.769 1734.55 504.447 1734 497.25 1734 493.376 1734 490.054 1734.55 487.285 1735.11 485.626 1736.22Z" fill="#FBFCFC" fill-rule="evenodd"/><path d="M294 1946.51 294 1947.05 294.554 1947.6 296.217 1949.23 296.769 1950.32 298.433 1952.49 299.542 1954.12 301.204 1956.3 302.312 1956.84 303.975 1957.93 306.194 1959.56 308.964 1961.74 315.061 1953.03 330.028 1962.28 340.005 1951.95 355.524 1961.74 363.285 1954.12 373.262 1965 383.239 1951.95 389.891 1960.1 391 1954.67 390.445 1949.77 388.228 1945.42 385.457 1942.16 381.022 1939.44 376.588 1937.26 371.045 1936.72 364.947 1936.72 362.176 1936.72 359.96 1936.72 357.187 1935.63 354.417 1934.54 352.754 1934 349.982 1934 346.102 1934 342.222 1935.09 338.342 1935.63 333.908 1935.09 326.147 1934.54 318.941 1935.09 311.181 1935.63 302.867 1937.81 298.987 1939.44 296.769 1940.53 295.109 1942.7 294 1946.51Z" fill="#F9FAFA" fill-rule="evenodd"/><path d="M350.871 2168.09 351.419 2167.55 351.968 2166.46 353.064 2165.36 354.161 2164.82 355.258 2168.64 355.258 2173 361.839 2172.45 366.775 2171.91 369.516 2170.27 371.71 2167.55 372.807 2164.27 373.355 2159.91 373.904 2155 375 2149 364.58 2154.45 356.355 2147.36 351.419 2153.36 341.548 2152.27 331.676 2152.27 321.805 2152.82 311.935 2153.91 303.708 2145.73 299.321 2157.18 293.839 2152.82 289.452 2147.36 280.677 2137 273 2139.18 274.645 2144.64 276.29 2149.55 278.484 2153.36 280.677 2156.64 283.968 2159.91 287.259 2162.09 291.644 2164.82 296.58 2167 301.515 2169.18 304.806 2170.27 306.999 2170.82 308.644 2170.27 310.837 2169.18 312.483 2169.18 314.676 2169.18 317.419 2169.73 319.612 2170.27 320.708 2171.36 321.258 2171.36 322.903 2171.91 325.096 2171.36 328.387 2169.73 330.58 2168.64 333.321 2167 338.806 2172.45 350.871 2168.09Z" fill="#F9FAFA" fill-rule="evenodd"/><path d="M73.9999 2021.51 104.196 2084.79 109.138 2080.35 130 2102 129.451 2095.34 126.157 2089.23 122.863 2083.68 118.471 2073.13 115.725 2063.7 114.628 2053.71 114.078 2043.71 114.078 2033.17 114.628 2020.96 115.177 2007.63 114.628 2009.3 113.53 2012.07 112.432 2015.41 110.785 2019.29 107.491 2027.06 105.843 2029.84 105.295 2032.61 100.902 2065.92 98.7061 2063.7 97.6076 2062.03 96.5103 2059.81 95.4118 2058.7 94.8633 2056.48 92.1176 2050.93 90.4703 2045.93 88.2745 2035.39 87.726 2024.84 88.2745 2014.29 89.9218 2003.75 92.1176 1993.2 97.6076 1971 96.5103 1972.67 94.8633 1974.89 92.1176 1980.44 88.2745 1987.65 84.4314 1995.42 80.5887 2003.19 77.8441 2010.41 75.0983 2017.07 73.9999 2021.51Z" fill="#FBFCFC" fill-rule="evenodd"/><path d="M29.3086 1968.26 26.6157 1978.22 25.0001 1988.73 25.0001 1999.24 25.5395 2009.2 27.155 2019.16 29.8465 2028.57 32.5394 2035.76 36.3082 2041.85 52.9999 2059 49.7691 2037.42 47.0773 2026.91 43.8464 2017.5 41.1535 2007.54 40.0773 2001.46 39.5394 1994.82 39.5394 1987.07 39.5394 1980.43 40.6156 1974.9 41.6929 1969.92 44.3844 1961.07 46.5379 1955.53 48.1535 1950 42.2309 1952.21 36.8465 1956.64 32.5394 1962.17 29.3086 1968.26Z" fill="#FBFCFC" fill-rule="evenodd"/><path d="M102.02 1755.54 93.8638 1748.91 92.2328 1747.25 90.6015 1746.15 88.427 1745.04 86.2525 1743.39 85.7093 1738.42 80.2722 1738.42 75.9222 1738.42 73.2041 1738.42 71.0296 1738.42 69.3987 1737.87 67.2242 1737.31 65.0483 1735.66 61.2425 1734 68.3106 1751.67 56.8935 1747.25 51.9999 1759.96 71.0296 1771 71.0296 1756.09 108 1767.69 102.02 1755.54Z" fill="#F9FAFA" fill-rule="evenodd"/><path d="M53.0237 2034.57 56.9306 2039 60.2795 2035.68 63.0697 2031.8 64.744 2027.92 66.4187 2023.48 63.6273 2019.05 61.3951 2014.62 59.1628 2007.41 58.0462 2000.76 58.0462 1994.11 59.7204 1986.36 61.3951 1982.48 63.0697 1977.49 64.744 1971.95 66.9763 1966.41 69.2085 1959.2 71.9998 1952 65.302 1960.31 59.7204 1968.07 55.2559 1975.83 52.4646 1982.48 50.2324 1988.57 48.5577 1994.67 48.0001 2000.21 48.0001 2005.2 48.5577 2013.51 50.7915 2021.27 52.4646 2028.47 53.0237 2034.57Z" fill="#F9FAFA" fill-rule="evenodd"/><path d="M101.369 1826 116.043 1816.46 112.783 1810.29 128 1810.29 127.457 1809.73 126.37 1808.05 123.653 1806.37 121.478 1805.81 119.304 1804.68 114.957 1804.68 111.696 1804.68 108.435 1805.24 104.63 1805.81 78 1803 78.5444 1807.49 79.6307 1810.85 81.8043 1814.22 83.979 1817.03 87.7833 1819.83 91.5876 1822.07 95.9349 1823.76 101.369 1826Z" fill="#F9FAFA" fill-rule="evenodd"/><path d="M151.311 1779.44 146.367 1774.44 141.971 1774.44 138.127 1773.33 134.282 1772.22 131.536 1770.55 125.493 1765.56 120 1760 120 1760.56 120.55 1761.67 121.648 1765.56 123.846 1771.11 126.592 1777.22 128.789 1783.33 131.536 1788.33 133.184 1792.22 133.733 1793.33 134.282 1794.44 135.93 1795 138.127 1794.44 140.874 1793.33 143.62 1792.22 150.76 1788.33 159.001 1784.44 150.212 1781.11 150.212 1780 149.663 1778.89 150.212 1778.89 150.212 1779.44 151.311 1779.44Z" fill="#F9FAFA" fill-rule="evenodd"/><path d="M73.0002 1831 72.4493 1829.9 71.8995 1829.35 71.35 1829.35 71.35 1829.35 70.799 1828.79 64.7493 1824.38 61.4492 1821.62 58.6996 1818.86 54.299 1813.35 50.4491 1806.72 48.2493 1802.86 46.0496 1799 42.1996 1800.66 40.5494 1802.86 39.9999 1806.17 39.9999 1809.48 41.0992 1812.79 42.1996 1816.1 43.8499 1818.86 45.4997 1820.52 50.4491 1824.93 56.4999 1828.24 64.1998 1829.9 73.0002 1831Z" fill="#FAFAFD" fill-rule="evenodd"/><path d="M293.934 1947 291.8 1947 290.202 1947 288.067 1947.55 287.001 1948.65 284.868 1950.31 282.201 1953.06 279 1956.92 287.001 1974 289.668 1970.69 291.8 1967.39 293.934 1961.88 295 1955.26 294.467 1951.41 293.934 1947Z" fill="#F9FAFA" fill-rule="evenodd"/><path d="M273.059 2138 282 2116.41 277.53 2114.14 274.177 2113 269.147 2113 266.353 2113 263 2113 264.117 2119.82 265.793 2127.2 268.588 2133.46 270.823 2135.73 273.059 2138Z" fill="#FBFCFC" fill-rule="evenodd"/><path d="M341 1856.89 339.304 1854.68 337.609 1853.58 334.783 1851.92 333.087 1850.82 330.827 1849.16 328 1846.4 324.608 1842.53 323.479 1841.42 322.914 1840.87 322.914 1840.32 322.914 1839.76 321.783 1839.21 320.652 1838.11 318.391 1837 316.696 1838.11 315.566 1840.32 315 1841.97 315 1844.18 316.696 1848.61 320.087 1852.47 324.608 1855.79 329.696 1858 335.348 1858 338.175 1858Z" fill="#F5F9F9" fill-rule="evenodd"/><path d="M481.879 1828 482.44 1822.44 483 1817.44 482.44 1813 480.76 1808 479.64 1803.55 477.4 1799.67 476.279 1797.44 475.719 1795.78 474.6 1794.67 472.359 1793 470.679 1795.22 469.559 1796.89 469 1799.11 469 1801.33 470.119 1805.22 472.92 1810.78 477.4 1819.67 479.64 1823.56Z" fill="#F9FAFA" fill-rule="evenodd"/><path d="M219 2109 214.2 2067 212.4 2070.87 211.201 2075.29 210 2085.24 210 2090.21 210.6 2095.18 211.8 2099.61 214.2 2104.03 215.401 2106.24 216.6 2106.79 217.201 2107.9 219 2109Z" fill="#F3F4F4" fill-rule="evenodd"/><path d="M346.001 2141.17 322 2140 322.545 2141.17 322.545 2142.33 322.545 2142.92 323.637 2143.5 324.182 2144.08 325.818 2144.67 329.091 2146.42 331.818 2147 337.273 2147 341.637 2144.67 346.001 2141.17Z" fill="#EDF3F3" fill-rule="evenodd"/><path d="M57.0004 1793 54.7938 1786.51 52.0345 1780.57 49.8279 1776.78 48.1725 1774.62 45.4146 1773 43.2065 1773 40.9999 1773 41.5511 1775.7 42.6553 1778.95 44.3104 1781.11 46.517 1783.81 52.0345 1788.14Z" fill="#EDF3F3" fill-rule="evenodd"/><path d="M317 1782 317 1774.33 316.429 1767.76 313.571 1762.29 309 1759 309.571 1764.48 311.286 1771.05 313.571 1777.07 315.286 1779.81Z" fill="#03040A" fill-rule="evenodd"/><path d="M24.0001 1958.2 25.696 1957.64 26.8268 1957.64 26.8268 1958.2 26.8268 1961 37.0001 1933 32.4789 1938.04 29.6521 1944.2 26.8268 1950.36 24.0001 1958.2Z" fill="#858888" fill-rule="evenodd"/><path d="M151.109 1780 167 1777 165.865 1776.4 165.297 1775.8 165.297 1775.2 164.162 1775.2 163.027 1775.2 160.757 1775.2 157.919 1774.6 154.513 1774 151.676 1774 148.837 1774 146 1774 151.109 1780Z" fill="#5A6567" fill-rule="evenodd"/><path d="M241.276 1800 242.379 1801.12 243.483 1802.24 244.034 1803.36 244.034 1804.48 244.034 1805.04 244.034 1806.72 244.034 1809.52 242.379 1809.52 241.276 1809.52 239.621 1808.96 238.517 1808.4 237.415 1807.84 235.208 1806.72 233 1804.48 237.415 1814 249 1806.16 247.345 1803.36 246.242 1801.68 244.587 1800.56 243.483 1800.56 241.276 1800Z" fill="#B8BBC5" fill-rule="evenodd"/><path d="M103.001 1755 100.734 1752.26 99.0337 1750.07 97.3334 1747.87 95.0669 1745.68 93.367 1743.48 91.6667 1741.29 89.9667 1739.65 89.4002 1739.1 88.834 1738.55 88.2664 1738.55 87.1337 1738.55 85.9999 1738 85.9999 1742.94 88.834 1744.03 90.5329 1745.13 92.2328 1746.77 94.5008 1748.42 103.001 1755Z" fill="#858888" fill-rule="evenodd"/><path d="M364 1770.54 364.538 1770.54 365.077 1771.15 365.616 1771.77 366.154 1771.77 368.309 1772.38 368.847 1773 369.384 1773 370.462 1773 378 1765 374.769 1765 372.616 1765 371.538 1765 370.462 1765.61 369.923 1766.23 368.309 1767.46 366.693 1768.69 364 1770.54Z" fill="#AFB0AE" fill-rule="evenodd"/><path d="M242 1800.22 239.744 1798.56 235.796 1798 232.411 1798 229.591 1798.56 227.333 1799.67 223.385 1803 220 1808 223.95 1804.11 228.462 1801.89 234.103 1800.78 237.488 1800.22 242 1800.22Z" fill="#B5B9B9" fill-rule="evenodd"/><path d="M288 1750 288 1751.18 288 1751.77 288 1751.77 288 1751.77 288.543 1752.35 289.084 1752.94 301 1760 298.291 1755.88 295.041 1752.94 291.25 1750.59 288 1750Z" fill="#3A4547" fill-rule="evenodd"/><path d="M112 1850 107.501 1850.5 108.625 1847 106.938 1847.5 106.375 1847.5 105.813 1848.5 104.688 1849.5 104.126 1851.5 103 1855 105.251 1854 106.938 1853.5 108.625 1852.5 109.751 1851.5 112 1850Z" fill="#C6C8C9" fill-rule="evenodd"/><path d="M225 2032.2 224.501 2028 221.5 2028 221 2029.2 220.5 2030.4 220 2031.6 220 2033.4 220.5 2034.6 220.5 2037 222 2034.6 222.501 2033.4 223 2032.8 223 2032.2 223 2032.8 223.5 2032.8 225 2032.2Z" fill="#969898" fill-rule="evenodd"/><path d="M178 2045.64 176.25 2046.91 175.083 2046.91 174.5 2047.55 174.5 2046.27 174.5 2045 172.75 2045.64 172.167 2046.27 171 2046.91 171 2048.18 171 2049.45 171 2052 172.75 2051.36 173.917 2050.73 175.083 2050.73 176.25 2049.45 176.833 2047.55Z" fill="#7A8687" fill-rule="evenodd"/><path d="M388 1862 398 1840 396.333 1841.65 394.667 1843.85 391.889 1849.9 389.667 1855.95 388 1862Z" fill="#E5E6E7" fill-rule="evenodd"/><path d="M422.001 1805 422.001 1804.5 422.5 1803.5 423 1802.5 423 1802.5 423.5 1801.5 423.5 1801 424 1800.5 423.5 1800.5 422.5 1800 420 1802 420 1803.5 420 1804.5 420 1804.5 420 1804.5 420.501 1804 421 1804 422.001 1805Z" fill="#878B95" fill-rule="evenodd"/><path d="M207 2048 204.778 2048 204.223 2048 204.223 2046.8 204.223 2045 203.667 2046.2 203.112 2046.8 202.557 2048.6 202 2050.4 202 2051.6 202 2054 207 2048Z" fill="#76837B" fill-rule="evenodd"/><path d="M339 1767 340.334 1764.5 340.334 1763 341 1762 340.334 1762 339 1762 338.334 1762 337.668 1762 337 1763 337 1764 337 1765 337 1765.5 337 1765.5 337 1765.5 337.668 1766Z" fill="#969898" fill-rule="evenodd"/><path d="M287.445 1750 287.445 1748.33 287.445 1747.78 288 1747.22 287.445 1747.22 286.89 1746.67 285.222 1746.11 283 1745 283.555 1746.67 284.111 1747.78 284.667 1748.89 285.778 1748.89Z" fill="#5A6567" fill-rule="evenodd"/><path d="M351 2168.43 355 2169 353.5 2165 352.5 2165.57 352 2166.71 351 2167.86 351 2168.43Z" fill="#6A7576" fill-rule="evenodd"/><path d="M203 2059 213 2051 211.235 2051.53 210.647 2052.07 210.06 2052.07 209.471 2052.6 208.295 2053.13 207.118 2054.2 205.353 2055.8 204.765 2055.8 204.765 2055.8 204.765 2055.27 205.353 2055.27 205.353 2055.27 204.765 2056.33 203 2059Z" fill="#757879" fill-rule="evenodd"/></g></svg>